<?xml version="1.0" encoding="UTF-8"?>
<!DOCTYPE svg PUBLIC "-//W3C//DTD SVG 1.1//EN" "http://www.w3.org/Graphics/SVG/1.1/DTD/svg11.dtd">
<!-- Creator: CorelDRAW X7 -->
<svg xmlns="http://www.w3.org/2000/svg" xml:space="preserve" width="100%" height="100%" version="1.1" style="shape-rendering:geometricPrecision; text-rendering:geometricPrecision; image-rendering:optimizeQuality; fill-rule:evenodd; clip-rule:evenodd"
viewBox="0 0 5011 4794"
 xmlns:xlink="http://www.w3.org/1999/xlink">
 <defs>
  <style type="text/css">
   <![CDATA[
    .fil2 {fill:#FEFEFE}
    .fil13 {fill:#E6E7E8}
    .fil12 {fill:#BDBFC1}
    .fil14 {fill:#606062}
    .fil8 {fill:#FCD3C2}
    .fil9 {fill:#F8AC92}
    .fil11 {fill:#D4D4D3}
    .fil3 {fill:#889FAC}
    .fil4 {fill:#6B7D87}
    .fil7 {fill:#4E5A62}
    .fil5 {fill:#C8C5E2}
    .fil10 {fill:#537473}
    .fil6 {fill:#585570}
    .fil1 {fill:black}
    .fil0 {fill:white}
   ]]>
  </style>
 </defs>
 <g id="Layer_x0020_1">
  <metadata id="CorelCorpID_0Corel-Layer"/>
  <g id="_1433313208624">
   <g>
    <path class="fil0" d="M2107 4079c-27,-26 -116,-480 -140,-564 -55,-196 -78,-160 47,-206 108,-40 88,4 164,105 46,59 129,132 194,168 43,24 12,48 20,108 6,49 22,94 32,143 38,190 128,140 -48,171 -36,7 -265,76 -269,75zm-306 -952c5,16 31,42 10,105 -6,21 -3,19 -5,40 -5,12 -63,40 -82,66 -8,10 -14,18 -26,20 -8,-6 -11,-12 -13,-15 13,-39 66,-107 54,-161 -4,-18 -22,-26 -34,-37 -10,13 -21,51 -33,70 -53,86 -28,50 -60,146 -9,29 -16,52 -25,83 -2,0 -40,2 -42,2 -16,-1 -15,-14 -18,-29 28,-42 24,-164 93,-226 43,-39 4,-42 55,-40l5 -13c-1,-1 -135,14 -149,16 -136,19 -268,88 -395,147 -102,47 -66,38 -105,171 -16,54 -56,258 -61,310 -3,30 -2,53 -7,84 34,-41 74,-90 101,-135 16,-25 26,-59 31,-88 3,-13 7,-39 9,-52 4,-28 -18,-12 -3,-46 0,0 122,-68 151,-67 19,31 -3,42 -6,73 -11,98 -30,191 -32,284 -1,66 -19,210 -18,287 1,74 22,70 -5,108 -14,20 -14,17 -51,29 -46,14 -113,73 -129,83 -32,18 -33,46 -56,46l-19 -50c-19,-98 -7,-82 0,-171 3,-41 23,-238 14,-262 -10,72 -29,131 -32,206 -2,41 -7,200 -3,260 251,175 548,290 870,325 -11,-33 -22,-65 -35,-97 -9,-23 -65,-203 -63,-213l18 -9 109 315c1,2 1,4 2,7 40,3 79,6 120,7 309,8 604,-59 865,-185 -31,-75 -38,-90 -86,-179 -24,-45 -40,-87 -64,-132l-118 -278c-16,-41 -41,-102 -53,-142 -15,-52 -38,-97 -50,-146 -12,-51 -30,-101 -43,-152 -13,-58 -15,-116 -25,-174 -9,-56 -4,-106 -57,-138 -45,-28 -91,-48 -144,-56 -96,-16 -265,-21 -360,3z"/>
    <g>
     <path class="fil1" d="M1502 1302l3 -1 -3 1zm112 -56l9 -5 -9 5zm1296 839c12,13 39,28 56,29 14,-46 17,-98 21,-149 -18,-33 -25,-23 -1,-58 1,-2 26,-55 28,-60 16,-43 39,-87 44,-132 18,-25 8,-1 21,-34 13,-34 36,-25 62,-17 9,-12 16,-39 30,-63 14,-22 1,-36 41,-49l29 25c4,39 16,16 15,54 -1,23 3,-2 4,22 0,18 -5,-1 -3,23 18,-2 32,-8 48,-12 35,-10 20,-2 40,-2 14,-1 32,-12 42,-20 20,-17 11,-25 36,-24 9,19 2,21 4,36 20,6 75,14 96,10 -5,-29 -27,-29 -43,-57 -15,-26 -20,-35 -42,-58 -17,-17 -34,-34 -51,-51 -24,-25 -20,-37 -36,-60 -25,-19 -132,22 -160,39 -13,8 -23,20 -39,30 -49,30 -121,96 -152,143 -52,76 -138,229 -95,326 9,22 -3,37 -2,63 1,16 -1,37 7,46zm364 103c19,-1 54,18 84,15 -15,-13 -18,-8 -38,-13 -27,-34 3,-31 28,-33 31,40 73,24 95,33 27,25 37,30 72,42 23,7 16,12 28,27 14,17 16,6 28,20 11,-26 -20,-120 -74,-134 -46,-12 -52,-75 -131,-88 -46,45 -46,78 -86,123 -2,3 -9,8 -6,8zm-1967 -1344c13,22 26,65 32,89 10,38 15,29 40,52 16,14 30,32 48,43 21,13 33,15 53,34 28,25 70,59 103,76 53,28 54,59 120,44 60,-13 78,-16 118,-63 15,-18 29,-30 41,-51 22,-40 75,-141 98,-167 42,-45 35,-102 50,-121 47,-9 47,10 61,-49 7,-26 7,-59 10,-87 5,-35 8,-65 16,-100 9,-36 6,-50 -22,-73 -40,4 -40,15 -59,46l-7 -15c-14,22 -28,46 -46,64 -17,17 -19,43 -39,60 -22,-12 -5,-14 -33,-13 -15,0 -30,2 -44,2 4,81 14,106 -76,128 -46,11 -138,47 -181,37l-3 -42c-56,-13 -60,4 -101,27 -9,53 -15,21 -51,46 -12,8 -53,25 -67,28 -16,4 -39,4 -61,5zm-26 2c-1,0 -1,0 -2,0 -61,9 -15,1 -74,-9l-36 -97 -15 10c-36,-21 -32,-9 -65,-44 123,-134 45,-53 52,-192 1,-32 -1,-112 7,-139 13,-39 46,-50 73,-78 29,-30 38,-70 60,-103 20,-30 53,-53 80,-77 85,-80 75,-93 204,-107 148,-16 253,-25 367,76 33,29 63,34 92,57 38,31 32,63 52,102 16,32 51,68 31,103 -17,31 -60,51 -26,85 38,38 59,48 44,108 -13,55 -22,80 -22,139 0,153 -91,83 -80,230 4,45 10,82 47,111 29,24 64,39 94,65 27,23 62,47 91,70 39,31 59,22 100,5 101,-44 4,54 197,39 42,-4 105,0 147,4 110,9 148,-19 255,33 80,38 132,52 198,118 107,108 105,25 212,46 12,19 5,27 17,44 9,14 16,15 26,34 17,32 31,45 61,62 10,5 41,53 53,68 21,25 32,40 45,70 22,9 21,1 34,23 8,12 20,24 24,31 11,27 -5,62 1,88 22,11 8,-2 67,31 42,-19 56,-71 112,-74 47,-3 95,29 127,59 45,-4 94,-17 141,37 46,-3 25,-6 63,22 31,23 22,31 41,48 36,-3 46,-5 80,16 19,10 37,49 38,71 -16,14 -10,12 -28,12l-28 63c15,11 41,18 59,23 26,6 25,16 53,27 40,15 73,31 114,46 40,15 80,31 121,44 23,8 37,10 61,22 40,19 18,7 55,8 21,40 -11,23 -14,55 4,3 45,22 55,27 54,28 121,45 179,60l9 18c19,4 66,13 81,22 -17,23 -55,9 -83,23 -58,28 -26,17 -77,-8 -14,-7 -32,-8 -47,-15 -14,-5 -26,-15 -40,-22 -11,-5 -80,-26 -90,-26 -30,23 -2,65 -76,39 -30,-10 -50,-26 -87,-39 -99,-34 -196,-82 -300,-106 -37,-8 -64,-31 -89,4 -9,12 -24,23 -30,32 -7,12 -3,28 -12,38 -10,12 -85,13 -106,13 -76,-1 -93,-92 -185,-22 -43,32 -69,-3 -104,-9 -36,-6 -24,26 -72,-20 -51,-49 -105,-63 -162,-106 -43,-33 -48,-23 -89,-4 -31,15 -69,-5 -102,-23 -12,-7 -3,12 -46,30 -20,8 -12,11 -31,21 -31,-6 -44,-25 -34,-54 -148,-76 -109,-10 -122,29l-26 1c-13,-19 -4,-21 -20,-35 -12,-11 -18,-13 -27,-27l14 -30c-21,-12 -57,-23 -70,-48 -14,-25 -16,-35 -18,-61 -25,-14 -28,-7 -50,-34 -51,60 -76,122 -116,189 -34,57 -81,125 -119,181 -44,64 -72,119 -125,179 -32,36 -30,66 -34,112 -11,115 -48,237 -58,397 -7,112 108,99 29,211 -31,43 -28,65 -15,114 12,43 17,82 26,125 17,77 44,153 64,230 57,216 168,434 268,631 24,47 49,95 72,143 -7,3 -14,7 -21,10 -31,-75 -38,-90 -86,-179 -24,-45 -40,-87 -64,-132l-118 -278c-16,-41 -41,-102 -53,-142 -15,-52 -38,-97 -50,-146 -12,-51 -30,-101 -43,-152 -13,-58 -15,-116 -25,-174 -9,-56 -4,-106 -57,-138 -45,-28 -91,-48 -144,-56 -96,-16 -265,-21 -360,3 5,16 31,42 10,105 -6,21 -3,19 -5,40 -5,12 -63,40 -82,66 -8,10 -14,18 -26,20 -8,-6 -11,-12 -13,-15 13,-39 66,-107 54,-161 -4,-18 -22,-26 -34,-37 -10,13 -21,51 -33,70 -53,86 -28,50 -60,146 -9,29 -16,52 -25,83 -2,0 -40,2 -42,2 -16,-1 -15,-14 -18,-29 28,-42 24,-164 93,-226 43,-39 4,-42 55,-40l5 -13c-1,-1 -135,14 -149,16 -136,19 -268,88 -395,147 -102,47 -66,38 -105,171 -16,54 -56,258 -61,310 -3,30 -2,53 -7,84 34,-41 74,-90 101,-135 16,-25 26,-59 31,-88 3,-13 7,-39 9,-52 4,-28 -18,-12 -3,-46 0,0 122,-68 151,-67 19,31 -3,42 -6,73 -11,98 -30,191 -32,284 -1,66 -19,210 -18,287 1,74 22,70 -5,108 -14,20 -14,17 -51,29 -46,14 -113,73 -129,83 -32,18 -33,46 -56,46l-19 -50c-19,-98 -7,-82 0,-171 3,-41 23,-238 14,-262 -10,72 -29,131 -32,206 -2,41 -7,200 -3,260 -8,-6 -16,-12 -24,-17 -6,-55 -9,-111 -5,-166 3,-45 30,-99 -12,-128 -34,-23 -62,-46 -89,-79 -19,-24 -12,-25 -43,-37 -60,-25 -35,-65 -24,-114 10,-40 29,-49 43,-80 12,-27 19,-64 49,-75 20,11 3,-3 15,18l32 -19c0,-20 -1,-53 2,-72 4,-26 -29,-85 -35,-117 -3,-15 -9,-47 -15,-59 -13,-29 -101,-154 -121,-197 -14,-29 -39,-78 -55,-105 -17,-27 -52,-69 -61,-97 -37,-112 -67,-115 -44,-246 -58,-38 -60,-6 -95,-81 -17,-39 -31,-90 -19,-133 3,-14 49,-88 60,-105 77,-123 47,-196 144,-199 48,-1 58,-52 79,-93 38,-77 86,-148 122,-226 17,-36 48,-75 70,-109 22,-36 37,-72 63,-111 21,-33 51,-72 74,-104 53,-71 37,-37 104,-66 21,-9 35,-24 59,-33 24,-10 34,-18 56,-29 20,-11 40,-14 61,-25 19,-9 37,-20 55,-30 20,-10 35,-25 53,-33 26,-12 36,-8 47,-38 10,-27 26,-89 61,-82l65 -27c1,-7 5,-13 30,-24l-5 -52c-28,-17 -22,-7 -51,-33l-94 -69c-27,-16 -78,-36 -97,-66 -6,-9 -7,-20 -14,-27 -7,-7 -15,-3 -23,-9 -9,-6 -50,-116 -52,-131zm305 426l-47 20c1,1 1,1 1,1 -4,26 -8,17 -26,29 -33,22 -38,76 -46,112l-70 255c-6,29 -14,59 -21,88 -5,25 -6,67 -3,92 6,40 -21,49 -7,76 14,3 45,-3 59,-15l65 -383c13,-79 25,-193 83,-256 7,-8 11,-14 12,-19zm-631 2621c0,-11 4,1 4,1 3,1 -5,12 -4,-1zm-129 -68c2,-10 25,-44 32,-55 23,40 26,54 18,90 -18,-15 -39,-19 -50,-35zm253 -63l-13 12 13 -12zm-230 -54c0,-4 5,-10 8,0 1,8 -9,7 -8,0zm263 -33c1,-12 -1,6 0,0zm9 -27c0,-1 -1,2 -2,2l2 -2zm7 -21c-8,25 -1,4 -9,12l9 -12zm-107 276c13,-16 17,-32 27,-48l102 -206c17,-52 -14,-79 37,-117 13,-9 30,-19 45,-18l-25 159c-11,82 -11,209 -23,284 -26,167 -1,153 2,252 -11,6 -36,14 -49,21 -19,10 -31,14 -53,19 -15,33 -33,27 -60,55 -10,10 -21,18 -34,27 -19,12 -15,17 -30,25 -1,-36 -5,-75 -6,-112 -1,-41 3,-83 10,-123 5,-30 6,-93 8,-126 4,-85 21,-64 7,-103l72 -97c8,23 -40,73 -54,88l24 20zm720 -613c-2,-3 2,2 0,0zm-172 112c-6,-12 5,-55 9,-67 20,-64 22,-107 92,-165 -8,20 -18,39 -31,57 -38,54 -35,87 -47,117l-23 58zm-497 -97c3,-22 55,-41 75,-49 17,-7 29,-13 44,-22 45,-30 16,-8 43,-22 80,-40 92,-34 144,-53 12,-4 32,-13 43,-16 -6,14 -147,74 -173,83 -19,6 -20,13 -44,21 -50,16 -108,61 -132,58zm363 -162c7,-7 -10,-5 15,-5l-15 5zm381 1556c-1,-3 -1,-5 -2,-7l-109 -315 -18 9c-2,10 54,190 63,213 13,32 24,64 35,97 11,1 21,2 31,3zm-369 -1638c17,-20 33,-23 60,-19 72,11 29,-9 115,38 23,13 39,7 45,26 -37,28 -61,-14 -96,-28 -52,-22 8,-33 -100,-18 -13,52 7,45 39,67 -43,0 -52,-32 -63,-66zm322 178c7,-21 16,-113 -51,-112 5,-12 2,-8 18,-11 15,12 10,14 29,27 43,28 30,36 16,94 -6,25 -8,31 -30,43 1,-23 12,-23 18,-41zm548 -86c-44,-29 -107,-47 -106,-49 11,-3 107,33 124,42 36,16 81,43 59,86 -11,-19 5,-8 -10,-29 -9,-12 -12,-7 -22,-18 -30,-34 -12,-10 -45,-32zm-767 -74c9,31 16,17 34,35 -17,11 -69,-10 -82,-27 18,-14 26,-11 48,-8zm216 25c15,-12 19,-13 37,-14 -7,12 -18,16 -12,34l-25 -20zm422 -2c8,-3 9,-3 9,-3 16,-6 -2,11 -9,3zm-352 -20c16,11 7,5 29,8l-51 9 22 -17zm48 0c6,6 -6,0 -7,-2 -4,-8 7,2 7,2zm15 -7c16,-5 48,0 73,-2 43,-4 179,-5 216,24 -27,7 -173,-15 -220,-18 -54,-3 -47,15 -69,-4zm-210 22c4,-39 92,-89 133,-77 -3,34 -22,30 -47,48 -23,17 -42,21 -72,18 -13,15 1,4 -14,11zm-678 -136c8,-6 10,-8 16,-16l3 53c-13,-5 -12,-15 -19,-37zm-452 -204c5,-33 36,-73 50,-112 11,-34 25,-85 44,-113 78,-5 153,11 227,26 29,6 64,22 93,31 32,11 46,32 70,52 -9,27 -56,126 -56,147 1,18 19,48 23,72 6,27 11,56 14,82 -41,-17 -6,-57 -64,-51l-38 -42c-16,9 -1,5 -18,7 -15,-14 -25,-19 -31,-37 17,3 22,8 36,3 -22,-20 -37,-2 -65,-16 1,18 -2,7 16,23 7,6 16,14 20,21 10,19 10,34 32,49 53,34 51,28 69,91 16,-15 -6,-49 -16,-69 26,8 43,101 45,107 5,14 14,12 25,26 2,36 2,76 3,112 1,36 35,42 13,107 -52,22 -20,9 -39,41 -6,11 -5,1 -11,17 7,28 13,16 28,33 5,35 -35,125 -40,172 -6,51 -34,128 -33,170 0,115 -33,192 -49,277 -4,22 -1,63 -16,75l-9 -6c5,-22 6,3 9,-22 -23,-19 -74,-38 -91,-61l17 -15 -75 -47 13 -81c7,-14 7,1 12,-24 12,-56 20,-31 59,-72 6,-6 3,-3 9,-7 0,44 3,27 -17,56 -5,8 -7,17 -14,22 -7,6 -11,3 -23,11 5,25 33,44 57,55 41,20 22,35 74,11 8,-76 -56,-164 -21,-293 20,-74 15,-39 45,-69l-10 -23c-39,0 -41,34 -57,56 -2,-5 -26,-88 -30,-102 -19,-69 -113,-190 -147,-262 -52,-111 -174,-262 -144,-391l26 -18 -15 -19zm-72 -67c-8,-14 -3,-12 -3,-14 4,-24 14,-25 20,-28l-17 42zm19 -53c6,-12 6,-8 11,-17 -2,13 0,12 -11,17zm-41 38c1,-31 39,-89 63,-105 -30,27 -29,82 -63,105zm68 -83l-7 11 7 -11zm-68 18c-11,-15 -3,-16 12,-20l-12 20zm271 -338c65,-2 148,9 213,19 24,4 21,4 41,15 22,13 24,5 46,11 26,8 57,20 78,34 6,39 -43,224 -57,268 -16,-7 -37,-30 -64,-44 -88,-47 -325,-86 -421,-57 -33,10 -115,37 -136,65 2,-9 44,-81 52,-97 10,-17 24,-31 31,-46 76,-144 58,-168 201,-155l16 -13zm-218 447c5,-28 40,-82 56,-111 4,-6 6,-13 11,-20 6,-11 5,-8 10,-12 -5,27 -27,82 -45,100l13 7 -33 68c0,-37 16,-36 15,-67l-27 35zm-26 -9c7,-32 73,-155 98,-164 -9,15 -38,68 -45,84 -11,25 -27,74 -53,80zm4391 -256c-28,12 -79,-22 -112,-29 -27,-5 -53,-22 -73,-39 -9,-7 -6,-4 -12,-9l-12 -8c31,11 91,24 114,36 64,33 22,-11 95,49zm-1304 -183l15 19c-17,-5 -12,-6 -15,-19zm1052 111c-5,-40 -5,-14 5,-48 5,-22 -6,-23 14,-42l15 10c-5,29 -23,105 -41,124l-15 -6c2,-23 1,-28 22,-38zm-41 31c-26,0 -248,-98 -250,-99 -35,-8 -130,-41 -148,-64l22 -19c43,4 332,115 374,141l2 41zm-337 -199c-30,-20 -14,-9 -49,-19l3 -21c13,0 80,35 101,42l104 35c17,6 29,16 52,25 16,5 39,13 53,19 60,31 95,16 88,55 -44,3 -142,-60 -203,-80 -10,-3 -15,-8 -24,-11 -42,-15 -83,-18 -125,-45zm-1205 -65c2,-42 38,-108 49,-153 5,9 1,-2 5,13 26,88 -2,54 77,150l-22 32c-14,-23 -11,-21 -44,-28 -24,-6 -40,-11 -65,-14zm1306 29c0,0 -1,2 -2,1l2 -1zm29 40c-28,-11 -26,-19 -58,-14 -15,-22 -81,-40 -108,-50l10 -20c29,4 63,36 90,44 68,19 151,59 206,72 26,6 84,17 100,40l-4 15c-25,6 -99,-30 -126,-41 -51,-20 -104,-28 -128,-47l18 1zm-1152 -237c-3,46 -19,107 -44,146 -11,-8 -44,-67 -50,-81 -9,-19 -15,-74 -18,-99 66,12 93,30 112,34zm486 -107c11,-18 25,-16 41,-34 21,-24 18,-17 46,-29 27,-13 31,-3 53,13 19,13 35,13 50,27 12,24 -48,169 -38,199 9,27 21,34 0,65 -20,0 -70,-27 -86,-42 -10,-21 29,-114 -8,-137 -15,11 -6,32 -9,57 -3,26 -11,41 -12,68 -58,-21 -103,71 -108,93 -4,13 2,14 7,19 9,-8 52,-101 98,-86 37,27 87,39 124,60 67,38 30,104 13,112 -36,3 -46,-1 -78,-11 -36,-11 -22,-21 -50,-35l-14 21c3,15 46,77 58,81 16,-21 7,-23 -3,-43 28,-3 13,-3 30,14l46 -7c-12,20 1,-4 -20,14 24,10 17,0 34,-10 19,-10 13,3 29,-21 7,-11 13,-23 17,-35 9,-27 -6,-22 11,-45l14 25c24,-10 31,-34 26,-58 -6,-37 7,-47 15,-81 10,-42 22,-120 36,-156 28,3 8,8 32,3 16,-4 6,-4 24,-1 28,5 27,10 44,27 12,29 -72,212 -50,246l12 0c6,-8 14,-54 18,-70 14,-65 14,-148 98,-150l33 33c8,20 -63,158 -77,191l-16 60 -22 8c-19,47 -66,109 -118,63 38,-38 72,-45 64,-84 -33,0 -30,22 -59,42 -13,9 -51,19 -69,15 -12,-7 -10,-35 -15,-45 -19,18 -13,9 -25,36 25,15 21,20 40,40 16,-6 25,-6 39,-13 17,26 0,13 9,31 6,12 14,9 23,24 -31,-2 -108,-7 -127,-29 11,-17 14,-5 27,-24 -18,-11 -4,-8 -26,-3l10 -22c-42,-3 2,5 -76,30 -44,14 -35,3 -73,32 -17,5 -99,-21 -133,-67 -19,-26 -25,-14 -26,-42 31,18 54,34 77,64 3,-52 -125,-94 -120,-162 25,-17 15,5 82,-44 62,-46 97,-69 103,-146 5,-76 -10,-33 -25,-81zm-202 -5c23,11 52,-29 107,-10 36,12 57,39 66,75 25,87 -34,122 -99,161 -33,19 -74,30 -105,3 -55,-49 -26,-27 -38,-58 -21,-52 -35,-74 14,-128 17,-19 27,-20 40,-31 21,-19 -3,-12 34,-31l-19 19zm-329 338c-2,-16 53,-164 64,-188 10,-20 22,-21 23,-38 2,-29 23,-131 53,-133 17,4 36,16 44,32 -11,27 -19,56 -24,85 -3,21 -21,51 -30,72l11 21c1,14 -69,104 -69,104 -6,10 -3,13 -12,23 -14,16 -23,16 -40,8l-20 14zm504 -299c-11,-22 -26,-29 -25,-30 1,-1 3,-2 3,-3 0,-2 3,-1 4,-2 18,22 45,33 40,66 -25,-22 -7,-1 -22,-31zm231 -23c45,-16 24,-26 59,-24 22,1 43,10 59,21 -3,15 -20,43 -26,60l-32 127c-5,19 -16,47 -20,67l16 14c-15,15 -8,17 -26,27 -50,-74 -28,-20 -67,-52l23 -111c7,-41 3,-86 14,-129zm-269 -20c0,-1 -1,2 -1,1l1 -1zm-303 149c6,-28 20,-62 29,-91 5,-19 8,-27 17,-44 12,-25 -4,-14 9,-37 20,-6 35,-3 53,10 -12,23 -41,42 -56,81 -11,27 2,84 4,114 -34,8 -30,-16 -56,-33zm250 -202c-29,6 -15,3 -17,-8 12,-5 6,-6 17,8zm-36 -36c1,-1 4,9 -1,2l1 -2zm-25 24c8,6 8,1 21,13l-58 17c-20,6 -31,-8 -54,-14 -15,-4 -18,-7 -26,-10 -3,-1 -38,1 -64,-26 26,-12 31,2 62,-1 -10,-15 -18,-11 -36,-22l31 -77 107 102c9,8 10,13 17,18zm58 -38c-12,-3 -47,-39 -54,-56 20,6 26,13 32,32 11,-17 2,-6 11,-7l11 31zm-288 -70c3,48 -34,46 -44,103l-37 -12 18 -64 63 -27zm242 70c-28,-12 -48,-45 -72,-67l10 -10c15,11 20,24 33,37 14,14 17,25 29,40zm-2862 486c6,-27 30,-69 46,-91 22,-29 33,-57 49,-90 31,-67 109,-182 148,-261 21,-43 126,-212 181,-213 6,33 -5,39 -4,67 3,52 50,253 64,306 7,23 19,31 27,48 6,12 2,15 7,28 7,23 35,13 -42,120 -16,23 -31,23 -39,37 -1,3 -24,46 -25,48l25 18 -6 52c-17,2 -76,-23 -99,-29 -28,-8 -22,-14 -55,-13 -44,0 -80,-23 -167,-20l-110 -7zm2593 -452c16,-22 64,-118 115,-128 -6,11 -15,21 -18,36 -5,22 -1,19 -12,41l-23 2 -9 54c19,15 35,5 57,18l-4 21c-9,3 -30,-8 -43,-14 -29,-13 -15,-14 -27,-34 -22,10 -16,19 -36,4zm-105 -101c4,-35 -16,-19 5,-57 11,-19 14,-37 31,-47 18,14 8,19 11,34 6,24 31,34 -10,136l-31 -2 -4 27c13,14 89,41 112,50 -5,22 -31,107 -43,120 -44,-30 -24,-8 -69,-23 -40,-13 -32,-20 -78,-20 -20,52 -81,244 -93,260 -12,-5 -13,-5 -13,-25 1,-44 15,-211 23,-235l65 -156c12,-25 9,-33 16,-57 37,-5 26,5 47,14l31 -19zm-2027 -132c23,-10 35,-8 62,-24 38,-23 108,-48 157,-74 52,-26 53,-39 77,-40 -6,45 -52,214 -71,254 -28,58 -19,209 -36,276l-20 9c-17,-9 -4,-7 -24,-11 -20,23 -39,71 -59,87 -15,-22 -12,-36 -24,-51 -22,-27 -69,-240 -75,-280 -7,-47 -5,-88 -7,-135l20 -11zm1726 427c-46,-20 -153,-51 -185,-74 -29,-20 -98,-100 -115,-133 -31,-62 -41,-133 -42,-201 -1,-55 4,-57 22,-105 16,-43 29,-39 53,-69 17,-20 31,-54 50,-77 17,-20 91,-70 108,-79 17,-9 31,-6 49,-11 49,-14 35,-18 89,4 49,20 131,47 173,78 21,15 123,100 130,114 -42,34 -89,59 -128,97 -29,29 -93,81 -108,116 -46,102 -123,178 -96,340zm-1262 -582c-11,-28 9,-128 10,-165 15,9 40,54 54,72 17,20 42,37 56,66 30,64 42,112 66,176l-40 70c-31,49 -31,197 -53,269 -42,6 -91,8 -129,19 -39,10 -84,21 -125,18l18 -157c15,-40 33,-173 45,-236 11,-59 8,-111 43,-187 9,-19 12,-20 22,-25l13 129c3,27 6,103 47,86 10,-22 -7,-14 -8,-46 0,-20 5,-37 8,-56 19,-117 17,-50 39,-88 -36,-50 -59,44 -66,55zm135 -121c-4,11 3,6 -9,11 1,-16 6,-10 9,-11zm171 2c3,38 -9,61 -13,98 -8,56 -42,103 -83,139 -19,-27 -55,-127 -63,-161 13,-16 16,10 31,-48 -16,-13 -6,-5 -22,-21l-22 57 -22 -33 9 -16c-1,18 -5,18 7,29 17,-9 33,-48 30,-69l-20 16c2,-22 36,-59 46,-82l-24 9c3,-18 44,-36 63,-61 51,-63 78,-127 104,-161 19,-25 28,-51 49,-78 23,19 14,47 20,78 -15,18 -17,4 -19,30 26,27 26,-4 28,52l21 15c-27,41 -12,55 -63,107 -15,15 -13,8 -35,10 -11,18 -24,70 -22,90zm-221 -18c24,-40 34,-66 60,-70 -6,41 -11,12 -35,39 -10,13 -18,33 -26,47 -6,-6 -15,-19 -16,-24l17 8zm14 33c-5,-13 -8,13 -2,-15 4,-20 38,-55 50,-64 -8,23 -32,61 -48,79zm371 180c39,4 23,-33 40,-67 12,-25 25,-46 37,-71 39,-79 22,-61 82,-131 87,1 38,34 -4,163 -24,75 -122,423 -153,443 0,0 -311,71 -341,65 -7,-31 12,-147 18,-183 10,-56 43,-99 78,-141 132,-165 77,-99 98,-225 4,-20 12,-77 18,-91 14,-2 45,19 56,33l59 129c2,23 3,54 12,76zm-409 -255c0,-1 -2,3 -2,2l2 -2zm804 709l95 110c-43,67 -96,298 -112,374 -4,22 -16,43 -18,61 -3,31 1,32 -12,63 -15,34 -10,101 -20,140 -11,40 -21,93 -27,134 -7,48 -14,95 -20,144 -5,41 7,125 -12,155 -17,0 -16,0 -30,-10 -20,-13 0,-3 -24,-5 -30,-3 -134,-52 -182,-53 -18,0 -13,3 -32,1l-110 -5c-57,-1 -82,6 -135,17 3,-28 31,-37 6,-71 -25,-36 -92,2 -105,12l-79 71c-27,-10 -58,-38 -85,-51 -28,-13 -74,-10 -108,-15 -26,16 -48,34 -59,65l17 34c-20,15 -66,32 -91,36 -22,4 -39,20 -89,38 -24,8 -23,11 -43,22 -18,11 -23,3 -45,15 -27,15 -51,32 -82,38 -2,-33 0,-74 -4,-105 -4,-33 -14,-58 -16,-94 -4,-65 -7,-131 -18,-195 -42,-241 55,-133 46,-209 -5,-45 -7,-44 11,-85 60,-138 40,-333 70,-379 15,-22 39,-33 52,-60 9,-19 5,-27 20,-50 58,-85 28,-92 100,-100 46,-5 111,-22 157,-32 57,-12 127,-23 185,-30 128,-17 240,-49 363,-70 123,-22 213,-60 340,-24l96 113zm85 40c-44,-35 -83,-95 -112,-122 -31,-29 -35,-64 -85,-71 -30,-5 -103,6 -127,6 -13,-25 10,-125 20,-153 9,-25 6,-42 13,-73 7,-28 15,-50 22,-77 14,-52 41,-90 59,-135 9,-25 45,-116 59,-132 22,2 9,10 35,7 19,-3 12,-2 33,-1 63,3 137,-9 176,0 31,6 54,-7 83,5 -1,15 -73,51 -89,69 -26,30 -45,65 -70,93 -57,63 -82,144 -69,227 12,77 34,174 86,236 30,36 92,90 138,106 22,8 36,10 57,24 -12,38 -51,108 -75,146l-128 210c-16,25 -33,23 -54,57 -23,35 -49,116 -81,139l39 -126c4,-17 -1,-24 -1,-35l24 -98c10,-41 30,-82 43,-121 32,-100 33,-71 52,-107l-48 -74zm-442 -170c12,-58 91,-254 107,-341 6,-32 70,-203 94,-236 19,-25 20,-49 66,-41 4,33 -37,114 -52,144l-78 221c-3,18 -14,58 -20,77 -28,92 -15,125 -25,162 -25,14 -62,18 -92,14zm-54 -715c47,-17 51,4 88,31 25,19 57,37 84,54 -12,14 -16,10 -26,22 -5,7 -11,19 -17,28 -15,18 -24,38 -34,59l-55 129c-21,-18 -10,-34 -26,-59 -10,-17 -19,-29 -26,-49 -22,-58 -28,-48 -64,-88l40 -62c9,-13 28,-50 36,-65zm-709 -269c-15,9 -6,5 -13,1 9,-5 -2,-10 13,-1zm3 -34c-28,23 -56,6 -53,-23 23,-7 8,0 23,12 15,12 13,0 30,11zm42 -63l-9 57 -28 -1c7,-14 19,-17 23,-31 5,-13 0,-13 1,-18 5,-18 -3,-6 13,-7zm243 19c-5,-7 -10,-18 -13,-24 12,7 18,9 29,16l-16 8zm-175 -10c-3,-3 1,2 0,0zm-47 -17c10,16 16,24 5,40l-5 -40zm-229 -19c8,8 27,69 20,109 -1,9 0,3 -2,8 -8,-10 -30,-94 -30,-95 -3,-24 12,-22 12,-22zm511 16c11,4 8,3 9,15 -13,-8 -9,-4 -9,-15zm35 -10l9 16c-15,8 -5,7 -18,2 -2,-13 0,-12 9,-18zm-595 -3c0,-4 4,-9 6,0 1,7 -6,6 -6,0zm336 26c13,-30 69,-33 98,-29l-2 12c-24,-13 -42,-2 -96,17zm-59 -39c21,4 23,12 15,29 -15,-12 -14,-10 -15,-29zm243 35c-16,-14 -22,-21 -10,-38l36 27 -26 11zm-321 -48l1 28c-43,22 -21,10 -41,4 -10,-3 -6,0 -17,-3 -17,-5 -4,-7 -30,-8l-10 18 45 81c-15,6 -37,1 -54,-2 -18,-32 -17,-56 -13,-90 0,0 -10,-6 -10,-7l-7 -5 136 -16zm-206 10c18,-26 42,-37 36,6 -13,-5 -7,0 -16,-14 0,0 -7,5 -7,5 -7,3 -5,2 -13,3zm274 0c-20,-10 -14,-4 -18,-18 18,1 17,-2 18,18zm-220 -5c3,-15 7,-17 24,-17 22,-1 12,6 34,-2 -1,0 -55,18 -58,19zm377 -49c16,-17 22,-13 43,-16 18,-3 30,-10 48,-12 -21,13 -66,18 -78,31 7,28 8,2 13,29 2,10 1,22 4,32 4,17 14,33 19,48 -28,2 -23,-25 -30,-52 -2,-10 -5,-25 -7,-34 -5,-16 -7,-9 -12,-26zm-235 30c-13,4 -15,2 -27,-5 0,0 16,-6 17,-6 16,1 5,-2 10,11zm403 6c4,-2 -1,-20 18,-3 -10,15 -5,12 -18,3zm-344 -13c5,-4 6,-5 6,-5 8,-5 -1,10 -6,5zm-204 -6c6,-15 16,-24 32,-25l3 22 -35 3zm423 19c-14,-21 -9,-17 6,-26 4,13 4,15 -6,26zm44 -34c14,-8 15,-5 31,-11 13,-4 13,-6 22,-11 -7,19 -4,11 -6,33 -20,8 -28,14 -48,11l1 -22zm120 77c16,-80 -20,-85 -26,-109l21 -2 41 89c-9,11 -24,21 -36,22zm63 -122c15,-8 43,-11 58,-4 -16,9 -45,13 -58,4zm-647 -19c-15,-15 -22,-54 -12,-78 9,17 13,57 12,78zm738 19c-3,-21 5,-29 19,-42 -2,13 -12,30 -19,42zm-752 -118c2,-3 3,11 -2,3l2 -3zm687 47l11 -24 27 -3 10 -22 28 5c18,-24 13,-26 44,-39 -3,20 -41,68 -55,90 -24,37 -58,35 -100,41 -16,-16 -24,-38 -48,-10 8,18 58,27 44,100 -18,-14 -21,-54 -29,-74 -38,-15 -94,23 -133,23 2,-25 -7,-21 50,-31 19,-3 42,-5 58,-16 -46,-8 -81,4 -122,15 -63,18 -91,11 -84,42l-19 11c6,20 19,30 17,44 -48,-16 -77,19 -109,29 -12,-26 -2,-44 -16,-69 -43,-25 -133,18 -186,8 -9,-19 -9,-9 -4,-28 28,-16 236,-24 289,-39l167 -49c66,-29 40,-9 65,-20 7,-3 15,-12 25,-18l70 34zm-8 -46c4,14 -5,3 -5,2 0,-19 4,-6 5,-2zm122 25c3,-19 16,-37 28,-47 -3,15 -16,35 -28,47zm-781 -56c19,24 17,99 23,134 -15,-2 -12,-8 -13,-29 -2,-30 -16,-92 -10,-105zm30 -24c13,13 30,145 21,159 -22,-14 -29,-145 -21,-159zm75 156l-30 1c-10,-25 -13,-116 -20,-154l21 1c5,13 0,9 5,19 6,14 5,3 12,14 3,5 21,96 12,119zm732 -141c1,-14 2,-1 2,-1 3,-1 -3,8 -2,1zm-847 -49c20,-9 56,-2 80,-5 33,-3 45,9 144,-3 47,-6 47,-15 63,-9 -27,19 -46,6 -74,17 -29,11 -127,13 -145,9 -57,-13 -57,12 -68,-9zm338 9c30,-25 89,-24 128,-38 26,-10 38,-8 65,-19 23,-10 34,-15 59,-23 107,-34 181,-111 212,-116 3,85 49,162 29,178 -18,8 -4,-4 -28,1 -26,6 -97,59 -121,67 -26,8 -26,-7 -46,18 -47,4 -40,5 -80,25 -19,10 -52,18 -74,26 -34,13 -138,36 -171,32 -9,-26 -11,-42 -16,-69 -4,-25 0,-47 -23,-57 -11,23 21,87 15,129l-36 4c-11,-21 -16,-41 -18,-64 -3,-23 4,-55 -19,-59 -22,23 20,97 22,127 -22,7 -18,9 -43,8 -38,-57 -3,-121 -42,-128 -2,45 18,94 17,137l-28 -4c-10,-16 -12,-55 -14,-75 -3,-45 -14,-63 -10,-71 26,-7 71,3 98,-5 30,-8 63,-17 95,-18 9,16 20,43 23,61 4,24 12,42 17,67 10,-11 6,12 7,-15l-11 -50c-4,-25 -10,-42 -7,-69zm-27 -27c13,-12 24,-22 40,-10l-40 10zm62 -17c24,-9 59,-24 85,-22 -21,19 -18,4 -41,11 -14,4 -32,14 -44,11zm89 -22c25,-23 33,-12 62,-26 18,-8 39,-18 58,-27 19,-9 9,-10 29,-16 57,-17 35,-13 89,-37 -3,23 -3,11 -22,23 -33,20 -105,44 -148,63 -25,11 -38,17 -68,20zm415 8c6,-30 -60,-132 -49,-157 26,32 48,119 62,159l-27 28c-24,-24 -41,-94 -41,-130 33,48 20,104 55,100zm-171 -118c14,-12 28,-20 41,-15 -10,12 -28,20 -41,15zm44 -20c0,-1 2,-2 2,-2l-2 2zm-558 51c-7,6 -1,-3 -9,11 -25,37 -27,51 -28,96l-32 -4c2,-40 30,-65 31,-89 -61,-6 -23,103 -75,92 -2,-41 27,-65 28,-90 -28,-11 -42,49 -52,86l-39 -9c5,-25 23,-16 37,-31 12,-12 9,-30 25,-47 16,-19 17,-27 30,-42 8,-10 24,-25 34,-36 68,-74 140,-90 170,-114l-3 -22c46,-24 186,-31 238,-26 36,4 64,16 97,29 22,9 18,12 35,22 21,12 5,3 12,19 31,15 40,11 60,45 14,24 -19,50 -38,26 -28,-37 -66,-72 -112,-91l-13 22c16,13 43,23 62,39 23,19 26,36 46,49 -1,1 -2,3 -3,3 -1,1 -2,2 -3,3l-75 36c-9,4 -18,13 -25,16 -26,12 -24,-1 -57,23 -21,15 -2,8 -27,12 -14,3 -18,4 -32,7 -14,-23 -56,-103 -85,-109 -32,36 61,49 74,115 -16,8 -40,21 -58,22 -21,-28 -28,-119 -72,-113 -6,35 13,15 29,51 7,14 18,49 21,64 -12,7 -84,22 -102,23 3,-24 13,-103 -11,-110 7,38 -8,48 -6,116l-33 2c-1,-62 19,-94 29,-146 -10,4 -5,-6 -17,16 -24,44 -24,99 -34,136l-34 2c-3,-49 12,-63 17,-104z"/>
    </g>
    <g>
     <path class="fil0" d="M1693 2425c-1,-1 2,2 0,0zm-282 37c-8,-35 50,-324 67,-376 14,-40 3,-36 47,-43 39,-7 100,-27 135,-26 -1,31 -45,171 -56,213 -9,40 -17,216 -42,233 -24,-6 -9,-10 -24,-30 -53,-1 -91,59 -127,29zm569 -515c0,-1 -1,1 -1,1l1 -1zm-272 465c-14,-18 7,-71 12,-100 5,-28 13,-73 20,-99l54 -199c2,-3 170,-66 171,-65 29,6 50,-5 86,-7 37,-2 73,-18 91,9 12,-11 6,-18 25,-16 5,17 -56,181 -65,216 -9,39 -40,229 -48,242 -68,8 -203,-9 -274,8 -21,5 -57,21 -72,11zm430 -453c-34,-5 -226,23 -261,49 -22,16 -63,20 -71,35 15,4 73,-6 87,-13l167 -36c30,2 19,-5 37,-9 23,-4 16,7 36,11l5 -37zm473 93c-19,36 -20,7 -52,107 -13,39 -33,80 -43,121l-24 98c0,11 5,18 1,35l-39 126c32,-23 58,-104 81,-139 21,-34 38,-32 54,-57l128 -210c24,-38 63,-108 75,-146 -21,-14 -35,-16 -57,-24 -46,-16 -108,-70 -138,-106 -52,-62 -74,-159 -86,-236 -13,-83 12,-164 69,-227 25,-28 44,-63 70,-93 16,-18 88,-54 89,-69 -29,-12 -52,1 -83,-5 -39,-9 -113,3 -176,0 -21,-1 -14,-2 -33,1 -26,3 -13,-5 -35,-7 -14,16 -50,107 -59,132 -18,45 -45,83 -59,135 -7,27 -15,49 -22,77 -7,31 -4,48 -13,73 -10,28 -33,128 -20,153 24,0 97,-11 127,-6 50,7 54,42 85,71 29,27 68,87 112,122 20,15 41,55 48,74l0 0zm-133 -114c-35,-53 -69,-105 -96,-113 -127,-36 -217,2 -340,24 -123,21 -235,53 -363,70 -58,7 -128,18 -185,30 -46,10 -111,27 -157,32 -72,8 -42,15 -100,100 -15,23 -11,31 -20,50 -13,27 -37,38 -52,60 -30,46 -10,241 -70,379 -18,41 -16,40 -11,85 9,76 -88,-32 -46,209 11,64 14,130 18,195 2,36 12,61 16,94 4,31 2,72 4,105 31,-6 55,-23 82,-38 22,-12 27,-4 45,-15 20,-11 19,-14 43,-22 50,-18 67,-34 89,-38 25,-4 71,-21 91,-36l-17 -34c11,-31 33,-49 59,-65 34,5 80,2 108,15 27,13 58,41 85,51l79 -71c13,-10 80,-48 105,-12 25,34 -3,43 -6,71 53,-11 78,-18 135,-17l110 5c19,2 14,-1 32,-1 48,1 152,50 182,53 24,2 4,-8 24,5 14,10 13,10 30,10 19,-30 7,-114 12,-155 6,-49 13,-96 20,-144 6,-41 16,-94 27,-134 10,-39 5,-106 20,-140 13,-31 9,-32 12,-63 2,-18 14,-39 18,-61 16,-76 69,-307 112,-374l-95 -110z"/>
    </g>
    <path class="fil0" d="M760 3827c14,-5 4,-7 14,3 -16,10 -8,3 -14,-3zm30 -40c1,-1 2,2 2,3 0,0 1,1 1,1 0,-1 -12,7 -3,-4zm-229 -942c0,0 1,1 0,0zm6 -25c0,0 0,0 0,0zm256 -11c12,-5 -1,-7 17,0 -20,15 -6,8 -17,0zm-25 -111c12,-10 53,-15 69,-9 54,17 71,41 100,84 17,26 19,39 13,71 -11,-12 -69,-124 -134,-126 -27,-1 -40,15 -48,-20zm-239 59l15 19 -26 18c-30,129 92,280 144,391 34,72 128,193 147,262 4,14 28,97 30,102 16,-22 18,-56 57,-56l10 23c-30,30 -25,-5 -45,69 -35,129 29,217 21,293 -52,24 -33,9 -74,-11 -24,-11 -52,-30 -57,-55 12,-8 16,-5 23,-11 7,-5 9,-14 14,-22 20,-29 17,-12 17,-56 -6,4 -3,1 -9,7 -39,41 -47,16 -59,72 -5,25 -5,10 -12,24l-13 81 75 47 -17 15c17,23 68,42 91,61 -3,25 -4,0 -9,22l9 6c15,-12 12,-53 16,-75 16,-85 49,-162 49,-277 -1,-42 27,-119 33,-170 5,-47 45,-137 40,-172 -15,-17 -21,-5 -28,-33 6,-16 5,-6 11,-17 19,-32 -13,-19 39,-41 22,-65 -12,-71 -13,-107 -1,-36 -1,-76 -3,-112 -11,-14 -20,-12 -25,-26 -2,-6 -19,-99 -45,-107 10,20 32,54 16,69 -18,-63 -16,-57 -69,-91 -22,-15 -22,-30 -32,-49 -4,-7 -13,-15 -20,-21 -18,-16 -15,-5 -16,-23 28,14 43,-4 65,16 -14,5 -19,0 -36,-3 6,18 16,23 31,37 17,-2 2,2 18,-7l38 42c58,-6 23,34 64,51 -3,-26 -8,-55 -14,-82 -4,-24 -22,-54 -23,-72 0,-21 47,-120 56,-147 -24,-20 -38,-41 -70,-52 -29,-9 -64,-25 -93,-31 -74,-15 -149,-31 -227,-26 -19,28 -33,79 -44,113 -14,39 -45,79 -50,112z"/>
    <path class="fil0" d="M2875 1990c-27,-162 50,-238 96,-340 15,-35 79,-87 108,-116 39,-38 86,-63 128,-97 -7,-14 -109,-99 -130,-114 -42,-31 -124,-58 -173,-78 -54,-22 -40,-18 -89,-4 -18,5 -32,2 -49,11 -17,9 -91,59 -108,79 -19,23 -33,57 -50,77 -24,30 -37,26 -53,69 -18,48 -23,50 -22,105 1,68 11,139 42,201 17,33 86,113 115,133 32,23 139,54 185,74z"/>
    <path class="fil0" d="M688 2248l110 7c87,-3 123,20 167,20 33,-1 27,5 55,13 23,6 82,31 99,29l6 -52 -25 -18c1,-2 24,-45 25,-48 8,-14 23,-14 39,-37 77,-107 49,-97 42,-120 -5,-13 -1,-16 -7,-28 -8,-17 -20,-25 -27,-48 -14,-53 -61,-254 -64,-306 -1,-28 10,-34 4,-67 -55,1 -160,170 -181,213 -39,79 -117,194 -148,261 -16,33 -27,61 -49,90 -16,22 -40,64 -46,91z"/>
    <path class="fil0" d="M2051 3337c-63,-5 -104,2 -88,63 11,47 17,95 33,141 40,109 58,299 94,440 26,104 6,78 73,50 51,-21 91,-20 138,-37 50,-17 111,-13 136,-21l-88 -319 -298 -317z"/>
    <path class="fil0" d="M1820 1665c48,-34 97,59 42,88 -30,16 -46,-5 -60,-28 -18,-28 -7,-41 18,-60zm263 -181c-9,-22 -10,-53 -12,-76l-59 -129c-11,-14 -42,-35 -56,-33 -6,14 -14,71 -18,91 -21,126 34,60 -98,225 -35,42 -68,85 -78,141 -6,36 -25,152 -18,183 30,6 341,-65 341,-65 31,-20 129,-368 153,-443 42,-129 91,-162 4,-163 -60,70 -43,52 -82,131 -12,25 -25,46 -37,71 -17,34 -1,71 -40,67z"/>
    <path class="fil0" d="M4122 2189c17,30 26,6 30,36 -15,4 -28,2 -40,-5 -7,-18 -1,-19 10,-31zm-100 -30c17,-1 2,5 18,3 10,-1 -3,-10 19,0 3,14 -2,19 -12,32 -10,-2 -18,-2 -26,-13 -15,-22 0,-20 1,-22zm-171 -79c-16,-17 -2,3 -30,-4l-9 -19 33 -8 6 31zm322 -42l32 12c-9,19 -14,18 -37,11l5 -23zm-74 -53c-7,15 -14,16 -32,20 -18,-10 -11,-1 -21,-16 15,-20 34,-14 53,-4zm-264 -92c20,5 9,-5 30,6l-11 21c-19,5 -60,-7 -46,-36 8,3 19,7 27,9zm-118 -19c15,48 30,5 25,81 -6,77 -41,100 -103,146 -67,49 -57,27 -82,44 -5,68 123,110 120,162 -23,-30 -46,-46 -77,-64 1,28 7,16 26,42 34,46 116,72 133,67 38,-29 29,-18 73,-32 78,-25 34,-33 76,-30l-10 22c22,-5 8,-8 26,3 -13,19 -16,7 -27,24 19,22 96,27 127,29 -9,-15 -17,-12 -23,-24 -9,-18 8,-5 -9,-31 -14,7 -23,7 -39,13 -19,-20 -15,-25 -40,-40 12,-27 6,-18 25,-36 5,10 3,38 15,45 18,4 56,-6 69,-15 29,-20 26,-42 59,-42 8,39 -26,46 -64,84 52,46 99,-16 118,-63l22 -8 16 -60c14,-33 85,-171 77,-191l-33 -33c-84,2 -84,85 -98,150 -4,16 -12,62 -18,70l-12 0c-22,-34 62,-217 50,-246 -17,-17 -16,-22 -44,-27 -18,-3 -8,-3 -24,1 -24,5 -4,0 -32,-3 -14,36 -26,114 -36,156 -8,34 -21,44 -15,81 5,24 -2,48 -26,58l-14 -25c-17,23 -2,18 -11,45 -4,12 -10,24 -17,35 -16,24 -10,11 -29,21 -17,10 -10,20 -34,10 21,-18 8,6 20,-14l-46 7c-17,-17 -2,-17 -30,-14 10,20 19,22 3,43 -12,-4 -55,-66 -58,-81l14 -21c28,14 14,24 50,35 32,10 42,14 78,11 17,-8 54,-74 -13,-112 -37,-21 -87,-33 -124,-60 -46,-15 -89,78 -98,86 -5,-5 -11,-6 -7,-19 5,-22 50,-114 108,-93 1,-27 9,-42 12,-68 3,-25 -6,-46 9,-57 37,23 -2,116 8,137 16,15 66,42 86,42 21,-31 9,-38 0,-65 -10,-30 50,-175 38,-199 -15,-14 -31,-14 -50,-27 -22,-16 -26,-26 -53,-13 -28,12 -25,5 -46,29 -16,18 -30,16 -41,34z"/>
    <path class="fil0" d="M720 2285c-143,-13 -125,11 -201,155 -7,15 -21,29 -31,46 -8,16 -50,88 -52,97 21,-28 103,-55 136,-65 96,-29 333,10 421,57 27,14 48,37 64,44 14,-44 63,-229 57,-268 -21,-14 -52,-26 -78,-34 -22,-6 -24,2 -46,-11 -20,-11 -17,-11 -41,-15 -65,-10 -148,-21 -213,-19l-16 13z"/>
    <path class="fil0" d="M1613 1408c7,-11 30,-105 66,-55 -22,38 -20,-29 -39,88 -3,19 -8,36 -8,56 1,32 18,24 8,46 -41,17 -44,-59 -47,-86l-13 -129c-10,5 -13,6 -22,25 -35,76 -32,128 -43,187 -12,63 -30,196 -45,236l-18 157c41,3 86,-8 125,-18 38,-11 87,-13 129,-19 22,-72 22,-220 53,-269l40 -70c-24,-64 -36,-112 -66,-176 -14,-29 -39,-46 -56,-66 -14,-18 -39,-63 -54,-72 -1,37 -21,137 -10,165z"/>
    <path class="fil0" d="M1021 3903l-24 -20c14,-15 62,-65 54,-88l-72 97c14,39 -3,18 -7,103 -2,33 -3,96 -8,126 -7,40 -11,82 -10,123 1,37 5,76 6,112 15,-8 11,-13 30,-25 13,-9 24,-17 34,-27 27,-28 45,-22 60,-55 22,-5 34,-9 53,-19 13,-7 38,-15 49,-21 -3,-99 -28,-85 -2,-252 12,-75 12,-202 23,-284l25 -159c-15,-1 -32,9 -45,18 -51,38 -20,65 -37,117l-102 206c-10,16 -14,32 -27,48z"/>
    <path class="fil0" d="M1539 301c3,10 -9,7 -9,3 1,-19 6,-11 9,-3zm171 -94c0,0 -94,-45 -101,-80 12,-12 20,2 42,13 29,16 87,71 89,100 -11,-10 -19,-24 -30,-33zm77 -14c-15,-10 -33,-47 -58,-63 -22,-15 -67,-24 -80,-37 34,-3 121,30 139,55 29,39 14,13 31,30 -14,6 -7,2 -25,-7l-4 13c-2,5 0,3 -3,9zm-226 -145l-16 4 16 -4zm167 -5c17,-6 20,-2 27,12l-27 -12zm-136 -1c16,-11 39,-8 58,-10 21,-1 32,-6 51,9l-109 1zm-94 7l3 22c-30,24 -102,40 -170,114 -10,11 -26,26 -34,36 -13,15 -14,23 -30,42 -16,17 -13,35 -25,47 -14,15 -32,6 -37,31l39 9c10,-37 24,-97 52,-86 -1,25 -30,49 -28,90 52,11 14,-98 75,-92 -1,24 -29,49 -31,89l32 4c1,-45 3,-59 28,-96 8,-14 2,-5 9,-11 -5,41 -20,55 -17,104l34 -2c10,-37 10,-92 34,-136 12,-22 7,-12 17,-16 -10,52 -30,84 -29,146l33 -2c-2,-68 13,-78 6,-116 24,7 14,86 11,110 18,-1 90,-16 102,-23 -3,-15 -14,-50 -21,-64 -16,-36 -35,-16 -29,-51 44,-6 51,85 72,113 18,-1 42,-14 58,-22 -13,-66 -106,-79 -74,-115 29,6 71,86 85,109 14,-3 18,-4 32,-7 25,-4 6,3 27,-12 33,-24 31,-11 57,-23 7,-3 16,-12 25,-16l75 -36c1,-1 2,-2 3,-3 1,0 2,-2 3,-3 -20,-13 -23,-30 -46,-49 -19,-16 -46,-26 -62,-39l13 -22c46,19 84,54 112,91 19,24 52,-2 38,-26 -20,-34 -29,-30 -60,-45 -7,-16 9,-7 -12,-19 -17,-10 -13,-13 -35,-22 -33,-13 -61,-25 -97,-29 -52,-5 -192,2 -238,26z"/>
    <path class="fil0" d="M1129 1574c2,47 0,88 7,135 6,40 53,253 75,280 12,15 9,29 24,51 20,-16 39,-64 59,-87 20,4 7,2 24,11l20 -9c17,-67 8,-218 36,-276 19,-40 65,-209 71,-254 -24,1 -25,14 -77,40 -49,26 -119,51 -157,74 -27,16 -39,14 -62,24l-20 11z"/>
    <path class="fil0" d="M1527 393c-3,27 3,44 7,69l11 50c-1,27 3,4 -7,15 -5,-25 -13,-43 -17,-67 -3,-18 -14,-45 -23,-61 -32,1 -65,10 -95,18 -27,8 -72,-2 -98,5 -4,8 7,26 10,71 2,20 4,59 14,75l28 4c1,-43 -19,-92 -17,-137 39,7 4,71 42,128 25,1 21,-1 43,-8 -2,-30 -44,-104 -22,-127 23,4 16,36 19,59 2,23 7,43 18,64l36 -4c6,-42 -26,-106 -15,-129 23,10 19,32 23,57 5,27 7,43 16,69 33,4 137,-19 171,-32 22,-8 55,-16 74,-26 40,-20 33,-21 80,-25 20,-25 20,-10 46,-18 24,-8 95,-61 121,-67 24,-5 10,7 28,-1 20,-16 -26,-93 -29,-178 -31,5 -105,82 -212,116 -25,8 -36,13 -59,23 -27,11 -39,9 -65,19 -39,14 -98,13 -128,38z"/>
    <path class="fil0" d="M1799 2076c-27,63 -62,245 -70,316 52,-11 5,-23 146,-22 43,1 124,5 161,-1 11,-62 22,-131 37,-190 12,-49 49,-133 54,-175 -8,16 -52,9 -78,14l-250 58z"/>
    <path class="fil0" d="M1797 1198c-10,23 -44,60 -46,82l20 -16c3,21 -13,60 -30,69 -12,-11 -8,-11 -7,-29l-9 16 22 33 22 -57c16,16 6,8 22,21 -15,58 -18,32 -31,48 8,34 44,134 63,161 41,-36 75,-83 83,-139 4,-37 16,-60 13,-98 -2,-20 11,-72 22,-90 22,-2 20,5 35,-10 51,-52 36,-66 63,-107l-21 -15c-2,-56 -2,-25 -28,-52 2,-26 4,-12 19,-30 -6,-31 3,-59 -20,-78 -21,27 -30,53 -49,78 -26,34 -53,98 -104,161 -19,25 -60,43 -63,61l24 -9z"/>
    <path class="fil0" d="M3176 1695l-31 19c-21,-9 -10,-19 -47,-14 -7,24 -4,32 -16,57l-65 156c-8,24 -22,191 -23,235 0,20 1,20 13,25 12,-16 73,-208 93,-260 46,0 38,7 78,20 45,15 25,-7 69,23 12,-13 38,-98 43,-120 -23,-9 -99,-36 -112,-50l4 -27 31 2c41,-102 16,-112 10,-136 -3,-15 7,-20 -11,-34 -17,10 -20,28 -31,47 -21,38 -1,22 -5,57z"/>
    <path class="fil1" d="M2338 3594c-66,-35 -71,-46 -122,-83 -35,-26 -133,-151 -141,-194 7,9 29,12 61,72 24,43 27,42 61,76 20,21 6,17 34,36 20,14 18,19 31,36 21,26 61,39 76,57zm-287 -257l298 317 88 319c-25,8 -86,4 -136,21 -47,17 -87,16 -138,37 -67,28 -47,54 -73,-50 -36,-141 -54,-331 -94,-440 -16,-46 -22,-94 -33,-141 -16,-61 25,-68 88,-63zm56 742c4,1 233,-68 269,-75 176,-31 86,19 48,-171 -10,-49 -26,-94 -32,-143 -8,-60 23,-84 -20,-108 -65,-36 -148,-109 -194,-168 -76,-101 -56,-145 -164,-105 -125,46 -102,10 -47,206 24,84 113,538 140,564z"/>
    <path class="fil0" d="M3497 1893c39,1 34,34 57,60 27,-2 34,-7 40,25 4,21 13,48 12,66 -35,3 -17,-4 -43,-25 -19,-15 -26,-8 -26,-37 1,-47 -38,-31 -40,-89zm18 -24l19 -19c-37,19 -13,12 -34,31 -13,11 -23,12 -40,31 -49,54 -35,76 -14,128 12,31 -17,9 38,58 31,27 72,16 105,-3 65,-39 124,-74 99,-161 -9,-36 -30,-63 -66,-75 -55,-19 -84,21 -107,10z"/>
    <path class="fil1" d="M2049 2018c26,-5 70,2 78,-14 -5,42 -42,126 -54,175 -15,59 -26,128 -37,190 -37,6 -118,2 -161,1 -141,-1 -94,11 -146,22 8,-71 43,-253 70,-316l250 -58zm84 -22c-20,-4 -13,-15 -36,-11 -18,4 -7,11 -37,9l-167 36c-14,7 -72,17 -87,13 8,-15 49,-19 71,-35 35,-26 227,-54 261,-49l-5 37zm-425 416c15,10 51,-6 72,-11 71,-17 206,0 274,-8 8,-13 39,-203 48,-242 9,-35 70,-199 65,-216 -19,-2 -13,5 -25,16 -18,-27 -54,-11 -91,-9 -36,2 -57,13 -86,7 -1,-1 -169,62 -171,65l-54 199c-7,26 -15,71 -20,99 -5,29 -26,82 -12,100z"/>
    <path class="fil0" d="M1796 485c-10,6 -18,15 -25,18 -25,11 1,-9 -65,20l-167 49c-53,15 -261,23 -289,39 -5,19 -5,9 4,28 53,10 143,-33 186,-8 14,25 4,43 16,69 32,-10 61,-45 109,-29 2,-14 -11,-24 -17,-44l19 -11c-7,-31 21,-24 84,-42 41,-11 76,-23 122,-15 -16,11 -39,13 -58,16 -57,10 -48,6 -50,31 39,0 95,-38 133,-23 8,20 11,60 29,74 14,-73 -36,-82 -44,-100 24,-28 32,-6 48,10 42,-6 76,-4 100,-41 14,-22 52,-70 55,-90 -31,13 -26,15 -44,39l-28 -5 -10 22 -27 3 -11 24 -70 -34z"/>
    <path class="fil0" d="M1432 2443c21,-5 29,-21 55,-28 22,-6 49,-3 70,-10 12,-37 20,-157 42,-237l23 -80c-159,31 -126,-5 -152,116 -18,82 -27,155 -38,239z"/>
    <path class="fil0" d="M2121 1808c30,4 67,0 92,-14 10,-37 -3,-70 25,-162 6,-19 17,-59 20,-77l78 -221c15,-30 56,-111 52,-144 -46,-8 -47,16 -66,41 -24,33 -88,204 -94,236 -16,87 -95,283 -107,341z"/>
    <path class="fil0" d="M2067 1093c-8,15 -27,52 -36,65l-40 62c36,40 42,30 64,88 7,20 16,32 26,49 16,25 5,41 26,59l55 -129c10,-21 19,-41 34,-59 6,-9 12,-21 17,-28 10,-12 14,-8 26,-22 -27,-17 -59,-35 -84,-54 -37,-27 -41,-48 -88,-31z"/>
    <path class="fil1" d="M1432 2443c11,-84 20,-157 38,-239 26,-121 -7,-85 152,-116l-23 80c-22,80 -30,200 -42,237 -21,7 -48,4 -70,10 -26,7 -34,23 -55,28zm68 -370c7,-5 122,-26 128,-26 0,26 -42,31 -64,32 -24,1 -56,18 -64,-6zm-89 389c36,30 74,-30 127,-29 15,20 0,24 24,30 25,-17 33,-193 42,-233 11,-42 55,-182 56,-213 -35,-1 -96,19 -135,26 -44,7 -33,3 -47,43 -17,52 -75,341 -67,376z"/>
    <path class="fil0" d="M3186 2207l20 -14c17,8 26,8 40,-8 9,-10 6,-13 12,-23 0,0 70,-90 69,-104l-11 -21c9,-21 27,-51 30,-72 5,-29 13,-58 24,-85 -8,-16 -27,-28 -44,-32 -30,2 -51,104 -53,133 -1,17 -13,18 -23,38 -11,24 -66,172 -64,188z"/>
    <path class="fil0" d="M3956 2110c-5,16 -5,12 -23,11 -11,-11 -14,-13 -10,-29 21,15 22,6 33,18zm-4 -140c-31,-36 1,-31 33,-24l-6 25 -27 -1zm-31 -85c-11,43 -7,88 -14,129l-23 111c39,32 17,-22 67,52 18,-10 11,-12 26,-27l-16 -14c4,-20 15,-48 20,-67l32 -127c6,-17 23,-45 26,-60 -16,-11 -37,-20 -59,-21 -35,-2 -14,8 -59,24z"/>
    <path class="fil1" d="M1600 1026c24,-13 54,-3 88,-26 19,-12 48,-44 62,-46 -4,25 -5,47 -42,77 -7,5 -72,30 -82,32l-26 -37zm-2 44c-19,21 -36,13 -37,35 0,33 26,11 38,5 31,-19 129,-23 170,-124 9,-22 15,-34 14,-56 -2,-31 13,-34 -6,-50 -23,9 -14,19 -28,33 -8,9 -24,16 -36,30 -67,73 -183,34 -190,70 -5,29 49,10 75,57z"/>
    <path class="fil0" d="M4192 2250c18,23 113,56 148,64 2,1 224,99 250,99l-2 -41c-42,-26 -331,-137 -374,-141l-22 19z"/>
    <path class="fil0" d="M3383 1757c18,11 26,7 36,22 -31,3 -36,-11 -62,1 26,27 61,25 64,26 8,3 11,6 26,10 23,6 34,20 54,14l58 -17c-13,-12 -13,-7 -21,-13 -7,-5 -8,-10 -17,-18l-107 -102 -31 77z"/>
    <path class="fil0" d="M3187 2127c25,-39 41,-100 44,-146 -19,-4 -46,-22 -112,-34 3,25 9,80 18,99 6,14 39,73 50,81z"/>
    <path class="fil0" d="M3048 2149c25,3 41,8 65,14 33,7 30,5 44,28l22 -32c-79,-96 -51,-62 -77,-150 -4,-15 0,-4 -5,-13 -11,45 -47,111 -49,153z"/>
    <path class="fil0" d="M4365 2217c24,19 77,27 128,47 27,11 101,47 126,41l4 -15c-16,-23 -74,-34 -100,-40 -55,-13 -138,-53 -206,-72 -27,-8 -61,-40 -90,-44l-10 20c27,10 93,28 108,50 32,-5 30,3 58,14l-18 -1z"/>
    <path class="fil0" d="M4207 2174l-3 21c35,10 19,-1 49,19 42,27 83,30 125,45 9,3 14,8 24,11 61,20 159,83 203,80 7,-39 -28,-24 -88,-55 -14,-6 -37,-14 -53,-19 -23,-9 -35,-19 -52,-25l-104 -35c-21,-7 -88,-42 -101,-42z"/>
    <path class="fil1" d="M2023 540c-10,22 -18,34 -8,57 29,-10 13,-22 33,-24 9,19 3,31 2,53 -25,14 -26,-4 -38,90 49,23 41,34 61,-76 8,-48 22,-125 -50,-100z"/>
    <path class="fil0" d="M3349 2014c26,17 22,41 56,33 -2,-30 -15,-87 -4,-114 15,-39 44,-58 56,-81 -18,-13 -33,-16 -53,-10 -13,23 3,12 -9,37 -9,17 -12,25 -17,44 -9,29 -23,63 -29,91z"/>
    <path class="fil1" d="M798 2698c8,35 21,19 48,20 65,2 123,114 134,126 6,-32 4,-45 -13,-71 -29,-43 -46,-67 -100,-84 -16,-6 -57,-1 -69,9z"/>
    <path class="fil0" d="M1209 693l7 5c0,1 10,7 10,7 -4,34 -5,58 13,90 17,3 39,8 54,2l-45 -81 10 -18c26,1 13,3 30,8 11,3 7,0 17,3 20,6 -2,18 41,-4l-1 -28 -136 16z"/>
    <path class="fil1" d="M1842 1722c-15,-11 -14,-6 -6,-24 21,-3 6,-4 22,14l-16 10zm-22 -57c-25,19 -36,32 -18,60 14,23 30,44 60,28 55,-29 6,-122 -42,-88z"/>
    <path class="fil0" d="M3281 1796c20,15 14,6 36,-4 12,20 -2,21 27,34 13,6 34,17 43,14l4 -21c-22,-13 -38,-3 -57,-18l9 -54 23 -2c11,-22 7,-19 12,-41 3,-15 12,-25 18,-36 -51,10 -99,106 -115,128z"/>
    <path class="fil1" d="M1580 958c-6,-19 -38,-28 -59,-37 -4,-39 10,-98 -13,-126 -12,23 -29,139 -10,161 15,16 8,6 25,9 21,4 41,16 57,-7z"/>
    <path class="fil1" d="M3554 1953c-23,-26 -18,-59 -57,-60 2,58 41,42 40,89 0,29 7,22 26,37 26,21 8,28 43,25 1,-18 -8,-45 -12,-66 -6,-32 -13,-27 -40,-25z"/>
    <path class="fil0" d="M1072 3305c24,3 82,-42 132,-58 24,-8 25,-15 44,-21 26,-9 167,-69 173,-83 -11,3 -31,12 -43,16 -52,19 -64,13 -144,53 -27,14 2,-8 -43,22 -15,9 -27,15 -44,22 -20,8 -72,27 -75,49z"/>
    <path class="fil0" d="M1600 1026l26 37c10,-2 75,-27 82,-32 37,-30 38,-52 42,-77 -14,2 -43,34 -62,46 -34,23 -64,13 -88,26z"/>
    <path class="fil0" d="M1274 575l30 -1c9,-23 -9,-114 -12,-119 -7,-11 -6,0 -12,-14 -5,-10 0,-6 -5,-19l-21 -1c7,38 10,129 20,154z"/>
    <path class="fil0" d="M1447 3061c11,34 20,66 63,66 -32,-22 -52,-15 -39,-67 108,-15 48,-4 100,18 35,14 59,56 96,28 -6,-19 -22,-13 -45,-26 -86,-47 -43,-27 -115,-38 -27,-4 -43,-1 -60,19z"/>
    <path class="fil0" d="M2338 3594c-15,-18 -55,-31 -76,-57 -13,-17 -11,-22 -31,-36 -28,-19 -14,-15 -34,-36 -34,-34 -37,-33 -61,-76 -32,-60 -54,-63 -61,-72 8,43 106,168 141,194 51,37 56,48 122,83z"/>
    <path class="fil0" d="M1689 3097c15,-7 1,4 14,-11 30,3 49,-1 72,-18 25,-18 44,-14 47,-48 -41,-12 -129,38 -133,77z"/>
    <path class="fil0" d="M4883 2454c-73,-60 -31,-16 -95,-49 -23,-12 -83,-25 -114,-36l12 8c6,5 3,2 12,9 20,17 46,34 73,39 33,7 84,41 112,29z"/>
    <path class="fil0" d="M3245 1719l-18 64 37 12c10,-57 47,-55 44,-103l-63 27z"/>
    <path class="fil0" d="M2066 335c-35,4 -22,-52 -55,-100 0,36 17,106 41,130l27 -28c-14,-40 -36,-127 -62,-159 -11,25 55,127 49,157z"/>
    <path class="fil0" d="M1899 3075c22,19 15,1 69,4 47,3 193,25 220,18 -37,-29 -173,-28 -216,-24 -25,2 -57,-3 -73,2z"/>
    <path class="fil0" d="M1569 3402l23 -58c12,-30 9,-63 47,-117 13,-18 23,-37 31,-57 -70,58 -72,101 -92,165 -4,12 -15,55 -9,67z"/>
    <path class="fil1" d="M1787 193c3,-6 1,-4 3,-9l4 -13c18,9 11,13 25,7 -17,-17 -2,9 -31,-30 -18,-25 -105,-58 -139,-55 13,13 58,22 80,37 25,16 43,53 58,63z"/>
    <path class="fil1" d="M1609 127c7,35 101,80 101,80 11,9 19,23 30,33 -2,-29 -60,-84 -89,-100 -22,-11 -30,-25 -42,-13z"/>
    <path class="fil0" d="M1189 384c11,21 11,-4 68,9 18,4 116,2 145,-9 28,-11 47,2 74,-17 -16,-6 -16,3 -63,9 -99,12 -111,0 -144,3 -24,3 -60,-4 -80,5z"/>
    <path class="fil0" d="M4631 2382c-21,10 -20,15 -22,38l15 6c18,-19 36,-95 41,-124l-15 -10c-20,19 -9,20 -14,42 -10,34 -10,8 -5,48z"/>
    <path class="fil0" d="M1651 327c30,-3 43,-9 68,-20 43,-19 115,-43 148,-63 19,-12 19,0 22,-23 -54,24 -32,20 -89,37 -20,6 -10,7 -29,16 -19,9 -40,19 -58,27 -29,14 -37,3 -62,26z"/>
    <path class="fil0" d="M826 3825c11,16 32,20 50,35 8,-36 5,-50 -18,-90 -7,11 -30,45 -32,55z"/>
    <path class="fil0" d="M2211 3104c-1,2 62,20 106,49 33,22 15,-2 45,32 10,11 13,6 22,18 15,21 -1,10 10,29 22,-43 -23,-70 -59,-86 -17,-9 -113,-45 -124,-42z"/>
    <path class="fil0" d="M1718 3127c67,-1 58,91 51,112 -6,18 -17,18 -18,41 22,-12 24,-18 30,-43 14,-58 27,-66 -16,-94 -19,-13 -14,-15 -29,-27 -16,3 -13,-1 -18,11z"/>
    <path class="fil0" d="M518 2719l27 -35c1,31 -15,30 -15,67l33 -68 -13 -7c18,-18 40,-73 45,-100 -5,4 -4,1 -10,12 -5,7 -7,14 -11,20 -16,29 -51,83 -56,111z"/>
    <path class="fil0" d="M1500 2073c8,24 40,7 64,6 22,-1 64,-6 64,-32 -6,0 -121,21 -128,26z"/>
    <path class="fil0" d="M492 2710c26,-6 42,-55 53,-80 7,-16 36,-69 45,-84 -25,9 -91,132 -98,164z"/>
    <path class="fil0" d="M1250 577c9,-14 -8,-146 -21,-159 -8,14 -1,145 21,159z"/>
    <path class="fil0" d="M1777 712c12,-1 27,-11 36,-22l-41 -89 -21 2c6,24 42,29 26,109z"/>
    <path class="fil0" d="M1213 817c2,-5 1,1 2,-8 7,-40 -12,-101 -20,-109 0,0 -15,-2 -12,22 0,1 22,85 30,95z"/>
    <path class="fil0" d="M1570 633c5,17 7,10 12,26 2,9 5,24 7,34 7,27 2,54 30,52 -5,-15 -15,-31 -19,-48 -3,-10 -2,-22 -4,-32 -5,-27 -6,-1 -13,-29 12,-13 57,-18 78,-31 -18,2 -30,9 -48,12 -21,3 -27,-1 -43,16z"/>
    <path class="fil0" d="M1502 3087c13,17 65,38 82,27 -18,-18 -25,-4 -34,-35 -22,-3 -30,-6 -48,8z"/>
    <path class="fil0" d="M1222 576c-6,-35 -4,-110 -23,-134 -6,13 8,75 10,105 1,21 -2,27 13,29z"/>
    <path class="fil1" d="M3854 1920l11 -21c-21,-11 -10,-1 -30,-6 -8,-2 -19,-6 -27,-9 -14,29 27,41 46,36z"/>
    <path class="fil0" d="M1657 635l-1 22c20,3 28,-3 48,-11 2,-22 -1,-14 6,-33 -9,5 -9,7 -22,11 -16,6 -17,3 -31,11z"/>
    <path class="fil1" d="M4022 2159c-1,2 -16,0 -1,22 8,11 16,11 26,13 10,-13 15,-18 12,-32 -22,-10 -9,-1 -19,0 -16,2 -1,-4 -18,-3z"/>
    <path class="fil0" d="M3478 1695c24,22 44,55 72,67 -12,-15 -15,-26 -29,-40 -13,-13 -18,-26 -33,-37l-10 10z"/>
    <path class="fil0" d="M1698 1271l-17 -8c1,5 10,18 16,24 8,-14 16,-34 26,-47 24,-27 29,2 35,-39 -26,4 -36,30 -60,70z"/>
    <path class="fil1" d="M3952 1970l27 1 6 -25c-32,-7 -64,-12 -33,24z"/>
    <path class="fil0" d="M465 2675c34,-23 33,-78 63,-105 -24,16 -62,74 -63,105z"/>
    <path class="fil1" d="M4046 1989c10,15 3,6 21,16 18,-4 25,-5 32,-20 -19,-10 -38,-16 -53,4z"/>
    <path class="fil0" d="M1712 1304c16,-18 40,-56 48,-79 -12,9 -46,44 -50,64 -6,28 -3,2 2,15z"/>
    <path class="fil1" d="M4112 2220c12,7 25,9 40,5 -4,-30 -13,-6 -30,-36 -11,12 -17,13 -10,31z"/>
    <path class="fil0" d="M1308 767c-3,29 25,46 53,23 -17,-11 -15,1 -30,-11 -15,-12 0,-19 -23,-12z"/>
    <path class="fil0" d="M1482 729c54,-19 72,-30 96,-17l2 -12c-29,-4 -85,-1 -98,29z"/>
    <path class="fil1" d="M1592 42l109 -1c-19,-15 -30,-10 -51,-9 -19,2 -42,-1 -58,10z"/>
    <path class="fil0" d="M1366 783l28 1 9 -57c-16,1 -8,-11 -13,7 -1,5 4,5 -1,18 -4,14 -16,17 -23,31z"/>
    <path class="fil1" d="M4845 2372c-6,-27 -9,-11 -35,-13 -18,-1 -30,-8 -47,-9 14,10 25,9 39,15 21,10 19,19 43,7z"/>
    <path class="fil0" d="M1666 725l26 -11 -36 -27c-12,17 -6,24 10,38z"/>
    <path class="fil0" d="M3665 1878c-1,1 14,8 25,30 15,30 -3,9 22,31 5,-33 -22,-44 -40,-66 -1,1 -4,0 -4,2 0,1 -2,2 -3,3z"/>
    <path class="fil0" d="M3596 1762l-11 -31c-9,1 0,-10 -11,7 -6,-19 -12,-26 -32,-32 7,17 42,53 54,56z"/>
    <path class="fil0" d="M1193 571c1,-21 -3,-61 -12,-78 -10,24 -3,63 12,78z"/>
    <path class="fil1" d="M3812 2057l9 19c28,7 14,-13 30,4l-6 -31 -33 8z"/>
    <path class="fil1" d="M4168 2061c23,7 28,8 37,-11l-32 -12 -5 23z"/>
    <path class="fil1" d="M3933 2121c18,1 18,5 23,-11 -11,-12 -12,-3 -33,-18 -4,16 -1,18 10,29z"/>
    <path class="fil0" d="M1011 2961c7,22 6,32 19,37l-3 -53c-6,8 -8,10 -16,16z"/>
    <path class="fil0" d="M1190 650l35 -3 -3 -22c-16,1 -26,10 -32,25z"/>
    <path class="fil0" d="M1139 687c8,-1 6,0 13,-3 0,0 7,-5 7,-5 9,14 3,9 16,14 6,-43 -18,-32 -36,-6z"/>
    <path class="fil0" d="M1766 3104l25 20c-6,-18 5,-22 12,-34 -18,1 -22,2 -37,14z"/>
    <path class="fil0" d="M1840 590c13,9 42,5 58,-4 -15,-7 -43,-4 -58,4z"/>
    <path class="fil0" d="M1562 349c12,3 30,-7 44,-11 23,-7 20,8 41,-11 -26,-2 -61,13 -85,22z"/>
    <path class="fil0" d="M1836 1698c-8,18 -9,13 6,24l16 -10c-16,-18 -1,-17 -22,-14z"/>
    <path class="fil0" d="M1895 217c13,5 31,-3 41,-15 -13,-5 -27,3 -41,15z"/>
    <path class="fil0" d="M1438 719c8,-17 6,-25 -15,-29 1,19 0,17 15,29z"/>
    <path class="fil0" d="M1193 682c3,-1 57,-19 58,-19 -22,8 -12,1 -34,2 -17,0 -21,2 -24,17z"/>
    <path class="fil0" d="M1980 498c12,-12 25,-32 28,-47 -12,10 -25,28 -28,47z"/>
    <path class="fil0" d="M487 2690l17 -42c-6,3 -16,4 -20,28 0,2 -5,0 3,14z"/>
    <path class="fil0" d="M1931 590c7,-12 17,-29 19,-42 -14,13 -22,21 -19,42z"/>
    <path class="fil0" d="M1732 724c13,5 3,6 18,-2l-9 -16c-9,6 -11,5 -9,18z"/>
    <path class="fil0" d="M1613 669c10,-11 10,-13 6,-26 -15,9 -20,5 -6,26z"/>
    <path class="fil0" d="M1814 3099l51 -9c-22,-3 -13,3 -29,-8l-22 17z"/>
    <path class="fil0" d="M1646 746l16 -8c-11,-7 -17,-9 -29,-16 3,6 8,17 13,24z"/>
    <path class="fil0" d="M1500 366l40 -10c-16,-12 -27,-2 -40,10z"/>
    <path class="fil0" d="M1308 658c12,7 14,9 27,5 -5,-13 6,-10 -10,-11 -1,0 -17,6 -17,6z"/>
    <path class="fil0" d="M1413 687c-1,-20 0,-17 -18,-18 4,14 -2,8 18,18z"/>
    <path class="fil0" d="M1429 759c11,-16 5,-24 -5,-40l5 40z"/>
    <path class="fil0" d="M1738 669c13,9 8,12 18,-3 -19,-17 -14,1 -18,3z"/>
    <path class="fil0" d="M3582 1804c2,11 -12,14 17,8 -11,-14 -5,-13 -17,-8z"/>
    <path class="fil0" d="M465 2610l12 -20c-15,4 -23,5 -12,20z"/>
    <path class="fil1" d="M1728 43l27 12c-7,-14 -10,-18 -27,-12z"/>
    <path class="fil1" d="M823 2809c11,8 -3,15 17,0 -18,-7 -5,-5 -17,0z"/>
    <path class="fil1" d="M1530 304c0,4 12,7 9,-3 -3,-8 -8,-16 -9,3z"/>
    <path class="fil0" d="M2188 3102c7,8 25,-9 9,-3 0,0 -1,0 -2,0 0,0 -17,-8 -7,3z"/>
    <path class="fil0" d="M1715 731c-1,-12 2,-11 -9,-15 0,11 -4,7 9,15z"/>
    <path class="fil1" d="M774 3830c-10,-10 0,-8 -14,-3 6,6 -2,13 14,3z"/>
    <path class="fil0" d="M1345 825c7,4 -2,8 13,-1 -15,-9 -4,-4 -13,1z"/>
    <path class="fil0" d="M849 3708c-1,7 9,8 8,0 -3,-10 -8,-4 -8,0z"/>
    <path class="fil0" d="M1739 1298c12,-5 5,0 9,-11 -3,1 -8,-5 -9,11z"/>
    <path class="fil0" d="M1853 475c0,1 9,12 5,-2 -1,-4 -5,-17 -5,2z"/>
    <path class="fil0" d="M1394 656c5,5 14,-10 6,-5 0,0 -1,1 -1,1 0,0 -15,-8 -5,4z"/>
    <path class="fil0" d="M506 2637c11,-5 9,-4 11,-17 -5,9 -5,5 -11,17z"/>
    <path class="fil0" d="M1146 703c0,6 7,7 6,0 -2,-9 -6,-4 -6,0z"/>
    <path class="fil0" d="M955 3893c-1,13 7,2 4,1 0,0 -4,-12 -4,-1z"/>
    <path class="fil0" d="M1435 3143l15 -5c-25,0 -8,-2 -15,5z"/>
    <path class="fil0" d="M1119 3639c8,-8 1,13 9,-12l-9 12z"/>
    <path class="fil0" d="M1877 3080c1,2 13,8 7,2 0,0 -11,-10 -7,-2z"/>
    <path class="fil0" d="M1177 475c5,8 4,-6 2,-3 0,1 -8,-8 -2,3z"/>
    <path class="fil0" d="M1672 1231c0,1 2,-3 2,-2 0,0 1,-1 1,-1 -1,0 -12,-8 -3,3z"/>
    <path class="fil0" d="M2036 433c-1,7 5,-2 2,-1 0,0 -1,-13 -2,1z"/>
    <path class="fil0" d="M1119 3650c1,0 2,-3 2,-2 0,0 1,-1 1,-1 -1,0 -11,-9 -3,3z"/>
    <path class="fil0" d="M3562 1778c5,7 2,-3 1,-2 0,1 -6,-4 -1,2z"/>
    <path class="fil1" d="M1979 1948c0,0 1,-2 1,-1 0,0 1,-1 1,-1 0,0 -11,-4 -2,2z"/>
    <path class="fil0" d="M4352 2179c1,1 2,-1 2,-1 0,1 0,0 0,0 0,0 -10,-5 -2,1z"/>
    <path class="fil1" d="M792 3790c0,-1 -1,-4 -2,-3l2 3z"/>
    <path class="fil0" d="M3651 1866c0,1 1,-2 1,-1l0 0c0,0 -2,1 -1,1z"/>
    <path class="fil0" d="M1939 197l2 -2c0,0 -2,1 -2,2z"/>
    <path class="fil0" d="M1471 736c1,2 -3,-3 0,0z"/>
    <path class="fil0" d="M1741 3290c2,2 -2,-3 0,0z"/>
    <path class="fil0" d="M1112 3675c-1,6 1,-12 0,0z"/>
    <path class="fil1" d="M567 2820c0,0 0,0 0,0z"/>
    <path class="fil1" d="M561 2845c1,1 0,0 0,0z"/>
    <path class="fil1" d="M1693 2425c2,2 -1,-1 0,0z"/>
    <polygon class="fil0" points="526,2603 533,2592 "/>
    <polygon class="fil1" points="1545,52 1561,48 "/>
    <polygon class="fil0" points="1066,3774 1079,3762 "/>
    <path class="fil2" d="M1426 1930l65 -383c13,-79 25,-193 83,-256 7,-8 11,-14 12,-19l-47 20 1 1c-4,26 -8,17 -26,29 -33,22 -38,76 -46,112l-70 255c-6,29 -14,59 -21,88 -5,25 -6,67 -3,92 6,40 -21,49 -7,76 14,3 45,-3 59,-15z"/>
    <path class="fil2" d="M2903 2039c1,16 -1,37 7,46 12,13 39,28 56,29 14,-46 17,-98 21,-149 -18,-33 -25,-23 -1,-58 1,-2 26,-55 28,-60 16,-43 39,-87 44,-132 18,-25 8,-1 21,-34 13,-34 36,-25 62,-17 9,-12 16,-39 30,-63 14,-22 1,-36 41,-49l29 25c4,39 16,16 15,54 -1,23 3,-2 4,22 0,18 -5,-1 -3,23 18,-2 32,-8 48,-12 35,-10 20,-2 40,-2 14,-1 32,-12 42,-20 20,-17 11,-25 36,-24 9,19 2,21 4,36 20,6 75,14 96,10 -5,-29 -27,-29 -43,-57 -15,-26 -20,-35 -42,-58 -17,-17 -34,-34 -51,-51 -24,-25 -20,-37 -36,-60 -25,-19 -132,22 -160,39 -13,8 -23,20 -39,30 -49,30 -121,96 -152,143 -52,76 -138,229 -95,326 9,22 -3,37 -2,63z"/>
    <path class="fil2" d="M3366 2057c-46,45 -46,78 -86,123 -2,3 -9,8 -6,8 19,-1 54,18 84,15 -15,-13 -18,-8 -38,-13 -27,-34 3,-31 28,-33 31,40 73,24 95,33 27,25 37,30 72,42 23,7 16,12 28,27 14,17 16,6 28,20 11,-26 -20,-120 -74,-134 -46,-12 -52,-75 -131,-88z"/>
    <path class="fil2" d="M1498 956c-19,-22 -2,-138 10,-161 23,28 9,87 13,126 21,9 53,18 59,37 -16,23 -36,11 -57,7 -17,-3 -10,7 -25,-9zm25 57c7,-36 123,3 190,-70 12,-14 28,-21 36,-30 14,-14 5,-24 28,-33 19,16 4,19 6,50 1,22 -5,34 -14,56 -41,101 -139,105 -170,124 -12,6 -38,28 -38,-5 1,-22 18,-14 37,-35 -26,-47 -80,-28 -75,-57zm180 169c60,-13 78,-16 118,-63 15,-18 29,-30 41,-51 22,-40 75,-141 98,-167 42,-45 35,-102 50,-121 47,-9 47,10 61,-49 7,-26 7,-59 10,-87 5,-35 8,-65 16,-100 9,-36 6,-50 -22,-73 -40,4 -40,15 -59,46l-7 -15c-14,22 -28,46 -46,64 -17,17 -19,43 -39,60 -22,-12 -5,-14 -33,-13 -15,0 -30,2 -44,2 4,81 14,106 -76,128 -46,11 -138,47 -181,37l-3 -42c-56,-13 -60,4 -101,27 -9,53 -15,21 -51,46 -12,8 -53,25 -67,28 -16,4 -39,4 -61,5 13,22 26,65 32,89 10,38 15,29 40,52 16,14 30,32 48,43 21,13 33,15 53,34 28,25 70,59 103,76 53,28 54,59 120,44zm312 -585c-10,-23 -2,-35 8,-57 72,-25 58,52 50,100 -20,110 -12,99 -61,76 12,-94 13,-76 38,-90 1,-22 7,-34 -2,-53 -20,2 -4,14 -33,24z"/>
    <path class="fil3" d="M2102 2151c-9,39 -40,229 -48,242 -68,8 -203,-9 -274,8 -21,5 -57,21 -72,11 -14,-18 7,-71 12,-100 5,-28 13,-73 20,-99l54 -199c2,-3 170,-66 171,-65 29,6 50,-5 86,-7 37,-2 73,-18 91,9 12,-11 6,-18 25,-16 5,17 -56,181 -65,216zm-60 -302c-123,21 -235,53 -363,70 -58,7 -128,18 -185,30 -46,10 -111,27 -157,32 -72,8 -42,15 -100,100 -15,23 -11,31 -20,50 -13,27 -37,38 -52,60 -30,46 -10,241 -70,379 -18,41 -16,40 -11,85 9,76 -88,-32 -46,209 11,64 14,130 18,195 2,36 12,61 16,94 4,31 2,72 4,105 31,-6 55,-23 82,-38 22,-12 27,-4 45,-15 20,-11 19,-14 43,-22 50,-18 67,-34 89,-38 25,-4 71,-21 91,-36l-17 -34c11,-31 33,-49 59,-65 34,5 80,2 108,15 27,13 58,41 85,51l79 -71c13,-10 80,-48 105,-12 25,34 -3,43 -6,71 53,-11 78,-18 135,-17l110 5c19,2 14,-1 32,-1 48,1 152,50 182,53 24,2 4,-8 24,5 14,10 13,10 30,10 19,-30 7,-114 12,-155 6,-49 13,-96 20,-144 6,-41 16,-94 27,-134 10,-39 5,-106 20,-140 13,-31 9,-32 12,-63 2,-18 14,-39 18,-61 16,-76 69,-307 112,-374l-95 -110c-35,-53 -69,-105 -96,-113 -127,-36 -217,2 -340,24zm-382 168c-1,31 -45,171 -56,213 -9,40 -17,216 -42,233 -24,-6 -9,-10 -24,-30 -53,-1 -91,59 -127,29 -8,-35 50,-324 67,-376 14,-40 3,-36 47,-43 39,-7 100,-27 135,-26zm33 408c-1,-1 2,1 1,0 0,0 0,0 -1,0zm287 -478c-1,1 -1,1 -1,1 -9,-6 2,-2 2,-2 0,0 -1,1 -1,1l0 0zm-287 478c2,2 -1,-1 0,0z"/>
    <path class="fil3" d="M2121 1808c30,4 67,0 92,-14 10,-37 -3,-70 25,-162 6,-19 17,-59 20,-77l78 -221c15,-30 56,-111 52,-144 -46,-8 -47,16 -66,41 -24,33 -88,204 -94,236 -16,87 -95,283 -107,341z"/>
    <path class="fil3" d="M1426 1930l65 -383c13,-79 25,-193 83,-256 7,-8 11,-14 12,-19l-47 20 1 1c-4,26 -8,17 -26,29 -33,22 -38,76 -46,112l-70 255c-6,29 -14,59 -21,88 -5,25 -6,67 -3,92 6,40 -21,49 -7,76 14,3 45,-3 59,-15z"/>
    <path class="fil3" d="M1806 3272c-5,12 -63,40 -82,66 -8,10 -14,18 -26,20 -8,-6 -11,-12 -13,-15 13,-39 66,-107 54,-161 -4,-18 -22,-26 -34,-37 -10,13 -21,51 -33,70 -53,86 -28,50 -60,146 -9,29 -16,52 -25,83 -2,0 -40,2 -42,2 -16,-1 -15,-14 -18,-29 28,-42 24,-164 93,-226 43,-39 4,-42 55,-40l5 -13c-1,-1 -135,14 -149,16 -136,19 -268,88 -395,147 -102,47 -66,38 -105,171 -16,54 -56,258 -61,310 -3,30 -2,53 -7,84 34,-41 74,-90 101,-135 16,-25 26,-59 31,-88 3,-13 7,-39 9,-52 4,-28 -18,-12 -3,-46 0,0 122,-68 151,-67 19,31 -3,42 -6,73 -11,98 -30,191 -32,284 -1,66 -19,210 -18,287 1,74 22,70 -5,108 -14,20 -14,17 -51,29 -46,14 -113,73 -129,83 -32,18 -33,46 -56,46l-19 -50c-19,-98 -7,-82 0,-171 3,-41 23,-238 14,-262 -10,72 -29,131 -32,206 -2,41 -7,200 -3,260 251,175 548,290 870,325 -11,-33 -22,-65 -35,-97 -9,-23 -65,-203 -63,-213l18 -9 109 315c1,2 1,4 2,7 40,3 79,6 120,7 309,8 604,-59 865,-185 -31,-75 -38,-90 -86,-179 -24,-45 -40,-87 -64,-132l-118 -278c-16,-41 -41,-102 -53,-142 -15,-52 -38,-97 -50,-146 -12,-51 -30,-101 -43,-152 -13,-58 -15,-116 -25,-174 -9,-56 -4,-106 -57,-138 -45,-28 -91,-48 -144,-56 -96,-16 -265,-21 -360,3 5,16 31,42 10,105 -6,21 -3,19 -5,40zm301 807c-27,-26 -116,-480 -140,-564 -55,-196 -78,-160 47,-206 108,-40 88,4 164,105 46,59 129,132 194,168 43,24 12,48 20,108 6,49 22,94 32,143 38,190 128,140 -48,171 -36,7 -265,76 -269,75z"/>
    <path class="fil4" d="M1557 2405c12,-37 20,-157 42,-237l23 -80c-159,31 -126,-5 -152,116 -18,82 -27,155 -38,239 21,-5 29,-21 55,-28 22,-6 49,-3 70,-10z"/>
    <path class="fil4" d="M1799 2076c-27,63 -62,245 -70,316 52,-11 5,-23 146,-22 43,1 124,5 161,-1 11,-62 22,-131 37,-190 12,-49 49,-133 54,-175 -8,16 -52,9 -78,14l-250 58z"/>
    <path class="fil4" d="M2178 3472l-127 -135c-63,-5 -104,2 -88,63 11,47 17,95 33,141 40,109 58,299 94,440 26,104 6,78 73,50 51,-21 91,-20 138,-37 50,-17 111,-13 136,-21l-88 -319 -147 -156c-7,-7 -15,-16 -24,-26z"/>
    <path class="fil4" d="M1186 4209c-3,-99 -28,-85 -2,-252 12,-75 12,-202 23,-284l25 -159c-15,-1 -32,9 -45,18 -51,38 -20,65 -37,117l-102 206c-10,16 -14,32 -27,48l-24 -20c14,-15 62,-65 54,-88l-72 97c14,39 -3,18 -7,103 -2,33 -3,96 -8,126 -7,40 -11,82 -10,123 1,37 5,76 6,112 15,-8 11,-13 30,-25 13,-9 24,-17 34,-27 27,-28 45,-22 60,-55 22,-5 34,-9 53,-19 13,-7 38,-15 49,-21z"/>
    <path class="fil4" d="M1248 3226c26,-9 167,-69 173,-83 -11,3 -31,12 -43,16 -52,19 -64,13 -144,53 -27,14 2,-8 -43,22 -15,9 -27,15 -44,22 -20,8 -72,27 -75,49 24,3 82,-42 132,-58 24,-8 25,-15 44,-21z"/>
    <path class="fil4" d="M1447 3061c11,34 20,66 63,66 -32,-22 -52,-15 -39,-67 108,-15 48,-4 100,18 35,14 59,56 96,28 -6,-19 -22,-13 -45,-26 -86,-47 -43,-27 -115,-38 -27,-4 -43,-1 -60,19z"/>
    <path class="fil4" d="M1822 3020c-41,-12 -129,38 -133,77 15,-7 1,4 14,-11 30,3 49,-1 72,-18 25,-18 44,-14 47,-48z"/>
    <path class="fil4" d="M1781 3237c14,-58 27,-66 -16,-94 -19,-13 -14,-15 -29,-27 -16,3 -13,-1 -18,11 67,-1 58,91 51,112 -6,18 -17,18 -18,41 22,-12 24,-18 30,-43z"/>
    <path class="fil4" d="M1639 3227c13,-18 23,-37 31,-57 -70,58 -72,101 -92,165 -4,12 -15,55 -9,67l23 -58c12,-30 9,-63 47,-117z"/>
    <path class="fil4" d="M1968 3079c46,3 182,23 217,19 -1,-2 1,-2 2,-2 -38,-28 -172,-27 -215,-23 -25,2 -57,-3 -73,2 22,19 15,1 69,4z"/>
    <path class="fil4" d="M2211 3104c-1,2 62,20 106,49 33,22 15,-2 45,32 10,11 13,6 22,18 15,21 -1,10 10,29 22,-43 -23,-70 -59,-86 -17,-9 -113,-45 -124,-42z"/>
    <path class="fil4" d="M2188 3102c7,8 25,-9 9,-3l-2 0c0,0 -4,-2 -8,-3 -1,0 -3,0 -2,2 0,1 1,2 3,4z"/>
    <path class="fil5" d="M1164 2162c77,-107 49,-97 42,-120 -5,-13 -1,-16 -7,-28 -8,-17 -20,-25 -27,-48 -14,-53 -61,-254 -64,-306 -1,-28 10,-34 4,-67 -55,1 -160,170 -181,213 -39,79 -117,194 -148,261 -16,33 -27,61 -49,90 -16,22 -40,64 -46,91l110 7c87,-3 123,20 167,20 33,-1 27,5 55,13 23,6 82,31 99,29l6 -52 -25 -18c1,-2 24,-45 25,-48 8,-14 23,-14 39,-37z"/>
    <path class="fil5" d="M1211 1989c12,15 9,29 24,51 20,-16 39,-64 59,-87 20,4 7,2 24,11l20 -9c17,-67 8,-218 36,-276 19,-40 65,-209 71,-254 -24,1 -25,14 -77,40 -49,26 -119,51 -157,74 -27,16 -39,14 -62,24l-20 11c2,47 0,88 7,135 6,40 53,253 75,280z"/>
    <path class="fil5" d="M1470 1776l-18 157c41,3 86,-8 125,-18 38,-11 87,-13 129,-19 22,-72 22,-220 53,-269l40 -70c-24,-64 -36,-112 -66,-176 -14,-29 -39,-46 -56,-66 -14,-18 -39,-63 -54,-72 -1,37 -21,137 -10,165 7,-11 30,-105 66,-55 -22,38 -20,-29 -39,88 -3,19 -8,36 -8,56 1,32 18,24 8,46 -41,17 -44,-59 -47,-86l-13 -129c-10,5 -13,6 -22,25 -35,76 -32,128 -43,187 -12,63 -30,196 -45,236z"/>
    <path class="fil5" d="M1820 1665c48,-34 97,59 42,88 -30,16 -46,-5 -60,-28 -18,-28 -7,-41 18,-60zm-58 38c-6,36 -25,152 -18,183 30,6 341,-65 341,-65 31,-20 129,-368 153,-443 42,-129 91,-162 4,-163 -60,70 -43,52 -82,131 -12,25 -25,46 -37,71 -17,34 -1,71 -40,67 -9,-22 -10,-53 -12,-76l-59 -129c-11,-14 -42,-35 -56,-33 -6,14 -14,71 -18,91 -21,126 34,60 -98,225 -35,42 -68,85 -78,141z"/>
    <path class="fil5" d="M2259 1638c-10,28 -33,128 -20,153 24,0 97,-11 127,-6 50,7 54,42 85,71 29,27 68,87 112,122 20,15 41,55 48,74 -19,36 -20,7 -52,107 -13,39 -33,80 -43,121l-24 98c0,11 5,18 1,35l-39 126c32,-23 58,-104 81,-139 21,-34 38,-32 54,-57l128 -210c24,-38 63,-108 75,-146 -21,-14 -35,-16 -57,-24 -46,-16 -108,-70 -138,-106 -52,-62 -74,-159 -86,-236 -13,-83 12,-164 69,-227 25,-28 44,-63 70,-93 16,-18 88,-54 89,-69 -29,-12 -52,1 -83,-5 -39,-9 -113,3 -176,0 -21,-1 -14,-2 -33,1 -26,3 -13,-5 -35,-7 -14,16 -50,107 -59,132 -18,45 -45,83 -59,135 -7,27 -15,49 -22,77 -7,31 -4,48 -13,73z"/>
    <path class="fil5" d="M2533 1582c1,68 11,139 42,201 17,33 86,113 115,133 32,23 139,54 185,74 -27,-162 50,-238 96,-340 15,-35 79,-87 108,-116 39,-38 86,-63 128,-97 -7,-14 -109,-99 -130,-114 -42,-31 -124,-58 -173,-78 -54,-22 -40,-18 -89,-4 -18,5 -32,2 -49,11 -17,9 -91,59 -108,79 -19,23 -33,57 -50,77 -24,30 -37,26 -53,69 -18,48 -23,50 -22,105z"/>
    <path class="fil5" d="M1114 2351c-21,-14 -52,-26 -78,-34 -22,-6 -24,2 -46,-11 -20,-11 -17,-11 -41,-15 -65,-10 -148,-21 -213,-19l-16 13c-143,-13 -125,11 -201,155 -7,15 -21,29 -31,46 -8,16 -50,88 -52,97 21,-28 103,-55 136,-65 96,-29 333,10 421,57 27,14 48,37 64,44 14,-44 63,-229 57,-268z"/>
    <path class="fil5" d="M3241 1577c4,39 16,16 15,54 -1,23 3,-2 4,22 0,18 -5,-1 -3,23 18,-2 32,-8 48,-12 35,-10 20,-2 40,-2 14,-1 32,-12 42,-20 20,-17 11,-25 36,-24 9,19 2,21 4,36 20,6 75,14 96,10 -5,-29 -27,-29 -43,-57 -15,-26 -20,-35 -42,-58 -17,-17 -34,-34 -51,-51 -24,-25 -20,-37 -36,-60 -25,-19 -132,22 -160,39 -13,8 -23,20 -39,30 -49,30 -121,96 -152,143 -52,76 -138,229 -95,326 9,22 -3,37 -2,63 1,16 -1,37 7,46 12,13 39,28 56,29 14,-46 17,-98 21,-149 -18,-33 -25,-23 -1,-58 1,-2 26,-55 28,-60 16,-43 39,-87 44,-132 18,-25 8,-1 21,-34 13,-34 36,-25 62,-17 9,-12 16,-39 30,-63 14,-22 1,-36 41,-49l29 25z"/>
    <path class="fil6" d="M1871 443c24,-8 95,-61 121,-67 24,-5 10,7 28,-1 20,-16 -26,-93 -29,-178 -31,5 -105,82 -212,116 -25,8 -36,13 -59,23 -27,11 -39,9 -65,19 -39,14 -98,13 -128,38 -3,27 3,44 7,69l11 50c-1,27 3,4 -7,15 -5,-25 -13,-43 -17,-67 -3,-18 -14,-45 -23,-61 -32,1 -65,10 -95,18 -27,8 -72,-2 -98,5 -4,8 7,26 10,71 2,20 4,59 14,75l28 4c1,-43 -19,-92 -17,-137 39,7 4,71 42,128 25,1 21,-1 43,-8 -2,-30 -44,-104 -22,-127 23,4 16,36 19,59 2,23 7,43 18,64l36 -4c6,-42 -26,-106 -15,-129 23,10 19,32 23,57 5,27 7,43 16,69 33,4 137,-19 171,-32 22,-8 55,-16 74,-26 40,-20 33,-21 80,-25 20,-25 20,-10 46,-18z"/>
    <path class="fil6" d="M1779 241c7,-3 16,-12 25,-16l75 -36c1,-1 2,-2 3,-3 1,0 2,-2 3,-3 -20,-13 -23,-30 -46,-49 -19,-16 -46,-26 -62,-39l13 -22c46,19 84,54 112,91 19,24 52,-2 38,-26 -20,-34 -29,-30 -60,-45 -7,-16 9,-7 -12,-19 -17,-10 -13,-13 -35,-22 -33,-13 -61,-25 -97,-29 -52,-5 -192,2 -238,26l3 22c-30,24 -102,40 -170,114 -10,11 -26,26 -34,36 -13,15 -14,23 -30,42 -16,17 -13,35 -25,47 -14,15 -32,6 -37,31l39 9c10,-37 24,-97 52,-86 -1,25 -30,49 -28,90 52,11 14,-98 75,-92 -1,24 -29,49 -31,89l32 4c1,-45 3,-59 28,-96 8,-14 2,-5 9,-11 -5,41 -20,55 -17,104l34 -2c10,-37 10,-92 34,-136 12,-22 7,-12 17,-16 -10,52 -30,84 -29,146l33 -2c-2,-68 13,-78 6,-116 24,7 14,86 11,110 18,-1 90,-16 102,-23 -3,-15 -14,-50 -21,-64 -16,-36 -35,-16 -29,-51 44,-6 51,85 72,113 18,-1 42,-14 58,-22 -13,-66 -106,-79 -74,-115 29,6 71,86 85,109 14,-3 18,-4 32,-7 25,-4 6,3 27,-12 33,-24 31,-11 57,-23zm-128 -101c29,16 87,71 89,100 -11,-10 -19,-24 -30,-33 0,0 -94,-45 -101,-80 12,-12 20,2 42,13zm136 53c-15,-10 -33,-47 -58,-63 -22,-15 -67,-24 -80,-37 34,-3 121,30 139,55 29,39 14,13 31,30 -14,6 -7,2 -25,-7l-4 13c-2,5 0,3 -3,9zm-248 108c3,10 -9,7 -9,3 1,-19 6,-11 9,-3zm216 -246l-27 -12c17,-6 20,-2 27,12zm-54 -14l-109 1c16,-11 39,-8 58,-10 21,-1 32,-6 51,9z"/>
    <path class="fil7" d="M1413 376c-99,12 -111,0 -144,3 -24,3 -60,-4 -80,5 11,21 11,-4 68,9 18,4 116,2 145,-9 28,-11 47,2 74,-17 -16,-6 -16,3 -63,9z"/>
    <path class="fil7" d="M1304 574c9,-23 -9,-114 -12,-119 -7,-11 -6,0 -12,-14 -5,-10 0,-6 -5,-19l-21 -1c7,38 10,129 20,154l30 -1z"/>
    <path class="fil7" d="M1250 577c9,-14 -8,-146 -21,-159 -8,14 -1,145 21,159z"/>
    <path class="fil7" d="M1222 576c-6,-35 -4,-110 -23,-134 -6,13 8,75 10,105 1,21 -2,27 13,29z"/>
    <path class="fil7" d="M1193 571c1,-21 -3,-61 -12,-78 -10,24 -3,63 12,78z"/>
    <path class="fil7" d="M1651 327c30,-3 43,-9 68,-20 43,-19 115,-43 148,-63 19,-12 19,0 22,-23 -54,24 -32,20 -89,37 -20,6 -10,7 -29,16 -19,9 -40,19 -58,27 -29,14 -37,3 -62,26z"/>
    <path class="fil7" d="M1895 217c13,5 31,-3 41,-15 -13,-5 -27,3 -41,15z"/>
    <path class="fil7" d="M2011 235c0,36 17,106 41,130l27 -28c-14,-40 -36,-127 -62,-159 -11,25 55,127 49,157 -35,4 -22,-52 -55,-100z"/>
    <path class="fil7" d="M1606 338c23,-7 20,8 41,-11 -26,-2 -61,13 -85,22 12,3 30,-7 44,-11z"/>
    <path class="fil7" d="M1540 356c-16,-12 -27,-2 -40,10l40 -10z"/>
    <path class="fil8" d="M1847 615c4,81 14,106 -76,128 -46,11 -138,47 -181,37l-3 -42c-56,-13 -60,4 -101,27 -9,53 -15,21 -51,46 -12,8 -53,25 -67,28 -16,4 -39,4 -61,5 13,22 26,65 32,89 10,38 15,29 40,52 16,14 30,32 48,43 21,13 33,15 53,34 28,25 70,59 103,76 53,28 54,59 120,44 60,-13 78,-16 118,-63 15,-18 29,-30 41,-51 22,-40 75,-141 98,-167 42,-45 35,-102 50,-121 47,-9 47,10 61,-49 7,-26 7,-59 10,-87 5,-35 8,-65 16,-100 9,-36 6,-50 -22,-73 -40,4 -40,15 -59,46l-7 -15c-14,22 -28,46 -46,64 -17,17 -19,43 -39,60 -22,-12 -5,-14 -33,-13 -15,0 -30,2 -44,2zm-339 180c23,28 9,87 13,126 21,9 53,18 59,37 -16,23 -36,11 -57,7 -17,-3 -10,7 -25,-9 -19,-22 -2,-138 10,-161zm269 85c19,16 4,19 6,50 1,22 -5,34 -14,56 -41,101 -139,105 -170,124 -12,6 -38,28 -38,-5 1,-22 18,-14 37,-35 -26,-47 -80,-28 -75,-57 7,-36 123,3 190,-70 12,-14 28,-21 36,-30 14,-14 5,-24 28,-33zm235 -164c12,-94 13,-76 38,-90 1,-22 7,-34 -2,-53 -20,2 -4,14 -33,24 -10,-23 -2,-35 8,-57 72,-25 58,52 50,100 -20,110 -12,99 -61,76z"/>
    <path class="fil9" d="M1940 985c-26,34 -53,98 -104,161 -19,25 -60,43 -63,61l24 -9c-10,23 -44,60 -46,82l20 -16c3,21 -13,60 -30,69 -12,-11 -8,-11 -7,-29l-9 16 22 33 22 -57c16,16 6,8 22,21 -15,58 -18,32 -31,48 8,34 44,134 63,161 41,-36 75,-83 83,-139 4,-37 16,-60 13,-98 -2,-20 11,-72 22,-90 22,-2 20,5 35,-10 51,-52 36,-66 63,-107l-21 -15c-2,-56 -2,-25 -28,-52 2,-26 4,-12 19,-30 -6,-31 3,-59 -20,-78 -21,27 -30,53 -49,78z"/>
    <path class="fil9" d="M880 2558c-74,-15 -149,-31 -227,-26 -19,28 -33,79 -44,113 -14,39 -45,79 -50,112l15 19 -26 18c-30,129 92,280 144,391 34,72 128,193 147,262 4,14 28,97 30,102 16,-22 18,-56 57,-56l10 23c-30,30 -25,-5 -45,69 -35,129 29,217 21,293 -52,24 -33,9 -74,-11 -24,-11 -52,-30 -57,-55 12,-8 16,-5 23,-11 7,-5 9,-14 14,-22 20,-29 17,-12 17,-56 -6,4 -3,1 -9,7 -39,41 -47,16 -59,72 -5,25 -5,10 -12,24l-13 81 75 47 -17 15c17,23 68,42 91,61 -3,25 -4,0 -9,22l9 6c15,-12 12,-53 16,-75 16,-85 49,-162 49,-277 -1,-42 27,-119 33,-170 5,-47 45,-137 40,-172 -15,-17 -21,-5 -28,-33 6,-16 5,-6 11,-17 19,-32 -13,-19 39,-41 22,-65 -12,-71 -13,-107 -1,-36 -1,-76 -3,-112 -11,-14 -20,-12 -25,-26 -2,-6 -19,-99 -45,-107 10,20 32,54 16,69 -18,-63 -16,-57 -69,-91 -22,-15 -22,-30 -32,-49 -4,-7 -13,-15 -20,-21 -18,-16 -15,-5 -16,-23 28,14 43,-4 65,16 -14,5 -19,0 -36,-3 6,18 16,23 31,37 17,-2 2,2 18,-7l38 42c58,-6 23,34 64,51 -3,-26 -8,-55 -14,-82 -4,-24 -22,-54 -23,-72 0,-21 47,-120 56,-147 -24,-20 -38,-41 -70,-52 -29,-9 -64,-25 -93,-31zm-57 251c12,-5 -1,-7 17,0 -20,15 -6,8 -17,0zm-25 -111c12,-10 53,-15 69,-9 54,17 71,41 100,84 17,26 19,39 13,71 -11,-12 -69,-124 -134,-126 -27,-1 -40,15 -48,-20zm-38 1129c14,-5 4,-7 14,3 -16,10 -8,3 -14,-3zm30 -40c1,-1 2,2 2,3 0,0 1,1 1,1 -1,0 -12,7 -3,-4zm-229 -942c1,0 1,0 0,0 0,0 0,0 0,0zm6 -25c0,0 0,0 0,0zm0 0c0,0 0,0 0,0z"/>
    <path class="fil9" d="M3357 1780c26,27 61,25 64,26 8,3 11,6 26,10 23,6 34,20 54,14l58 -17c-13,-12 -13,-7 -21,-13 -7,-5 -8,-10 -17,-18l-107 -102 -31 77c18,11 26,7 36,22 -31,3 -36,-11 -62,1z"/>
    <path class="fil9" d="M3264 1795c10,-57 47,-55 44,-103l-63 27 -18 64 37 12z"/>
    <path class="fil9" d="M3231 1981c-19,-4 -46,-22 -112,-34 3,25 9,80 18,99 6,14 39,73 50,81 25,-39 41,-100 44,-146z"/>
    <path class="fil9" d="M3366 2057c-46,45 -46,78 -86,123 -2,3 -9,8 -6,8 19,-1 54,18 84,15 -15,-13 -18,-8 -38,-13 -27,-34 3,-31 28,-33 31,40 73,24 95,33 27,25 37,30 72,42 23,7 16,12 28,27 14,17 16,6 28,20 11,-26 -20,-120 -74,-134 -46,-12 -52,-75 -131,-88z"/>
    <path class="fil9" d="M3557 2145c-5,68 123,110 120,162 -23,-30 -46,-46 -77,-64 1,28 7,16 26,42 34,46 116,72 133,67 38,-29 29,-18 73,-32 78,-25 34,-33 76,-30l-10 22c22,-5 8,-8 26,3 -13,19 -16,7 -27,24 19,22 96,27 127,29 -9,-15 -17,-12 -23,-24 -9,-18 8,-5 -9,-31 -14,7 -23,7 -39,13 -19,-20 -15,-25 -40,-40 12,-27 6,-18 25,-36 5,10 3,38 15,45 18,4 56,-6 69,-15 29,-20 26,-42 59,-42 8,39 -26,46 -64,84 52,46 99,-16 118,-63l22 -8 16 -60c14,-33 85,-171 77,-191l-33 -33c-84,2 -84,85 -98,150 -4,16 -12,62 -18,70l-12 0c-22,-34 62,-217 50,-246 -17,-17 -16,-22 -44,-27 -18,-3 -8,-3 -24,1 -24,5 -4,0 -32,-3 -14,36 -26,114 -36,156 -8,34 -21,44 -15,81 5,24 -2,48 -26,58l-14 -25c-17,23 -2,18 -11,45 -4,12 -10,24 -17,35 -16,24 -10,11 -29,21 -17,10 -10,20 -34,10 21,-18 8,6 20,-14l-46 7c-17,-17 -2,-17 -30,-14 10,20 19,22 3,43 -12,-4 -55,-66 -58,-81l14 -21c28,14 14,24 50,35 32,10 42,14 78,11 17,-8 54,-74 -13,-112 -37,-21 -87,-33 -124,-60 -46,-15 -89,78 -98,86 -5,-5 -11,-6 -7,-19 5,-22 50,-114 108,-93 1,-27 9,-42 12,-68 3,-25 -6,-46 9,-57 37,23 -2,116 8,137 16,15 66,42 86,42 21,-31 9,-38 0,-65 -10,-30 50,-175 38,-199 -15,-14 -31,-14 -50,-27 -22,-16 -26,-26 -53,-13 -28,12 -25,5 -46,29 -16,18 -30,16 -41,34 15,48 30,5 25,81 -6,77 -41,100 -103,146 -67,49 -57,27 -82,44zm555 75c-7,-18 -1,-19 10,-31 17,30 26,6 30,36 -15,4 -28,2 -40,-5zm-91 -39c-15,-22 0,-20 1,-22 17,-1 2,5 18,3 10,-1 -3,-10 19,0 3,14 -2,19 -12,32 -10,-2 -18,-2 -26,-13zm-200 -105l-9 -19 33 -8 6 31c-16,-17 -2,3 -30,-4zm246 -71c-18,-10 -11,-1 -21,-16 15,-20 34,-14 53,-4 -7,15 -14,16 -32,20zm-213 -85c-19,5 -60,-7 -46,-36 8,3 19,7 27,9 20,5 9,-5 30,6l-11 21zm314 141l5 -23 32 12c-9,19 -14,18 -37,11z"/>
    <path class="fil9" d="M3907 2014l-23 111c39,32 17,-22 67,52 18,-10 11,-12 26,-27l-16 -14c4,-20 15,-48 20,-67l32 -127c6,-17 23,-45 26,-60 -16,-11 -37,-20 -59,-21 -35,-2 -14,8 -59,24 -11,43 -7,88 -14,129zm72 -43l-27 -1c-31,-36 1,-31 33,-24l-6 25zm-56 121c21,15 22,6 33,18 -5,16 -5,12 -23,11 -11,-11 -14,-13 -10,-29z"/>
    <path class="fil8" d="M1565 671c2,-14 -11,-24 -17,-44l19 -11c-7,-31 21,-24 84,-42 41,-11 76,-23 122,-15 -16,11 -39,13 -58,16 -57,10 -48,6 -50,31 39,0 95,-38 133,-23 8,20 11,60 29,74 14,-73 -36,-82 -44,-100 24,-28 32,-6 48,10 42,-6 76,-4 100,-41 14,-22 52,-70 55,-90 -31,13 -26,15 -44,39l-28 -5 -10 22 -27 3 -11 24 -70 -34c-10,6 -18,15 -25,18 -25,11 1,-9 -65,20l-167 49c-53,15 -261,23 -289,39 -5,19 -5,9 4,28 53,10 143,-33 186,-8 14,25 4,43 16,69 32,-10 61,-45 109,-29z"/>
    <path class="fil10" d="M2067 1093c-8,15 -27,52 -36,65l-40 62c36,40 42,30 64,88 7,20 16,32 26,49 16,25 5,41 26,59l55 -129c10,-21 19,-41 34,-59 6,-9 12,-21 17,-28 10,-12 14,-8 26,-22 -27,-17 -59,-35 -84,-54 -37,-27 -41,-48 -88,-31z"/>
    <path class="fil10" d="M1712 1304c16,-18 40,-56 48,-79 -12,9 -46,44 -50,64 -6,28 -3,2 2,15z"/>
    <path class="fil10" d="M1723 1240c24,-27 29,2 35,-39 -26,4 -36,30 -60,70l-17 -8c1,5 10,18 16,24 8,-14 16,-34 26,-47z"/>
    <path class="fil10" d="M1748 1287c-3,1 -8,-5 -9,11 12,-5 5,0 9,-11z"/>
    <path class="fil10" d="M1673 1229c1,0 1,-1 1,0 0,0 1,-1 1,-1 -1,0 -12,-8 -3,3 0,1 1,-1 1,-2z"/>
    <path class="fil10" d="M477 2590c-15,4 -23,5 -12,20l12 -20z"/>
    <path class="fil10" d="M528 2570c-24,16 -62,74 -63,105 34,-23 33,-78 63,-105z"/>
    <path class="fil10" d="M504 2648c-6,3 -16,4 -20,28 0,2 -5,0 3,14l17 -42z"/>
    <path class="fil10" d="M590 2546c-25,9 -91,132 -98,164 26,-6 42,-55 53,-80 7,-16 36,-69 45,-84z"/>
    <path class="fil10" d="M574 2608c-16,29 -51,83 -56,111l27 -35c1,31 -15,30 -15,67l33 -68 -13 -7c18,-18 40,-73 45,-100 -5,4 -4,1 -10,12 -5,7 -7,14 -11,20z"/>
    <path class="fil10" d="M506 2637c11,-5 9,-4 11,-17 -5,9 -5,5 -11,17z"/>
    <path class="fil11" d="M3178 1933c45,15 25,-7 69,23 12,-13 38,-98 43,-120 -23,-9 -99,-36 -112,-50l4 -27 31 2c41,-102 16,-112 10,-136 -3,-15 7,-20 -11,-34 -17,10 -20,28 -31,47 -21,38 -1,22 -5,57l-31 19c-21,-9 -10,-19 -47,-14 -7,24 -4,32 -16,57l-65 156c-8,24 -22,191 -23,235 0,20 1,20 13,25 12,-16 73,-208 93,-260 46,0 38,7 78,20z"/>
    <path class="fil11" d="M4192 2250c18,23 113,56 148,64 2,1 224,99 250,99l-2 -41c-42,-26 -331,-137 -374,-141l-22 19z"/>
    <path class="fil11" d="M4493 2264c27,11 101,47 126,41l4 -15c-16,-23 -74,-34 -100,-40 -55,-13 -138,-53 -206,-72 -27,-8 -61,-40 -90,-44l-10 20c27,10 93,28 108,50 32,-5 30,3 58,14l-18 -1c24,19 77,27 128,47z"/>
    <path class="fil11" d="M4650 2292c-20,19 -9,20 -14,42 -10,34 -10,8 -5,48 -21,10 -20,15 -22,38l15 6c18,-19 36,-95 41,-124l-15 -10z"/>
    <path class="fil12" d="M3346 1965c5,-29 13,-58 24,-85 -8,-16 -27,-28 -44,-32 -30,2 -51,104 -53,133 -1,17 -13,18 -23,38 -11,24 -66,172 -64,188l20 -14c17,8 26,8 40,-8 9,-10 6,-13 12,-23 0,0 70,-90 69,-104l-11 -21c9,-21 27,-51 30,-72z"/>
    <path class="fil12" d="M3317 1792c12,20 -2,21 27,34 13,6 34,17 43,14l4 -21c-22,-13 -38,-3 -57,-18l9 -54 23 -2c11,-22 7,-19 12,-41 3,-15 12,-25 18,-36 -51,10 -99,106 -115,128 20,15 14,6 36,-4z"/>
    <path class="fil12" d="M3404 1842c-13,23 3,12 -9,37 -9,17 -12,25 -17,44 -9,29 -23,63 -29,91 26,17 22,41 56,33 -2,-30 -15,-87 -4,-114 15,-39 44,-58 56,-81 -18,-13 -33,-16 -53,-10z"/>
    <path class="fil12" d="M4207 2174l-3 21c35,10 19,-1 49,19 42,27 83,30 125,45 9,3 14,8 24,11 61,20 159,83 203,80 7,-39 -28,-24 -88,-55 -14,-6 -37,-14 -53,-19 -23,-9 -35,-19 -52,-25l-104 -35c-21,-7 -88,-42 -101,-42z"/>
    <path class="fil12" d="M4686 2377c6,5 3,2 12,9 20,17 46,34 73,39 33,7 84,41 112,29 -73,-60 -31,-16 -95,-49 -23,-12 -83,-25 -114,-36l12 8z"/>
    <path class="fil13" d="M3589 2095c65,-39 124,-74 99,-161 -9,-36 -30,-63 -66,-75 -55,-19 -84,21 -107,10l19 -19c-37,19 -13,12 -34,31 -13,11 -23,12 -40,31 -49,54 -35,76 -14,128 12,31 -17,9 38,58 31,27 72,16 105,-3zm-35 -142c27,-2 34,-7 40,25 4,21 13,48 12,66 -35,3 -17,-4 -43,-25 -19,-15 -26,-8 -26,-37 1,-47 -38,-31 -40,-89 39,1 34,34 57,60z"/>
    <path class="fil13" d="M3690 1908c15,30 -3,9 22,31 5,-33 -22,-44 -40,-66 -1,1 -4,0 -4,2 0,1 -2,2 -3,3 -1,1 14,8 25,30z"/>
    <path class="fil10" d="M3478 1695c24,22 44,55 72,67 -12,-15 -15,-26 -29,-40 -13,-13 -18,-26 -33,-37l-10 10z"/>
    <path class="fil10" d="M3542 1706c7,17 42,53 54,56l-11 -31c-9,1 0,-10 -11,7 -6,-19 -12,-26 -32,-32z"/>
    <path class="fil10" d="M3599 1812c-11,-14 -5,-13 -17,-8 2,11 -12,14 17,8z"/>
    <path class="fil12" d="M3179 2159c-79,-96 -51,-62 -77,-150 -4,-15 0,-4 -5,-13 -11,45 -47,111 -49,153 25,3 41,8 65,14 33,7 30,5 44,28l22 -32z"/>
    <path class="fil14" d="M1564 2079c22,-1 64,-6 64,-32 -6,0 -121,21 -128,26 8,24 40,7 64,6z"/>
    <path class="fil14" d="M1877 2008c-22,16 -63,20 -71,35 15,4 73,-6 87,-13l167 -36c30,2 19,-5 37,-9 23,-4 16,7 36,11l5 -37c-34,-5 -226,23 -261,49z"/>
    <path class="fil14" d="M1550 3079c-22,-3 -30,-6 -48,8 13,17 65,38 82,27 -18,-18 -25,-4 -34,-35z"/>
    <path class="fil14" d="M1030 2998l-3 -53c-6,8 -8,10 -16,16 7,22 6,32 19,37z"/>
    <path class="fil14" d="M2075 3317c6,31 60,107 103,155 9,10 17,19 24,26 6,5 10,10 14,13 51,37 56,48 122,83 -15,-18 -55,-31 -76,-57 -13,-17 -11,-22 -31,-36 -28,-19 -14,-15 -34,-36 -34,-34 -37,-33 -61,-76 -32,-60 -54,-63 -61,-72z"/>
    <path class="fil14" d="M1791 3124c-6,-18 5,-22 12,-34 -18,1 -22,2 -37,14l25 20z"/>
    <path class="fil14" d="M1836 3082l-22 17 51 -9c-22,-3 -13,3 -29,-8z"/>
    <path class="fil9" d="M876 3860c8,-36 5,-50 -18,-90 -7,11 -30,45 -32,55 11,16 32,20 50,35z"/>
    <g id="_1433313207536">
     <path class="fil7" d="M111 2779c22,-815 561,-1495 1294,-1734 -15,-9 -28,-20 -35,-32 -6,-9 -7,-20 -14,-27 -7,-7 -15,-3 -23,-9 -2,-1 -6,-8 -11,-18 -751,262 -1298,966 -1321,1809 -30,1088 829,1995 1917,2025 1089,30 1996,-829 2026,-1918 5,-179 -15,-354 -55,-521 -23,-13 -47,-19 -85,4 43,167 64,342 59,523 -20,718 -440,1330 -1041,1630 0,0 0,0 0,0 -7,3 -14,7 -21,10 -261,126 -556,193 -865,185 -41,-1 -80,-4 -120,-7 -10,-1 -20,-2 -31,-3 -322,-35 -619,-150 -870,-325 -8,-6 -16,-12 -24,-17 0,0 0,0 0,0 -487,-351 -798,-930 -780,-1575z"/>
     <path class="fil7" d="M2038 954c372,10 716,127 1002,322 39,19 73,40 112,79 97,98 105,39 185,43 -341,-328 -801,-534 -1311,-548 0,0 0,0 0,0 -3,15 -5,34 -3,60 2,15 3,30 6,43l9 1z"/>
    </g>
   </g>
   <path class="fil2" d="M889 1835c22,-36 37,-72 63,-111 21,-33 51,-72 74,-104 53,-71 37,-37 104,-66 21,-9 35,-24 59,-33 24,-10 34,-18 56,-29 20,-11 40,-14 61,-25 19,-9 37,-20 55,-30 20,-10 35,-25 53,-33 26,-12 36,-8 47,-38 10,-27 26,-89 61,-82l65 -27c1,-7 5,-13 30,-24l-5 -52c-28,-17 -22,-7 -51,-33l-94 -69c-16,-9 -41,-20 -62,-34 -733,239 -1272,919 -1294,1734 -18,645 293,1224 780,1575l0 0c-6,-55 -9,-111 -5,-166 3,-45 30,-99 -12,-128 -34,-23 -62,-46 -89,-79 -19,-24 -12,-25 -43,-37 -60,-25 -35,-65 -24,-114 10,-40 29,-49 43,-80 12,-27 19,-64 49,-75 20,11 3,-3 15,18l32 -19c0,-20 -1,-53 2,-72 4,-26 -29,-85 -35,-117 -3,-15 -9,-47 -15,-59 -13,-29 -101,-154 -121,-197 -14,-29 -39,-78 -55,-105 -17,-27 -52,-69 -61,-97 -37,-112 -67,-115 -44,-246 -58,-38 -60,-6 -95,-81 -17,-39 -31,-90 -19,-133 3,-14 49,-88 60,-105 77,-123 47,-196 144,-199 48,-1 58,-52 79,-93 38,-77 86,-148 122,-226 17,-36 48,-75 70,-109z"/>
   <path class="fil2" d="M2164 1086c27,23 62,47 91,70 39,31 59,22 100,5 101,-44 4,54 197,39 42,-4 105,0 147,4 110,9 148,-19 255,33 33,15 61,27 86,39 -286,-195 -630,-312 -1002,-322l-9 -1c6,26 17,49 41,68 29,24 64,39 94,65z"/>
   <path class="fil2" d="M2714 2188c-34,57 -81,125 -119,181 -44,64 -72,119 -125,179 -32,36 -30,66 -34,112 -11,115 -48,237 -58,397 -7,112 108,99 29,211 -31,43 -28,65 -15,114 12,43 17,82 26,125 17,77 44,153 64,230 57,216 168,434 268,631 24,47 49,95 72,143l0 0c601,-300 1021,-912 1041,-1630 5,-181 -16,-356 -59,-523 -5,3 -9,7 -15,11 -43,32 -69,-3 -104,-9 -36,-6 -24,26 -72,-20 -51,-49 -105,-63 -162,-106 -43,-33 -48,-23 -89,-4 -31,15 -69,-5 -102,-23 -12,-7 -3,12 -46,30 -20,8 -12,11 -31,21 -31,-6 -44,-25 -34,-54 -148,-76 -109,-10 -122,29l-26 1c-13,-19 -4,-21 -20,-35 -12,-11 -18,-13 -27,-27l14 -30c-21,-12 -57,-23 -70,-48 -14,-25 -16,-35 -18,-61 -25,-14 -28,-7 -50,-34 -51,60 -76,122 -116,189z"/>
  </g>
 </g>
</svg>
