<?xml version="1.0" encoding="UTF-8"?>
<!DOCTYPE svg PUBLIC "-//W3C//DTD SVG 1.1//EN" "http://www.w3.org/Graphics/SVG/1.1/DTD/svg11.dtd">
<!-- Creator: CorelDRAW X7 -->
<svg xmlns="http://www.w3.org/2000/svg" xml:space="preserve" width="100%" height="100%" version="1.1" style="shape-rendering:geometricPrecision; text-rendering:geometricPrecision; image-rendering:optimizeQuality; fill-rule:evenodd; clip-rule:evenodd"
viewBox="0 0 4250 4068"
 xmlns:xlink="http://www.w3.org/1999/xlink">
 <defs>
  <style type="text/css">
   <![CDATA[
    .fil2 {fill:#FEFEFE}
    .fil13 {fill:#E6E7E8}
    .fil12 {fill:#BDBFC1}
    .fil14 {fill:#606062}
    .fil8 {fill:#FCD3C2}
    .fil9 {fill:#F8AC92}
    .fil11 {fill:#D4D4D3}
    .fil3 {fill:#889FAC}
    .fil4 {fill:#6B7D87}
    .fil7 {fill:#4E5A62}
    .fil5 {fill:#C8C5E2}
    .fil10 {fill:#537473}
    .fil6 {fill:#585570}
    .fil1 {fill:black}
    .fil0 {fill:white}
   ]]>
  </style>
 </defs>
 <g id="Layer_x0020_1">
  <metadata id="CorelCorpID_0Corel-Layer"/>
  <g id="_1965627621232">
   <path class="fil0" d="M1820 3457c-24,-22 -109,-406 -132,-477 -52,-164 -70,-134 35,-175 91,-37 75,1 142,84 40,50 113,110 169,139 37,20 11,41 19,92 6,41 21,79 31,120 36,161 112,116 -37,147 -30,6 -223,70 -227,70zm-282 -802c5,13 27,35 11,89 -5,18 -2,16 -3,34 -4,10 -53,35 -69,58 -6,9 -11,15 -21,18 -7,-5 -9,-11 -12,-13 10,-33 54,-93 42,-138 -4,-15 -18,-21 -30,-30 -7,11 -16,43 -25,60 -44,74 -23,42 -48,125 -8,25 -13,44 -19,71 -3,0 -35,2 -36,2 -13,0 -13,-11 -16,-24 23,-35 16,-139 73,-193 36,-35 3,-36 47,-36l3 -11c0,-1 -114,15 -126,17 -115,19 -226,81 -332,134 -85,42 -55,34 -85,147 -13,47 -41,221 -45,266 -2,25 0,45 -4,72 28,-37 61,-79 83,-118 12,-22 21,-51 24,-75 2,-12 6,-34 7,-45 3,-24 -16,-10 -4,-39 0,0 102,-60 127,-60 16,26 -2,36 -4,62 -7,83 -20,163 -20,242 0,56 -11,179 -9,245 2,62 20,58 -2,91 -11,17 -12,15 -43,26 -39,13 -94,65 -107,73 -27,16 -27,40 -46,41l-18 -42c-18,-83 -7,-70 -4,-146 1,-35 14,-202 6,-222 -7,61 -22,112 -23,175 0,35 -1,171 4,221 218,143 473,234 747,256 -10,-27 -20,-55 -32,-82 -8,-19 -61,-171 -59,-179l15 -8 100 265c1,2 2,4 2,6 34,2 68,3 102,3 263,0 512,-64 731,-177 -28,-63 -35,-76 -77,-150 -21,-38 -36,-73 -58,-111l-107 -233c-14,-35 -37,-86 -48,-120 -14,-43 -35,-81 -46,-122 -11,-44 -28,-85 -39,-128 -13,-49 -16,-99 -26,-148 -9,-47 -6,-90 -52,-116 -39,-23 -78,-39 -123,-44 -82,-11 -226,-12 -306,11z"/>
   <g>
    <path class="fil1" d="M1242 1111l2 -1 -2 1zm93 -50l8 -4 -8 4zm1121 682c10,11 34,24 48,24 11,-39 13,-84 15,-127 -17,-28 -22,-19 -2,-50 1,-1 20,-47 22,-51 13,-37 31,-74 34,-113 15,-22 7,-1 17,-30 10,-29 30,-21 53,-16 7,-10 12,-33 24,-54 11,-19 0,-30 33,-42l26 20c4,33 14,14 13,46 0,20 3,-2 4,18 1,16 -4,0 -2,20 15,-2 28,-8 41,-12 29,-8 17,-1 34,-2 12,-1 26,-10 35,-18 17,-15 9,-21 31,-21 7,16 2,18 3,30 17,5 64,11 83,6 -6,-24 -24,-24 -38,-46 -14,-22 -18,-30 -38,-49 -15,-14 -29,-28 -44,-42 -21,-21 -18,-31 -33,-50 -21,-15 -111,22 -134,36 -11,8 -20,18 -33,27 -40,26 -100,84 -126,125 -42,66 -112,198 -73,279 9,19 -1,32 0,54 1,14 0,31 7,38zm312 79c16,0 46,15 72,12 -13,-11 -16,-7 -33,-11 -24,-28 1,-26 23,-28 28,33 63,18 82,26 23,20 31,24 62,33 19,6 14,10 24,23 12,14 13,4 24,16 9,-23 -19,-101 -66,-112 -39,-9 -45,-63 -113,-71 -38,38 -37,67 -70,106 -2,2 -8,7 -5,6zm-1703 -1096c12,19 24,55 30,76 9,31 13,24 35,42 14,12 26,27 41,36 19,11 29,12 47,27 24,21 60,49 88,63 46,22 48,49 103,35 51,-13 67,-16 99,-57 12,-15 25,-26 34,-44 18,-35 60,-122 80,-144 34,-39 27,-88 39,-104 40,-9 41,7 51,-43 5,-23 4,-50 7,-74 2,-30 5,-56 11,-86 6,-30 3,-42 -20,-61 -34,4 -34,13 -50,40l-6 -13c-11,20 -23,41 -37,56 -15,15 -16,37 -32,52 -19,-10 -5,-12 -29,-11 -12,1 -25,3 -37,3 5,69 14,90 -62,111 -38,10 -116,43 -153,36l-3 -36c-48,-10 -51,4 -86,25 -6,45 -11,18 -42,40 -9,8 -44,23 -56,26 -13,4 -33,4 -52,5zm-22 2c0,1 -1,1 -1,1 -52,9 -13,1 -64,-6l-33 -82 -12 9c-31,-17 -27,-6 -56,-36 102,-117 37,-46 39,-164 1,-28 -3,-95 4,-118 9,-34 38,-44 60,-68 23,-26 30,-61 48,-89 16,-26 44,-47 66,-68 71,-70 62,-81 171,-95 125,-17 215,-27 314,56 28,24 54,27 79,46 33,26 29,53 46,86 15,26 46,56 30,86 -14,27 -50,45 -21,73 34,32 51,40 41,91 -10,47 -17,69 -16,118 3,131 -76,74 -62,198 4,38 10,69 42,93 25,20 55,32 81,53 24,19 54,39 79,58 34,25 51,17 85,1 85,-40 5,47 169,29 35,-4 89,-3 124,0 94,5 126,-19 218,22 69,30 114,41 171,96 93,89 90,19 181,34 11,15 5,23 15,37 8,11 15,13 23,28 16,27 28,38 54,51 9,5 36,45 46,57 19,21 28,33 40,58 19,8 18,1 29,19 7,11 18,20 21,26 11,23 -2,53 4,75 19,9 6,-2 57,24 36,-17 46,-61 94,-65 39,-3 81,23 109,47 38,-4 80,-16 121,28 39,-3 20,-5 54,18 27,18 19,26 36,40 30,-4 39,-5 68,11 16,9 33,41 34,60 -13,12 -8,10 -24,10l-22 55c13,9 35,14 51,18 22,4 21,13 46,22 33,12 62,25 97,36 35,11 69,24 104,35 20,6 32,8 52,17 35,15 16,6 48,6 18,33 -9,19 -11,46 3,3 38,18 47,23 46,22 104,35 154,46l7 15c16,3 57,9 70,17 -14,20 -47,9 -70,21 -48,25 -22,15 -66,-5 -12,-5 -27,-6 -40,-11 -12,-4 -23,-12 -34,-18 -10,-4 -69,-20 -77,-20 -25,20 -1,55 -64,35 -26,-8 -44,-21 -75,-31 -85,-27 -168,-65 -257,-83 -32,-6 -55,-26 -76,5 -7,11 -20,21 -24,28 -6,10 -3,24 -10,33 -8,10 -72,13 -89,13 -66,1 -82,-76 -158,-15 -36,29 -59,0 -89,-5 -31,-4 -20,23 -61,-15 -46,-40 -92,-51 -141,-86 -37,-27 -41,-19 -75,-1 -27,13 -60,-3 -87,-18 -11,-5 -3,10 -39,26 -17,8 -10,11 -26,20 -26,-5 -38,-21 -30,-46 -128,-61 -93,-6 -103,28l-22 1c-11,-16 -4,-17 -18,-29 -10,-9 -16,-10 -23,-22l10 -26c-18,-10 -48,-19 -60,-40 -12,-20 -14,-29 -16,-51 -22,-11 -25,-5 -44,-28 -42,53 -61,106 -94,163 -28,50 -66,109 -97,157 -36,56 -59,103 -102,155 -26,31 -24,57 -26,96 -7,98 -35,203 -40,339 -4,95 94,81 29,178 -25,37 -22,56 -10,97 11,37 16,70 25,106 16,66 41,129 60,195 53,181 153,364 242,529 22,40 44,80 65,120 -6,3 -12,6 -18,9 -28,-63 -35,-76 -77,-150 -21,-38 -36,-73 -58,-111l-107 -233c-14,-35 -37,-86 -48,-120 -14,-43 -35,-81 -46,-122 -11,-44 -28,-85 -39,-128 -13,-49 -16,-99 -26,-148 -9,-47 -6,-90 -52,-116 -39,-23 -78,-39 -123,-44 -82,-11 -226,-12 -306,11 5,13 27,35 11,89 -5,18 -2,16 -3,34 -4,10 -53,35 -69,58 -6,9 -11,15 -21,18 -7,-5 -9,-11 -12,-13 10,-33 54,-93 42,-138 -4,-15 -18,-21 -30,-30 -7,11 -16,43 -25,60 -44,74 -23,42 -48,125 -8,25 -13,44 -19,71 -3,0 -35,2 -36,2 -13,0 -13,-11 -16,-24 23,-35 16,-139 73,-193 36,-35 3,-36 47,-36l3 -11c0,-1 -114,15 -126,17 -115,19 -226,81 -332,134 -85,42 -55,34 -85,147 -13,47 -41,221 -45,266 -2,25 0,45 -4,72 28,-37 61,-79 83,-118 12,-22 21,-51 24,-75 2,-12 6,-34 7,-45 3,-24 -16,-10 -4,-39 0,0 102,-60 127,-60 16,26 -2,36 -4,62 -7,83 -20,163 -20,242 0,56 -11,179 -9,245 2,62 20,58 -2,91 -11,17 -12,15 -43,26 -39,13 -94,65 -107,73 -27,16 -27,40 -46,41l-18 -42c-18,-83 -7,-70 -4,-146 1,-35 14,-202 6,-222 -7,61 -22,112 -23,175 0,35 -1,171 4,221 -7,-5 -14,-9 -21,-14 -6,-47 -10,-93 -8,-141 1,-38 23,-84 -13,-108 -30,-19 -54,-37 -77,-65 -17,-20 -11,-21 -38,-31 -51,-19 -31,-54 -23,-95 7,-35 24,-43 35,-70 9,-23 15,-54 40,-65 16,9 3,-2 13,15l27 -17c-1,-17 -2,-45 0,-61 2,-22 -27,-71 -33,-99 -2,-12 -9,-39 -14,-49 -12,-24 -89,-129 -108,-165 -12,-24 -34,-65 -49,-88 -15,-23 -46,-57 -54,-80 -34,-95 -59,-97 -43,-209 -50,-31 -51,-3 -82,-66 -16,-33 -29,-76 -20,-113 3,-12 40,-76 49,-91 62,-106 36,-167 117,-172 42,-2 49,-45 66,-81 30,-66 70,-127 98,-194 14,-32 40,-65 57,-95 18,-31 30,-62 51,-96 17,-28 42,-62 61,-89 43,-62 30,-33 87,-60 17,-8 28,-20 49,-29 20,-9 28,-16 47,-26 16,-9 34,-12 51,-22 16,-9 31,-18 46,-27 17,-9 29,-22 44,-29 22,-11 31,-8 39,-34 8,-22 20,-76 51,-71l54 -24c0,-6 4,-11 25,-21l-5 -44c-25,-14 -20,-5 -44,-27l-82 -56c-24,-14 -67,-29 -84,-54 -5,-8 -7,-18 -13,-23 -6,-6 -12,-2 -20,-7 -7,-5 -45,-98 -47,-111zm269 356l-39 18c0,0 1,0 1,1 -3,22 -7,14 -22,25 -28,19 -30,65 -36,96l-54 218c-4,25 -11,50 -15,76 -5,21 -5,56 -1,77 6,35 -16,43 -5,66 13,2 39,-4 51,-15l46 -326c9,-68 17,-165 64,-220 6,-7 9,-12 10,-16zm-475 2242c0,-10 3,0 3,0 3,1 -4,10 -3,0zm-111 -56c1,-8 20,-38 26,-47 21,34 23,46 17,76 -16,-12 -33,-15 -43,-29zm214 -59l-11 11 11 -11zm-198 -41c1,-3 5,-8 7,1 2,6 -7,6 -7,-1zm223 -34c1,-10 0,6 0,0zm7 -23c0,-1 -1,2 -1,2l1 -2zm5 -18c-5,22 0,4 -7,11l7 -11zm-84 237c11,-14 14,-27 22,-41l82 -178c14,-44 -14,-66 29,-100 11,-8 24,-17 38,-16l-18 135c-8,70 -5,179 -13,242 -18,143 2,130 7,215 -9,5 -30,12 -41,18 -16,10 -25,13 -44,18 -12,29 -27,24 -50,48 -8,9 -17,16 -28,23 -16,11 -13,15 -25,22 -1,-30 -6,-63 -8,-95 -2,-35 0,-70 6,-104 3,-25 3,-79 4,-107 1,-73 16,-55 3,-88l59 -84c7,19 -32,62 -43,76l20 16zm598 -538c-2,-2 1,2 0,0zm-144 100c-5,-10 3,-47 6,-57 16,-55 17,-91 75,-142 -6,17 -15,33 -25,48 -31,48 -28,75 -37,101l-19 50zm-425 -71c3,-19 46,-37 64,-44 13,-5 24,-11 36,-19 38,-26 14,-7 37,-20 66,-36 77,-31 120,-48 11,-4 27,-12 37,-15 -6,13 -124,67 -146,75 -16,5 -16,12 -37,19 -42,14 -90,54 -111,52zm306 -146c6,-6 -9,-4 12,-4l-12 4zm359 1313c0,-2 -1,-4 -2,-6l-100 -265 -15 8c-2,8 51,160 59,179 12,27 22,55 32,82 9,1 18,1 26,2zm-351 -1383c14,-17 27,-20 50,-17 62,7 25,-9 99,29 20,10 33,5 38,21 -30,24 -52,-10 -81,-21 -46,-18 6,-29 -86,-13 -10,44 7,38 35,55 -37,1 -45,-25 -55,-54zm277 144c6,-18 12,-97 -45,-94 4,-11 1,-8 15,-10 13,10 8,12 25,22 37,23 26,30 16,79 -5,22 -6,27 -25,38 1,-20 10,-20 14,-35zm464 -86c-38,-24 -92,-38 -91,-39 9,-3 92,26 106,32 31,14 70,35 52,72 -10,-16 5,-6 -9,-24 -8,-10 -10,-6 -19,-15 -27,-28 -11,-8 -39,-26zm-653 -45c8,26 13,14 29,29 -14,10 -58,-7 -70,-21 15,-13 22,-10 41,-8zm184 16c12,-10 16,-12 31,-12 -6,10 -15,13 -10,29l-21 -17zm358 -11c7,-3 8,-4 8,-4 13,-4 -2,10 -8,4zm-299 -9c13,9 5,4 24,6l-43 9 19 -15zm41 -1c5,4 -5,-1 -6,-2 -4,-6 6,1 6,2zm12 -6c14,-5 41,-2 62,-4 37,-4 152,-8 184,15 -23,7 -147,-8 -187,-10 -46,-1 -40,14 -59,-1zm-178 23c3,-33 76,-78 111,-69 -2,30 -18,26 -39,42 -18,15 -34,19 -60,17 -11,14 1,4 -12,10zm-579 -100c7,-5 8,-7 13,-14l4 45c-11,-4 -11,-12 -17,-31zm-389 -163c4,-28 29,-62 40,-96 9,-29 19,-73 35,-97 66,-6 130,5 193,17 25,4 56,17 80,24 27,8 39,26 60,42 -6,23 -44,109 -43,127 1,15 16,40 21,60 5,23 10,48 14,69 -36,-13 -7,-47 -56,-41l-33 -35c-14,8 -1,4 -16,6 -12,-11 -21,-15 -26,-30 14,2 18,6 30,1 -19,-16 -32,-1 -55,-12 1,15 -2,6 14,19 6,5 13,12 17,18 9,16 10,29 28,40 46,28 44,23 61,76 14,-13 -6,-41 -16,-58 23,6 40,85 42,90 5,11 12,9 21,22 3,30 4,64 6,95 2,30 30,34 13,91 -44,19 -17,7 -32,35 -5,9 -5,1 -9,14 7,24 11,14 25,28 4,30 -28,107 -31,147 -4,44 -25,109 -24,146 3,97 -24,163 -35,236 -3,19 1,53 -11,64l-9 -5c4,-19 6,3 7,-19 -19,-15 -63,-31 -78,-49l14 -13 -65 -39 9 -69c6,-12 6,1 10,-20 9,-49 16,-28 49,-63 5,-5 2,-3 7,-6 1,37 3,22 -13,47 -5,7 -5,15 -11,19 -6,6 -10,3 -20,10 5,21 29,37 50,46 35,16 19,29 63,8 5,-65 -52,-138 -24,-249 15,-63 11,-34 36,-60l-9 -19c-33,1 -34,30 -47,49 -2,-4 -24,-74 -28,-86 -18,-58 -100,-159 -131,-219 -47,-94 -154,-218 -131,-329l21 -16 -13 -16zm-63 -55c-6,-12 -2,-11 -2,-12 2,-20 11,-22 16,-24l-14 36zm15 -46c5,-10 5,-6 9,-14 -1,11 1,10 -9,14zm-34 34c0,-27 31,-77 51,-91 -24,23 -23,71 -51,91zm56 -73l-6 10 6 -10zm-57 18c-10,-13 -3,-14 10,-18l-10 18zm222 -294c55,-3 126,4 182,11 20,3 18,3 35,12 19,10 20,4 39,9 22,5 49,15 67,27 6,32 -31,190 -42,229 -14,-7 -32,-25 -55,-37 -76,-37 -278,-65 -359,-38 -28,9 -98,34 -114,58 1,-8 35,-69 42,-83 8,-15 19,-27 25,-40 61,-124 45,-144 167,-137l13 -11zm-175 385c4,-24 32,-71 46,-96 2,-5 4,-11 8,-17 5,-9 4,-7 9,-11 -4,24 -21,71 -37,86l12 6 -26 59c-2,-32 12,-31 11,-57l-23 30zm-22 -7c5,-27 59,-133 80,-142 -8,13 -31,59 -36,73 -9,21 -22,63 -44,69zm3725 -319c-23,10 -67,-18 -95,-22 -23,-4 -46,-18 -64,-32 -7,-6 -5,-3 -10,-7l-11 -7c27,9 78,18 98,28 56,27 18,-10 82,40zm-1112 -125l13 15c-15,-3 -10,-5 -13,-15zm896 69c-5,-33 -4,-12 3,-41 5,-19 -5,-19 12,-36l12 8c-3,25 -17,90 -31,106l-14 -4c1,-20 0,-24 18,-33zm-34 28c-22,0 -213,-78 -214,-79 -30,-6 -112,-32 -127,-51l17 -16c37,2 285,90 322,111l2 35zm-290 -162c-27,-16 -13,-7 -43,-15l2 -17c11,-1 69,27 87,33l89 27c15,4 25,13 45,20 13,4 33,10 45,15 52,25 81,11 76,45 -37,4 -122,-48 -173,-64 -9,-2 -14,-6 -21,-9 -37,-11 -72,-13 -107,-35zm-1026 -27c1,-36 30,-93 38,-131 4,7 1,-2 5,11 24,74 -1,45 68,125l-17 28c-13,-19 -11,-18 -39,-23 -20,-4 -34,-8 -55,-10zm1110 -5c0,-1 -1,1 -1,0l1 0zm26 32c-24,-8 -23,-15 -50,-10 -13,-19 -70,-32 -93,-40l8 -17c25,3 55,29 78,35 58,15 129,47 176,56 23,5 72,13 86,32l-3 13c-21,6 -85,-23 -108,-32 -43,-16 -89,-21 -109,-37l15 0zm-984 -174c-2,39 -14,91 -34,125 -10,-7 -40,-56 -45,-67 -8,-17 -14,-63 -18,-85 57,9 81,24 97,27zm410 -102c9,-16 21,-14 34,-30 17,-21 15,-15 38,-26 23,-11 27,-3 46,10 16,11 30,10 42,22 11,19 -36,145 -27,170 9,23 19,28 2,55 -18,1 -61,-21 -74,-34 -9,-17 22,-97 -10,-116 -13,10 -4,27 -7,49 -2,22 -8,35 -8,57 -50,-16 -86,63 -90,82 -3,12 2,12 6,16 8,-7 42,-86 82,-76 32,23 75,32 107,49 57,31 28,87 13,95 -31,3 -39,0 -66,-8 -31,-8 -20,-17 -43,-28l-12 18c3,13 41,64 51,67 13,-18 6,-19 -3,-36 23,-3 10,-3 26,11l38 -7c-9,17 1,-4 -16,13 21,7 14,-1 28,-10 16,-9 12,2 24,-19 6,-9 11,-19 14,-29 7,-24 -6,-19 8,-39l13 21c20,-9 25,-29 21,-50 -6,-31 4,-40 10,-69 8,-36 16,-103 28,-133 23,1 7,6 26,1 14,-3 5,-3 21,-1 24,3 23,7 38,22 11,24 -57,182 -36,210l10 0c4,-7 10,-47 13,-60 11,-55 9,-126 80,-130l29 27c7,17 -50,136 -61,164l-12 52 -19 7c-15,41 -53,94 -99,57 32,-33 60,-41 53,-73 -28,0 -25,19 -50,37 -10,7 -43,17 -58,14 -10,-6 -9,-30 -13,-38 -16,16 -12,8 -21,31 21,12 19,16 35,33 13,-5 21,-6 32,-12 16,22 1,11 9,26 6,11 12,8 20,21 -26,-2 -92,-4 -108,-22 9,-15 11,-5 22,-21 -15,-9 -4,-7 -22,-2l8 -19c-36,-2 2,4 -64,27 -37,13 -30,3 -62,29 -13,5 -84,-16 -114,-54 -17,-22 -22,-11 -23,-35 27,14 47,27 67,53 2,-44 -108,-77 -105,-135 20,-15 12,4 68,-40 52,-40 81,-60 84,-126 2,-65 -9,-28 -23,-68zm-172 0c20,9 43,-25 90,-11 32,10 50,32 59,63 23,73 -26,104 -81,138 -27,17 -62,28 -89,5 -48,-40 -22,-22 -34,-48 -18,-44 -31,-62 10,-109 13,-17 22,-17 33,-28 17,-16 -3,-9 28,-26l-16 16zm-271 295c-3,-14 41,-140 50,-162 7,-17 17,-17 18,-32 1,-24 17,-112 42,-115 15,4 31,13 38,27 -9,23 -14,48 -18,73 -2,17 -16,43 -24,62l10 17c1,12 -56,90 -56,90 -5,9 -3,11 -10,20 -12,14 -19,14 -34,8l-16 12zm421 -266c-10,-18 -23,-24 -22,-25 1,0 2,-1 2,-2 0,-2 3,-2 3,-2 16,19 39,27 36,55 -22,-18 -6,-1 -19,-26zm195 -25c38,-15 20,-22 50,-22 19,1 37,8 50,17 -2,13 -15,37 -20,52l-25 108c-3,16 -12,41 -14,58l13 11c-12,13 -6,14 -22,24 -43,-62 -24,-17 -58,-43l18 -94c4,-36 0,-74 8,-111zm-228 -11c0,0 -1,2 -2,2l2 -2zm-255 135c5,-24 16,-54 23,-79 4,-16 6,-23 13,-38 10,-21 -4,-11 7,-31 17,-6 30,-4 46,7 -10,20 -34,37 -46,70 -9,23 3,71 6,97 -29,8 -26,-13 -49,-26zm208 -178c-24,6 -12,2 -15,-7 10,-4 5,-5 15,7zm-31 -30c1,-1 4,8 -1,2l1 -2zm-21 21c7,5 7,1 18,11l-49 16c-17,5 -26,-7 -46,-11 -13,-3 -15,-6 -22,-8 -3,-1 -32,1 -55,-21 21,-10 27,1 53,-3 -10,-11 -16,-8 -32,-17l25 -66 93 84c8,7 9,11 15,15zm48 -33c-10,-3 -41,-33 -47,-47 17,5 23,10 28,27 9,-15 2,-5 10,-7l9 27zm-246 -53c4,40 -28,39 -35,88l-31 -9 13 -55 53 -24zm208 53c-25,-9 -42,-37 -63,-55l8 -9c13,10 18,21 29,31 12,11 15,21 26,33zm-2421 480c4,-23 24,-60 37,-79 18,-25 27,-49 39,-77 25,-58 89,-157 120,-225 17,-38 102,-183 149,-185 6,27 -4,33 -2,57 4,43 48,213 62,258 6,19 16,26 24,40 5,10 2,13 6,24 7,19 31,9 -32,103 -14,20 -27,20 -33,32 -1,2 -19,40 -20,41l21 15 -4 44c-14,3 -64,-18 -84,-22 -24,-6 -19,-11 -47,-10 -37,2 -68,-17 -142,-13l-94 -3zm2193 -444c13,-20 52,-103 95,-112 -5,10 -13,18 -15,31 -3,19 -1,17 -9,35l-20 2 -6 47c16,12 29,3 48,13l-2 18c-8,3 -26,-6 -37,-11 -25,-10 -13,-11 -24,-28 -18,10 -13,17 -30,5zm-92 -84c3,-30 -14,-15 3,-48 9,-17 11,-32 25,-41 16,12 7,16 11,29 5,20 27,28 -6,115l-26 0 -3 23c12,11 77,33 96,39 -4,19 -24,92 -34,103 -38,-24 -20,-6 -58,-18 -35,-10 -28,-16 -68,-15 -15,45 -63,210 -72,224 -11,-5 -12,-5 -12,-21 0,-38 8,-180 14,-201l51 -134c11,-22 8,-28 13,-48 31,-6 22,3 40,10l26 -17zm-1725 -65c19,-9 29,-8 52,-22 32,-20 90,-43 132,-66 43,-24 44,-35 64,-36 -4,39 -39,183 -55,218 -22,50 -11,178 -24,235l-17 8c-14,-7 -3,-6 -20,-9 -16,20 -31,61 -48,75 -13,-18 -11,-30 -22,-43 -19,-22 -64,-202 -70,-236 -7,-40 -6,-74 -9,-114l17 -10zm1476 323c-39,-16 -131,-40 -159,-58 -25,-17 -86,-84 -100,-111 -28,-52 -39,-112 -41,-170 -2,-47 2,-49 16,-90 13,-37 24,-34 44,-59 14,-18 25,-47 41,-67 13,-17 75,-62 90,-70 14,-8 26,-6 41,-10 41,-13 29,-16 75,1 43,16 113,37 149,62 18,13 107,82 113,94 -34,30 -74,53 -106,86 -24,25 -77,71 -89,101 -37,88 -101,154 -74,291zm-1086 -465c-10,-24 5,-110 5,-140 13,6 35,44 48,59 14,17 36,30 49,55 27,53 38,94 60,148l-33 60c-25,42 -21,168 -39,230 -35,6 -76,9 -109,19 -32,10 -71,20 -105,18l12 -133c11,-35 23,-149 32,-202 8,-50 4,-95 32,-160 7,-16 11,-17 19,-21l14 109c3,22 7,87 42,71 7,-18 -7,-11 -8,-38 -1,-17 3,-32 5,-48 13,-100 14,-43 31,-76 -31,-41 -49,39 -55,49zm112 -107c-3,10 3,6 -7,10 0,-14 5,-8 7,-10zm145 -2c4,32 -5,52 -9,84 -4,48 -33,88 -67,120 -17,-23 -49,-106 -57,-135 11,-14 14,7 26,-42 -14,-11 -6,-4 -19,-18l-18 50 -20 -28 7 -13c1,15 -3,14 7,24 15,-8 27,-41 24,-59l-16 14c1,-19 29,-51 37,-71l-21 8c3,-15 37,-31 53,-53 41,-55 63,-110 85,-140 15,-21 22,-43 40,-67 19,16 12,40 18,66 -12,16 -14,4 -15,26 22,22 22,-4 24,44l19 11c-23,36 -9,47 -52,93 -12,14 -10,7 -29,9 -9,16 -18,60 -17,77zm-188 -10c20,-34 27,-57 49,-61 -3,35 -8,10 -28,35 -9,11 -14,28 -21,40 -6,-5 -13,-16 -14,-20l14 6zm13 28c-5,-11 -6,11 -2,-13 3,-17 31,-47 41,-56 -6,20 -25,53 -39,69zm319 144c34,3 20,-28 33,-57 9,-23 20,-40 30,-62 31,-68 17,-52 67,-113 73,-2 33,28 0,138 -19,64 -94,362 -120,380 0,0 -263,68 -288,63 -7,-25 7,-124 11,-155 7,-48 34,-85 63,-122 108,-143 63,-86 78,-193 3,-17 8,-66 13,-78 12,-2 39,15 49,27l52 108c2,20 4,46 12,64zm-353 -207c0,-1 -1,2 -2,2l2 -2zm700 583l83 92c-35,58 -75,256 -86,321 -3,18 -13,36 -14,52 -2,26 1,27 -9,53 -12,30 -7,87 -14,120 -8,34 -16,79 -20,114 -5,41 -10,82 -14,123 -3,35 10,106 -6,132 -15,0 -14,0 -26,-7 -17,-11 0,-3 -21,-5 -25,-1 -114,-41 -155,-40 -15,0 -11,3 -27,1l-94 -1c-48,0 -70,7 -114,17 2,-24 25,-32 3,-60 -22,-30 -78,4 -89,12l-65 62c-23,-7 -50,-31 -74,-40 -24,-11 -63,-8 -92,-11 -22,14 -40,30 -48,56l15 30c-17,13 -55,28 -76,32 -19,4 -33,18 -75,34 -21,8 -20,10 -36,20 -15,9 -20,3 -38,14 -23,13 -43,28 -69,34 -2,-28 -2,-63 -6,-89 -4,-28 -13,-49 -16,-80 -4,-55 -9,-111 -20,-165 -40,-204 44,-114 35,-179 -5,-37 -7,-37 7,-73 48,-118 26,-283 51,-323 12,-19 32,-29 43,-52 7,-16 3,-23 16,-43 46,-73 21,-79 83,-87 38,-5 93,-22 132,-31 48,-11 108,-22 157,-30 107,-17 202,-47 306,-68 104,-21 180,-56 288,-28l85 93zm73 32c-38,-28 -73,-78 -98,-100 -27,-24 -31,-54 -74,-59 -26,-3 -88,7 -108,8 -11,-20 6,-106 13,-130 8,-22 4,-36 10,-62 5,-24 11,-43 17,-66 10,-45 33,-78 47,-117 7,-21 35,-99 47,-113 18,1 8,9 30,5 16,-2 10,-2 28,-1 54,1 116,-11 150,-5 26,5 45,-6 70,3 0,12 -61,45 -74,61 -21,25 -36,56 -58,80 -47,55 -65,125 -53,195 12,65 34,146 79,198 26,30 81,74 119,87 20,6 32,8 50,19 -10,33 -41,93 -61,126l-103 181c-14,22 -28,21 -45,50 -19,31 -39,100 -66,120l30 -108c3,-14 -1,-21 -1,-30l17 -84c8,-34 24,-70 34,-103 26,-86 27,-62 42,-92l-42 -63zm-380 -133c9,-50 72,-218 83,-293 4,-27 55,-174 75,-202 15,-22 16,-42 55,-37 4,28 -29,98 -41,124l-61 189c-2,16 -11,50 -16,67 -21,78 -10,106 -17,137 -20,13 -52,17 -78,15zm-62 -607c39,-15 43,3 75,25 22,15 49,29 73,44 -10,11 -14,8 -21,18 -5,7 -9,18 -15,25 -11,16 -19,33 -27,51l-44 111c-18,-15 -9,-28 -23,-50 -9,-14 -17,-24 -24,-41 -20,-48 -24,-40 -56,-73l32 -54c8,-11 23,-43 30,-56zm-608 -211c-13,8 -6,4 -12,0 8,-4 -1,-8 12,0zm1 -30c-23,21 -47,7 -46,-18 20,-7 7,0 20,9 13,11 11,1 26,9zm34 -54l-6 48 -24 0c6,-12 15,-15 19,-27 3,-11 0,-10 1,-15 3,-16 -3,-5 10,-6zm207 10c-4,-5 -9,-15 -11,-20 10,6 15,8 24,13l-13 7zm-149 -4c-2,-3 1,1 0,0zm-40 -13c9,13 14,20 5,33l-5 -33zm-195 -12c6,8 24,59 20,92 -1,8 0,4 -2,8 -7,-8 -28,-79 -28,-81 -3,-19 10,-19 10,-19zm434 3c10,2 8,2 8,12 -11,-6 -7,-3 -8,-12zm30 -10l8 14c-13,7 -4,5 -16,2 -1,-11 0,-10 8,-16zm-506 11c0,-3 3,-8 5,0 1,6 -5,5 -5,0zm286 15c10,-26 58,-30 83,-27l-1 10c-21,-11 -36,0 -82,17zm-51 -32c18,3 20,9 14,25 -13,-11 -12,-9 -14,-25zm208 24c-14,-12 -19,-17 -10,-32l31 22 -21 10zm-274 -34l1 24c-36,20 -17,10 -35,5 -8,-3 -5,0 -14,-3 -15,-3 -4,-6 -26,-5l-8 15 40 67c-12,6 -31,2 -45,1 -17,-27 -17,-48 -14,-77 0,0 -8,-5 -8,-5l-6 -5 115 -17zm-175 14c14,-23 35,-33 30,4 -11,-4 -5,1 -13,-12 0,0 -6,5 -6,5 -6,3 -4,2 -11,3zm233 -6c-17,-8 -12,-3 -16,-16 16,1 14,-2 16,16zm-187 0c2,-13 6,-14 20,-15 19,-1 10,5 28,-2 0,0 -46,17 -48,17zm319 -50c13,-15 18,-11 36,-15 15,-2 26,-9 41,-11 -18,12 -56,17 -66,29 7,23 6,0 12,24 2,8 1,18 3,27 4,14 14,27 18,40 -23,2 -20,-21 -26,-44 -3,-8 -5,-21 -7,-28 -5,-14 -6,-8 -11,-22zm-199 31c-11,4 -13,2 -23,-4 0,0 14,-5 14,-5 14,1 4,-2 9,9zm343 -4c3,-2 -2,-17 15,-3 -9,13 -4,10 -15,3zm-293 -4c4,-3 5,-3 5,-3 7,-5 -1,8 -5,3zm-173 0c4,-13 12,-21 26,-22l3 19 -29 3zm359 6c-12,-17 -8,-14 4,-21 5,11 4,12 -4,21zm36 -29c13,-7 14,-5 27,-10 11,-4 11,-6 18,-10 -5,16 -3,9 -4,28 -16,8 -23,13 -40,11l-1 -19zm104 62c13,-68 -18,-72 -24,-91l18 -3 37 75c-7,9 -20,19 -31,19zm51 -104c13,-8 36,-11 49,-6 -13,8 -38,13 -49,6zm-550 -2c-13,-12 -20,-45 -12,-66 9,14 12,48 12,66zm627 -1c-3,-18 5,-25 16,-36 -1,11 -9,26 -16,36zm-641 -82c2,-4 3,9 -2,2l2 -2zm585 23l9 -21 23 -3 7 -18 24 3c15,-21 11,-23 37,-34 -3,17 -33,59 -45,78 -19,32 -48,31 -84,37 -14,-13 -21,-32 -41,-7 7,14 50,21 40,83 -16,-11 -19,-45 -27,-61 -33,-12 -79,21 -112,22 1,-21 -6,-17 42,-27 16,-4 35,-6 48,-16 -39,-5 -68,6 -103,16 -53,16 -77,12 -70,37l-16 10c6,17 17,25 16,37 -41,-12 -65,19 -92,27 -11,-21 -3,-36 -15,-58 -38,-19 -113,18 -159,11 -8,-16 -7,-7 -3,-24 23,-13 199,-25 244,-39l141 -45c56,-26 34,-9 54,-19 6,-3 13,-10 22,-16l60 27zm-8 -38c4,11 -4,2 -4,2 -1,-17 3,-6 4,-2zm104 18c2,-16 13,-32 23,-41 -2,13 -13,31 -23,41zm-665 -29c17,19 17,83 23,113 -13,-2 -10,-7 -12,-25 -2,-25 -16,-78 -11,-88zm25 -22c11,11 29,123 22,135 -19,-12 -28,-123 -22,-135zm67 131l-25 2c-9,-21 -14,-99 -21,-131l18 0c5,12 0,8 5,17 6,12 4,2 11,11 2,4 20,82 12,101zm619 -137c1,-11 2,-1 2,-1 2,0 -2,7 -2,1zm-721 -22c17,-7 48,-3 68,-6 28,-3 38,6 122,-6 40,-6 40,-14 54,-8 -22,16 -39,6 -63,15 -24,10 -107,15 -122,12 -50,-10 -49,11 -59,-7zm288 0c24,-22 75,-22 108,-35 21,-9 32,-8 55,-18 19,-9 28,-13 49,-20 90,-32 151,-100 178,-104 4,72 45,136 28,151 -15,7 -4,-4 -23,1 -23,5 -82,52 -102,59 -22,8 -22,-5 -38,17 -40,4 -34,5 -68,23 -16,9 -44,16 -62,24 -29,12 -116,34 -145,31 -8,-22 -10,-35 -14,-58 -5,-21 -2,-40 -22,-48 -9,20 20,73 16,110l-31 3c-9,-17 -14,-34 -17,-54 -2,-19 3,-46 -17,-49 -18,20 19,81 22,107 -18,7 -15,8 -37,8 -33,-47 -5,-103 -38,-108 -1,39 17,79 17,116l-24 -3c-8,-13 -11,-46 -13,-63 -4,-38 -13,-53 -10,-60 21,-7 60,1 83,-6 25,-8 53,-16 80,-18 8,13 18,36 21,52 4,19 11,35 16,55 9,-9 5,11 6,-12l-11 -42c-4,-21 -9,-36 -7,-59zm-24 -22c11,-10 20,-20 34,-9l-34 9zm53 -16c19,-9 49,-22 72,-21 -18,17 -16,4 -36,11 -11,3 -26,12 -36,10zm74 -21c21,-20 28,-11 53,-23 15,-8 33,-17 49,-25 15,-8 6,-8 24,-14 48,-16 29,-11 74,-33 -2,19 -2,9 -18,20 -27,17 -88,40 -124,57 -21,10 -32,15 -58,18zm354 -2c4,-26 -54,-112 -46,-133 23,26 44,100 57,134l-23 24c-21,-20 -36,-79 -38,-109 30,39 20,87 50,84zm-148 -97c11,-11 23,-18 34,-13 -8,10 -23,17 -34,13zm37 -18c-1,-1 1,-1 1,-1l-1 1zm-473 57c-6,4 -1,-3 -8,9 -20,32 -22,44 -22,82l-27 -2c1,-35 24,-56 25,-77 -53,-4 -18,89 -62,80 -3,-35 21,-56 22,-77 -25,-9 -35,42 -42,74l-34 -7c4,-21 19,-14 31,-27 10,-11 6,-26 19,-41 14,-16 15,-22 25,-36 7,-8 20,-21 29,-31 56,-65 116,-80 141,-101l-3 -19c39,-21 157,-30 202,-27 31,2 54,12 83,22 19,8 16,10 31,19 17,9 4,2 10,15 26,12 34,8 52,37 12,20 -15,43 -32,23 -25,-31 -57,-60 -97,-75l-10 19c14,11 36,19 53,32 20,16 23,30 40,41 0,0 -2,2 -2,2 -1,1 -2,2 -3,3l-63 32c-8,4 -15,11 -20,14 -23,11 -21,0 -49,21 -17,13 -1,7 -22,11 -12,2 -15,3 -27,7 -13,-20 -50,-87 -75,-91 -27,31 53,40 66,96 -14,7 -34,19 -49,20 -18,-23 -27,-100 -64,-94 -4,29 11,12 26,42 6,12 17,41 19,55 -10,6 -71,20 -86,21 2,-20 9,-88 -12,-94 7,33 -5,42 -2,99l-28 3c-3,-53 14,-80 21,-125 -8,4 -5,-4 -14,14 -19,39 -18,85 -26,117l-29 2c-3,-42 9,-54 13,-88z"/>
   </g>
   <g>
    <path class="fil0" d="M1430 2061c-1,-1 2,1 0,0zm-239 37c-7,-29 35,-275 48,-320 11,-35 2,-31 39,-38 33,-6 85,-25 115,-25 -1,26 -35,146 -43,182 -7,34 -10,184 -30,199 -21,-4 -8,-8 -21,-25 -45,0 -76,52 -108,27zm472 -450c0,-1 -1,1 -2,1l2 -1zm-221 401c-12,-14 5,-60 9,-85 3,-24 9,-62 14,-84l41 -171c2,-2 143,-59 144,-59 25,4 42,-5 73,-8 31,-3 62,-17 77,6 10,-10 5,-16 21,-15 5,15 -43,155 -50,186 -6,32 -29,195 -35,206 -58,9 -173,-3 -233,13 -17,5 -48,20 -61,11zm355 -395c-29,-3 -191,26 -220,48 -19,14 -53,19 -60,32 13,2 62,-7 74,-14l141 -34c25,1 16,-5 31,-8 19,-4 14,5 31,8l3 -32zm404 69c-15,30 -16,6 -42,92 -10,33 -26,69 -34,103l-17 84c0,9 4,16 1,30l-30 108c27,-20 47,-89 66,-120 17,-29 31,-28 45,-50l103 -181c20,-33 51,-93 61,-126 -18,-11 -30,-13 -50,-19 -38,-13 -93,-57 -119,-87 -45,-52 -67,-133 -79,-198 -12,-70 6,-140 53,-195 22,-24 37,-55 58,-80 13,-16 74,-49 74,-61 -25,-9 -44,2 -70,-3 -34,-6 -96,6 -150,5 -18,-1 -12,-1 -28,1 -22,4 -12,-4 -30,-5 -12,14 -40,92 -47,113 -14,39 -37,72 -47,117 -6,23 -12,42 -17,66 -6,26 -2,40 -10,62 -7,24 -24,110 -13,130 20,-1 82,-11 108,-8 43,5 47,35 74,59 25,22 60,72 98,100 17,13 36,46 42,63l0 0zm-115 -95c-32,-43 -62,-87 -85,-93 -108,-28 -184,7 -288,28 -104,21 -199,51 -306,68 -49,8 -109,19 -157,30 -39,9 -94,26 -132,31 -62,8 -37,14 -83,87 -13,20 -9,27 -16,43 -11,23 -31,33 -43,52 -25,40 -3,205 -51,323 -14,36 -12,36 -7,73 9,65 -75,-25 -35,179 11,54 16,110 20,165 3,31 12,52 16,80 4,26 4,61 6,89 26,-6 46,-21 69,-34 18,-11 23,-5 38,-14 16,-10 15,-12 36,-20 42,-16 56,-30 75,-34 21,-4 59,-19 76,-32l-15 -30c8,-26 26,-42 48,-56 29,3 68,0 92,11 24,9 51,33 74,40l65 -62c11,-8 67,-42 89,-12 22,28 -1,36 -3,60 44,-10 66,-17 114,-17l94 1c16,2 12,-1 27,-1 41,-1 130,39 155,40 21,2 4,-6 21,5 12,7 11,7 26,7 16,-26 3,-97 6,-132 4,-41 9,-82 14,-123 4,-35 12,-80 20,-114 7,-33 2,-90 14,-120 10,-26 7,-27 9,-53 1,-16 11,-34 14,-52 11,-65 51,-263 86,-321l-83 -92z"/>
   </g>
   <path class="fil0" d="M669 3274c12,-5 4,-6 13,1 -14,10 -7,3 -13,-1zm25 -35c1,-1 2,1 2,2 0,1 1,1 1,1 0,0 -10,7 -3,-3zm-216 -795c0,0 1,0 0,0zm4 -21c0,-1 0,0 0,0zm217 -15c10,-5 0,-7 15,-1 -17,13 -5,7 -15,1zm-23 -95c10,-8 44,-13 58,-9 46,14 62,33 87,69 15,22 17,33 13,60 -10,-10 -61,-103 -117,-103 -23,-1 -33,13 -41,-17zm-202 56l13 16 -21 16c-23,111 84,235 131,329 31,60 113,161 131,219 4,12 26,82 28,86 13,-19 14,-48 47,-49l9 19c-25,26 -21,-3 -36,60 -28,111 29,184 24,249 -44,21 -28,8 -63,-8 -21,-9 -45,-25 -50,-46 10,-7 14,-4 20,-10 6,-4 6,-12 11,-19 16,-25 14,-10 13,-47 -5,3 -2,1 -7,6 -33,35 -40,14 -49,63 -4,21 -4,8 -10,20l-9 69 65 39 -14 13c15,18 59,34 78,49 -1,22 -3,0 -7,19l9 5c12,-11 8,-45 11,-64 11,-73 38,-139 35,-236 -1,-37 20,-102 24,-146 3,-40 35,-117 31,-147 -14,-14 -18,-4 -25,-28 4,-13 4,-5 9,-14 15,-28 -12,-16 32,-35 17,-57 -11,-61 -13,-91 -2,-31 -3,-65 -6,-95 -9,-13 -16,-11 -21,-22 -2,-5 -19,-84 -42,-90 10,17 30,45 16,58 -17,-53 -15,-48 -61,-76 -18,-11 -19,-24 -28,-40 -4,-6 -11,-13 -17,-18 -16,-13 -13,-4 -14,-19 23,11 36,-4 55,12 -12,5 -16,1 -30,-1 5,15 14,19 26,30 15,-2 2,2 16,-6l33 35c49,-6 20,28 56,41 -4,-21 -9,-46 -14,-69 -5,-20 -20,-45 -21,-60 -1,-18 37,-104 43,-127 -21,-16 -33,-34 -60,-42 -24,-7 -55,-20 -80,-24 -63,-12 -127,-23 -193,-17 -16,24 -26,68 -35,97 -11,34 -36,68 -40,96z"/>
   <path class="fil0" d="M2424 1664c-27,-137 37,-203 74,-291 12,-30 65,-76 89,-101 32,-33 72,-56 106,-86 -6,-12 -95,-81 -113,-94 -36,-25 -106,-46 -149,-62 -46,-17 -34,-14 -75,-1 -15,4 -27,2 -41,10 -15,8 -77,53 -90,70 -16,20 -27,49 -41,67 -20,25 -31,22 -44,59 -14,41 -18,43 -16,90 2,58 13,118 41,170 14,27 75,94 100,111 28,18 120,42 159,58z"/>
   <path class="fil0" d="M572 1934l94 3c74,-4 105,15 142,13 28,-1 23,4 47,10 20,4 70,25 84,22l4 -44 -21 -15c1,-1 19,-39 20,-41 6,-12 19,-12 33,-32 63,-94 39,-84 32,-103 -4,-11 -1,-14 -6,-24 -8,-14 -18,-21 -24,-40 -14,-45 -58,-215 -62,-258 -2,-24 8,-30 2,-57 -47,2 -132,147 -149,185 -31,68 -95,167 -120,225 -12,28 -21,52 -39,77 -13,19 -33,56 -37,79z"/>
   <path class="fil0" d="M1755 2827c-53,-2 -88,5 -73,56 10,39 17,81 32,119 36,91 55,253 89,372 25,87 8,66 64,41 42,-20 76,-19 116,-35 42,-16 94,-14 115,-21l-82 -269 -261 -263z"/>
   <path class="fil0" d="M1521 1412c39,-30 83,48 37,74 -25,14 -39,-3 -52,-23 -15,-23 -7,-35 15,-51zm218 -160c-8,-18 -10,-44 -12,-64l-52 -108c-10,-12 -37,-29 -49,-27 -5,12 -10,61 -13,78 -15,107 30,50 -78,193 -29,37 -56,74 -63,122 -4,31 -18,130 -11,155 25,5 288,-63 288,-63 26,-18 101,-316 120,-380 33,-110 73,-140 0,-138 -50,61 -36,45 -67,113 -10,22 -21,39 -30,62 -13,29 1,60 -33,57z"/>
   <path class="fil0" d="M3489 1804c15,25 22,4 26,30 -13,4 -24,2 -35,-3 -5,-16 -1,-17 9,-27zm-86 -23c14,-1 1,4 15,2 9,-1 -2,-9 16,-1 3,12 -1,17 -9,28 -9,-2 -16,-1 -22,-10 -14,-19 -1,-17 0,-19zm-148 -64c-14,-14 -1,4 -25,-2l-8 -16 28 -8 5 26zm273 -42l28 9c-7,16 -12,16 -32,10l4 -19zm-64 -44c-5,13 -11,14 -27,18 -15,-8 -9,-1 -18,-13 12,-17 29,-13 45,-5zm-226 -72c17,4 7,-4 25,4l-9 19c-16,5 -51,-5 -39,-30 6,2 16,6 23,7zm-101 -13c14,40 25,3 23,68 -3,66 -32,86 -84,126 -56,44 -48,25 -68,40 -3,58 107,91 105,135 -20,-26 -40,-39 -67,-53 1,24 6,13 23,35 30,38 101,59 114,54 32,-26 25,-16 62,-29 66,-23 28,-29 64,-27l-8 19c18,-5 7,-7 22,2 -11,16 -13,6 -22,21 16,18 82,20 108,22 -8,-13 -14,-10 -20,-21 -8,-15 7,-4 -9,-26 -11,6 -19,7 -32,12 -16,-17 -14,-21 -35,-33 9,-23 5,-15 21,-31 4,8 3,32 13,38 15,3 48,-7 58,-14 25,-18 22,-37 50,-37 7,32 -21,40 -53,73 46,37 84,-16 99,-57l19 -7 12 -52c11,-28 68,-147 61,-164l-29 -27c-71,4 -69,75 -80,130 -3,13 -9,53 -13,60l-10 0c-21,-28 47,-186 36,-210 -15,-15 -14,-19 -38,-22 -16,-2 -7,-2 -21,1 -19,5 -3,0 -26,-1 -12,30 -20,97 -28,133 -6,29 -16,38 -10,69 4,21 -1,41 -21,50l-13 -21c-14,20 -1,15 -8,39 -3,10 -8,20 -14,29 -12,21 -8,10 -24,19 -14,9 -7,17 -28,10 17,-17 7,4 16,-13l-38 7c-16,-14 -3,-14 -26,-11 9,17 16,18 3,36 -10,-3 -48,-54 -51,-67l12 -18c23,11 12,20 43,28 27,8 35,11 66,8 15,-8 44,-64 -13,-95 -32,-17 -75,-26 -107,-49 -40,-10 -74,69 -82,76 -4,-4 -9,-4 -6,-16 4,-19 40,-98 90,-82 0,-22 6,-35 8,-57 3,-22 -6,-39 7,-49 32,19 1,99 10,116 13,13 56,35 74,34 17,-27 7,-32 -2,-55 -9,-25 38,-151 27,-170 -12,-12 -26,-11 -42,-22 -19,-13 -23,-21 -46,-10 -23,11 -21,5 -38,26 -13,16 -25,14 -34,30z"/>
   <path class="fil0" d="M600 1964c-122,-7 -106,13 -167,137 -6,13 -17,25 -25,40 -7,14 -41,75 -42,83 16,-24 86,-49 114,-58 81,-27 283,1 359,38 23,12 41,30 55,37 11,-39 48,-197 42,-229 -18,-12 -45,-22 -67,-27 -19,-5 -20,1 -39,-9 -17,-9 -15,-9 -35,-12 -56,-7 -127,-14 -182,-11l-13 11z"/>
   <path class="fil0" d="M1338 1199c6,-10 24,-90 55,-49 -17,33 -18,-24 -31,76 -2,16 -6,31 -5,48 1,27 15,20 8,38 -35,16 -39,-49 -42,-71l-14 -109c-8,4 -12,5 -19,21 -28,65 -24,110 -32,160 -9,53 -21,167 -32,202l-12 133c34,2 73,-8 105,-18 33,-10 74,-13 109,-19 18,-62 14,-188 39,-230l33 -60c-22,-54 -33,-95 -60,-148 -13,-25 -35,-38 -49,-55 -13,-15 -35,-53 -48,-59 0,30 -15,116 -5,140z"/>
   <path class="fil0" d="M893 3332l-20 -16c11,-14 50,-57 43,-76l-59 84c13,33 -2,15 -3,88 -1,28 -1,82 -4,107 -6,34 -8,69 -6,104 2,32 7,65 8,95 12,-7 9,-11 25,-22 11,-7 20,-14 28,-23 23,-24 38,-19 50,-48 19,-5 28,-8 44,-18 11,-6 32,-13 41,-18 -5,-85 -25,-72 -7,-215 8,-63 5,-172 13,-242l18 -135c-14,-1 -27,8 -38,16 -43,34 -15,56 -29,100l-82 178c-8,14 -11,27 -22,41z"/>
   <path class="fil0" d="M1249 260c3,8 -6,6 -6,3 -1,-17 4,-10 6,-3zm144 -84c0,0 -81,-36 -88,-66 11,-10 18,1 36,10 26,13 76,59 78,84 -10,-9 -17,-21 -26,-28zm65 -14c-13,-8 -29,-39 -50,-52 -20,-12 -58,-19 -69,-29 28,-4 103,22 119,43 25,32 12,11 27,25 -12,5 -6,2 -21,-6l-4 12c-1,4 1,2 -2,7zm-195 -118l-14 4 14 -4zm141 -8c15,-5 17,-2 24,10l-24 -10zm-115 2c13,-10 33,-8 49,-9 18,-2 27,-6 43,6l-92 3zm-80 8l3 19c-25,21 -85,36 -141,101 -9,10 -22,23 -29,31 -10,14 -11,20 -25,36 -13,15 -9,30 -19,41 -12,13 -27,6 -31,27l34 7c7,-32 17,-83 42,-74 -1,21 -25,42 -22,77 44,9 9,-84 62,-80 -1,21 -24,42 -25,77l27 2c0,-38 2,-50 22,-82 7,-12 2,-5 8,-9 -4,34 -16,46 -13,88l29 -2c8,-32 7,-78 26,-117 9,-18 6,-10 14,-14 -7,45 -24,72 -21,125l28 -3c-3,-57 9,-66 2,-99 21,6 14,74 12,94 15,-1 76,-15 86,-21 -2,-14 -13,-43 -19,-55 -15,-30 -30,-13 -26,-42 37,-6 46,71 64,94 15,-1 35,-13 49,-20 -13,-56 -93,-65 -66,-96 25,4 62,71 75,91 12,-4 15,-5 27,-7 21,-4 5,2 22,-11 28,-21 26,-10 49,-21 5,-3 12,-10 20,-14l63 -32c1,-1 2,-2 3,-3 0,0 2,-2 2,-2 -17,-11 -20,-25 -40,-41 -17,-13 -39,-21 -53,-32l10 -19c40,15 72,44 97,75 17,20 44,-3 32,-23 -18,-29 -26,-25 -52,-37 -6,-13 7,-6 -10,-15 -15,-9 -12,-11 -31,-19 -29,-10 -52,-20 -83,-22 -45,-3 -163,6 -202,27z"/>
   <path class="fil0" d="M931 1351c3,40 2,74 9,114 6,34 51,214 70,236 11,13 9,25 22,43 17,-14 32,-55 48,-75 17,3 6,2 20,9l17 -8c13,-57 2,-185 24,-235 16,-35 51,-179 55,-218 -20,1 -21,12 -64,36 -42,23 -100,46 -132,66 -23,14 -33,13 -52,22l-17 10z"/>
   <path class="fil0" d="M1242 338c-2,23 3,38 7,59l11 42c-1,23 3,3 -6,12 -5,-20 -12,-36 -16,-55 -3,-16 -13,-39 -21,-52 -27,2 -55,10 -80,18 -23,7 -62,-1 -83,6 -3,7 6,22 10,60 2,17 5,50 13,63l24 3c0,-37 -18,-77 -17,-116 33,5 5,61 38,108 22,0 19,-1 37,-8 -3,-26 -40,-87 -22,-107 20,3 15,30 17,49 3,20 8,37 17,54l31 -3c4,-37 -25,-90 -16,-110 20,8 17,27 22,48 4,23 6,36 14,58 29,3 116,-19 145,-31 18,-8 46,-15 62,-24 34,-18 28,-19 68,-23 16,-22 16,-9 38,-17 20,-7 79,-54 102,-59 19,-5 8,6 23,-1 17,-15 -24,-79 -28,-151 -27,4 -88,72 -178,104 -21,7 -30,11 -49,20 -23,10 -34,9 -55,18 -33,13 -84,13 -108,35z"/>
   <path class="fil0" d="M1512 1762c-22,54 -47,209 -53,270 45,-11 5,-20 125,-22 36,-1 104,1 136,-5 8,-53 16,-111 27,-162 9,-42 38,-114 42,-150 -6,14 -44,9 -66,13l-211 56z"/>
   <path class="fil0" d="M1490 1016c-8,20 -36,52 -37,71l16 -14c3,18 -9,51 -24,59 -10,-10 -6,-9 -7,-24l-7 13 20 28 18 -50c13,14 5,7 19,18 -12,49 -15,28 -26,42 8,29 40,112 57,135 34,-32 63,-72 67,-120 4,-32 13,-52 9,-84 -1,-17 8,-61 17,-77 19,-2 17,5 29,-9 43,-46 29,-57 52,-93l-19 -11c-2,-48 -2,-22 -24,-44 1,-22 3,-10 15,-26 -6,-26 1,-50 -18,-66 -18,24 -25,46 -40,67 -22,30 -44,85 -85,140 -16,22 -50,38 -53,53l21 -8z"/>
   <path class="fil0" d="M2673 1406l-26 17c-18,-7 -9,-16 -40,-10 -5,20 -2,26 -13,48l-51 134c-6,21 -14,163 -14,201 0,16 1,16 12,21 9,-14 57,-179 72,-224 40,-1 33,5 68,15 38,12 20,-6 58,18 10,-11 30,-84 34,-103 -19,-6 -84,-28 -96,-39l3 -23 26 0c33,-87 11,-95 6,-115 -4,-13 5,-17 -11,-29 -14,9 -16,24 -25,41 -17,33 0,18 -3,48z"/>
   <path class="fil1" d="M2005 3039c-57,-28 -61,-38 -105,-68 -31,-21 -117,-125 -125,-161 6,8 25,10 54,60 21,36 24,35 53,63 18,17 6,14 30,30 17,11 15,16 27,29 19,22 53,33 66,47zm-250 -212l261 263 82 269c-21,7 -73,5 -115,21 -40,16 -74,15 -116,35 -56,25 -39,46 -64,-41 -34,-119 -53,-281 -89,-372 -15,-38 -22,-80 -32,-119 -15,-51 20,-58 73,-56zm65 630c4,0 197,-64 227,-70 149,-31 73,14 37,-147 -10,-41 -25,-79 -31,-120 -8,-51 18,-72 -19,-92 -56,-29 -129,-89 -169,-139 -67,-83 -51,-121 -142,-84 -105,41 -87,11 -35,175 23,71 108,455 132,477z"/>
   <path class="fil0" d="M2951 1567c32,0 29,28 49,50 23,-3 29,-7 35,20 4,17 12,40 12,55 -30,4 -15,-2 -38,-20 -16,-12 -22,-6 -22,-30 -1,-40 -34,-26 -36,-75zm14 -21l16 -16c-31,17 -11,10 -28,26 -11,11 -20,11 -33,28 -41,47 -28,65 -10,109 12,26 -14,8 34,48 27,23 62,12 89,-5 55,-34 104,-65 81,-138 -9,-31 -27,-53 -59,-63 -47,-14 -70,20 -90,11z"/>
   <path class="fil1" d="M1723 1706c22,-4 60,1 66,-13 -4,36 -33,108 -42,150 -11,51 -19,109 -27,162 -32,6 -100,4 -136,5 -120,2 -80,11 -125,22 6,-61 31,-216 53,-270l211 -56zm71 -20c-17,-3 -12,-12 -31,-8 -15,3 -6,9 -31,8l-141 34c-12,7 -61,16 -74,14 7,-13 41,-18 60,-32 29,-22 191,-51 220,-48l-3 32zm-352 363c13,9 44,-6 61,-11 60,-16 175,-4 233,-13 6,-11 29,-174 35,-206 7,-31 55,-171 50,-186 -16,-1 -11,5 -21,15 -15,-23 -46,-9 -77,-6 -31,3 -48,12 -73,8 -1,0 -142,57 -144,59l-41 171c-5,22 -11,60 -14,84 -4,25 -21,71 -9,85z"/>
   <path class="fil0" d="M1473 410c-9,6 -16,13 -22,16 -20,10 2,-7 -54,19l-141 45c-45,14 -221,26 -244,39 -4,17 -5,8 3,24 46,7 121,-30 159,-11 12,22 4,37 15,58 27,-8 51,-39 92,-27 1,-12 -10,-20 -16,-37l16 -10c-7,-25 17,-21 70,-37 35,-10 64,-21 103,-16 -13,10 -32,12 -48,16 -48,10 -41,6 -42,27 33,-1 79,-34 112,-22 8,16 11,50 27,61 10,-62 -33,-69 -40,-83 20,-25 27,-6 41,7 36,-6 65,-5 84,-37 12,-19 42,-61 45,-78 -26,11 -22,13 -37,34l-24 -3 -7 18 -23 3 -9 21 -60 -27z"/>
   <path class="fil0" d="M1208 2082c19,-5 24,-18 47,-25 19,-6 41,-4 59,-10 10,-32 13,-134 30,-203l18 -68c-135,30 -107,-1 -127,102 -13,71 -19,133 -27,204z"/>
   <path class="fil0" d="M1779 1527c26,2 58,-2 78,-15 7,-31 -4,-59 17,-137 5,-17 14,-51 16,-67l61 -189c12,-26 45,-96 41,-124 -39,-5 -40,15 -55,37 -20,28 -71,175 -75,202 -11,75 -74,243 -83,293z"/>
   <path class="fil0" d="M1717 920c-7,13 -22,45 -30,56l-32 54c32,33 36,25 56,73 7,17 15,27 24,41 14,22 5,35 23,50l44 -111c8,-18 16,-35 27,-51 6,-7 10,-18 15,-25 7,-10 11,-7 21,-18 -24,-15 -51,-29 -73,-44 -32,-22 -36,-40 -75,-25z"/>
   <path class="fil1" d="M1208 2082c8,-71 14,-133 27,-204 20,-103 -8,-72 127,-102l-18 68c-17,69 -20,171 -30,203 -18,6 -40,4 -59,10 -23,7 -28,20 -47,25zm50 -316c5,-4 103,-25 108,-25 0,22 -35,27 -54,29 -20,1 -47,16 -54,-4zm-67 332c32,25 63,-27 108,-27 13,17 0,21 21,25 20,-15 23,-165 30,-199 8,-36 42,-156 43,-182 -30,0 -82,19 -115,25 -37,7 -28,3 -39,38 -13,45 -55,291 -48,320z"/>
   <path class="fil0" d="M2694 1841l16 -12c15,6 22,6 34,-8 7,-9 5,-11 10,-20 0,0 57,-78 56,-90l-10 -17c8,-19 22,-45 24,-62 4,-25 9,-50 18,-73 -7,-14 -23,-23 -38,-27 -25,3 -41,91 -42,115 -1,15 -11,15 -18,32 -9,22 -53,148 -50,162z"/>
   <path class="fil0" d="M3346 1741c-4,14 -5,10 -20,10 -9,-9 -12,-11 -9,-25 18,13 18,5 29,15zm-7 -119c-27,-30 0,-26 27,-21l-5 21 -22 0zm-29 -72c-8,37 -4,75 -8,111l-18 94c34,26 15,-19 58,43 16,-10 10,-11 22,-24l-13 -11c2,-17 11,-42 14,-58l25 -108c5,-15 18,-39 20,-52 -13,-9 -31,-16 -50,-17 -30,0 -12,7 -50,22z"/>
   <path class="fil1" d="M1318 874c21,-11 46,-4 75,-24 15,-11 39,-38 52,-41 -4,22 -4,41 -35,67 -5,4 -61,27 -68,29l-24 -31zm-1 38c-14,18 -30,12 -30,30 1,28 23,9 33,3 26,-16 109,-22 141,-109 7,-19 12,-29 11,-48 -2,-26 10,-28 -6,-42 -20,8 -12,16 -23,29 -7,8 -21,14 -31,26 -55,64 -155,33 -159,64 -4,24 41,7 64,47z"/>
   <path class="fil0" d="M3550 1854c15,19 97,45 127,51 1,1 192,79 214,79l-2 -35c-37,-21 -285,-109 -322,-111l-17 16z"/>
   <path class="fil0" d="M2850 1454c16,9 22,6 32,17 -26,4 -32,-7 -53,3 23,22 52,20 55,21 7,2 9,5 22,8 20,4 29,16 46,11l49 -16c-11,-10 -11,-6 -18,-11 -6,-4 -7,-8 -15,-15l-93 -84 -25 66z"/>
   <path class="fil0" d="M2693 1773c20,-34 32,-86 34,-125 -16,-3 -40,-18 -97,-27 4,22 10,68 18,85 5,11 35,60 45,67z"/>
   <path class="fil0" d="M2575 1795c21,2 35,6 55,10 28,5 26,4 39,23l17 -28c-69,-80 -44,-51 -68,-125 -4,-13 -1,-4 -5,-11 -8,38 -37,95 -38,131z"/>
   <path class="fil0" d="M3696 1822c20,16 66,21 109,37 23,9 87,38 108,32l3 -13c-14,-19 -63,-27 -86,-32 -47,-9 -118,-41 -176,-56 -23,-6 -53,-32 -78,-35l-8 17c23,8 80,21 93,40 27,-5 26,2 50,10l-15 0z"/>
   <path class="fil0" d="M3560 1790l-2 17c30,8 16,-1 43,15 35,22 70,24 107,35 7,3 12,7 21,9 51,16 136,68 173,64 5,-34 -24,-20 -76,-45 -12,-5 -32,-11 -45,-15 -20,-7 -30,-16 -45,-20l-89 -27c-18,-6 -76,-34 -87,-33z"/>
   <path class="fil1" d="M1667 451c-8,19 -15,30 -6,49 24,-9 11,-19 28,-21 8,16 3,26 3,45 -21,12 -23,-3 -31,78 42,17 36,28 50,-67 6,-40 16,-106 -44,-84z"/>
   <path class="fil0" d="M2827 1674c23,13 20,34 49,26 -3,-26 -15,-74 -6,-97 12,-33 36,-50 46,-70 -16,-11 -29,-13 -46,-7 -11,20 3,10 -7,31 -7,15 -9,22 -13,38 -7,25 -18,55 -23,79z"/>
   <path class="fil1" d="M676 2313c8,30 18,16 41,17 56,0 107,93 117,103 4,-27 2,-38 -13,-60 -25,-36 -41,-55 -87,-69 -14,-4 -48,1 -58,9z"/>
   <path class="fil0" d="M979 600l6 5c0,0 8,5 8,5 -3,29 -3,50 14,77 14,1 33,5 45,-1l-40 -67 8 -15c22,-1 11,2 26,5 9,3 6,0 14,3 18,5 -1,15 35,-5l-1 -24 -115 17z"/>
   <path class="fil1" d="M1541 1460c-14,-9 -13,-4 -7,-20 18,-3 6,-4 19,11l-12 9zm-20 -48c-22,16 -30,28 -15,51 13,20 27,37 52,23 46,-26 2,-104 -37,-74z"/>
   <path class="fil0" d="M2765 1490c17,12 12,5 30,-5 11,17 -1,18 24,28 11,5 29,14 37,11l2 -18c-19,-10 -32,-1 -48,-13l6 -47 20 -2c8,-18 6,-16 9,-35 2,-13 10,-21 15,-31 -43,9 -82,92 -95,112z"/>
   <path class="fil1" d="M1300 817c-6,-16 -33,-23 -51,-30 -4,-33 6,-84 -14,-107 -10,20 -22,119 -5,137 13,13 8,5 22,7 18,3 35,13 48,-7z"/>
   <path class="fil1" d="M3000 1617c-20,-22 -17,-50 -49,-50 2,49 35,35 36,75 0,24 6,18 22,30 23,18 8,24 38,20 0,-15 -8,-38 -12,-55 -6,-27 -12,-23 -35,-20z"/>
   <path class="fil0" d="M922 2823c21,2 69,-38 111,-52 21,-7 21,-14 37,-19 22,-8 140,-62 146,-75 -10,3 -26,11 -37,15 -43,17 -54,12 -120,48 -23,13 1,-6 -37,20 -12,8 -23,14 -36,19 -18,7 -61,25 -64,44z"/>
   <path class="fil0" d="M1318 874l24 31c7,-2 63,-25 68,-29 31,-26 31,-45 35,-67 -13,3 -37,30 -52,41 -29,20 -54,13 -75,24z"/>
   <path class="fil0" d="M1031 499l25 -2c8,-19 -10,-97 -12,-101 -7,-9 -5,1 -11,-11 -5,-9 0,-5 -5,-17l-18 0c7,32 12,110 21,131z"/>
   <path class="fil0" d="M1236 2607c10,29 18,55 55,54 -28,-17 -45,-11 -35,-55 92,-16 40,-5 86,13 29,11 51,45 81,21 -5,-16 -18,-11 -38,-21 -74,-38 -37,-22 -99,-29 -23,-3 -36,0 -50,17z"/>
   <path class="fil0" d="M2005 3039c-13,-14 -47,-25 -66,-47 -12,-13 -10,-18 -27,-29 -24,-16 -12,-13 -30,-30 -29,-28 -32,-27 -53,-63 -29,-50 -48,-52 -54,-60 8,36 94,140 125,161 44,30 48,40 105,68z"/>
   <path class="fil0" d="M1442 2632c13,-6 1,4 12,-10 26,2 42,-2 60,-17 21,-16 37,-12 39,-42 -35,-9 -108,36 -111,69z"/>
   <path class="fil0" d="M4141 2012c-64,-50 -26,-13 -82,-40 -20,-10 -71,-19 -98,-28l11 7c5,4 3,1 10,7 18,14 41,28 64,32 28,4 72,32 95,22z"/>
   <path class="fil0" d="M2732 1425l-13 55 31 9c7,-49 39,-48 35,-88l-53 24z"/>
   <path class="fil0" d="M1699 277c-30,3 -20,-45 -50,-84 2,30 17,89 38,109l23 -24c-13,-34 -34,-108 -57,-134 -8,21 50,107 46,133z"/>
   <path class="fil0" d="M1620 2609c19,15 13,0 59,1 40,2 164,17 187,10 -32,-23 -147,-19 -184,-15 -21,2 -48,-1 -62,4z"/>
   <path class="fil0" d="M1347 2894l19 -50c9,-26 6,-53 37,-101 10,-15 19,-31 25,-48 -58,51 -59,87 -75,142 -3,10 -11,47 -6,57z"/>
   <path class="fil1" d="M1458 162c3,-5 1,-3 2,-7l4 -12c15,8 9,11 21,6 -15,-14 -2,7 -27,-25 -16,-21 -91,-47 -119,-43 11,10 49,17 69,29 21,13 37,44 50,52z"/>
   <path class="fil1" d="M1305 110c7,30 88,66 88,66 9,7 16,19 26,28 -2,-25 -52,-71 -78,-84 -18,-9 -25,-20 -36,-10z"/>
   <path class="fil0" d="M954 338c10,18 9,-3 59,7 15,3 98,-2 122,-12 24,-9 41,1 63,-15 -14,-6 -14,2 -54,8 -84,12 -94,3 -122,6 -20,3 -51,-1 -68,6z"/>
   <path class="fil0" d="M3925 1956c-18,9 -17,13 -18,33l14 4c14,-16 28,-81 31,-106l-12 -8c-17,17 -7,17 -12,36 -7,29 -8,8 -3,41z"/>
   <path class="fil0" d="M1345 279c26,-3 37,-8 58,-18 36,-17 97,-40 124,-57 16,-11 16,-1 18,-20 -45,22 -26,17 -74,33 -18,6 -9,6 -24,14 -16,8 -34,17 -49,25 -25,12 -32,3 -53,23z"/>
   <path class="fil0" d="M726 3270c10,14 27,17 43,29 6,-30 4,-42 -17,-76 -6,9 -25,39 -26,47z"/>
   <path class="fil0" d="M1886 2626c-1,1 53,15 91,39 28,18 12,-2 39,26 9,9 11,5 19,15 14,18 -1,8 9,24 18,-37 -21,-58 -52,-72 -14,-6 -97,-35 -106,-32z"/>
   <path class="fil0" d="M1468 2657c57,-3 51,76 45,94 -4,15 -13,15 -14,35 19,-11 20,-16 25,-38 10,-49 21,-56 -16,-79 -17,-10 -12,-12 -25,-22 -14,2 -11,-1 -15,10z"/>
   <path class="fil0" d="M438 2338l23 -30c1,26 -13,25 -11,57l26 -59 -12 -6c16,-15 33,-62 37,-86 -5,4 -4,2 -9,11 -4,6 -6,12 -8,17 -14,25 -42,72 -46,96z"/>
   <path class="fil0" d="M1258 1766c7,20 34,5 54,4 19,-2 54,-7 54,-29 -5,0 -103,21 -108,25z"/>
   <path class="fil0" d="M416 2331c22,-6 35,-48 44,-69 5,-14 28,-60 36,-73 -21,9 -75,115 -80,142z"/>
   <path class="fil0" d="M1011 501c7,-12 -11,-124 -22,-135 -6,12 3,123 22,135z"/>
   <path class="fil0" d="M1461 603c11,0 24,-10 31,-19l-37 -75 -18 3c6,19 37,23 24,91z"/>
   <path class="fil0" d="M985 706c2,-4 1,0 2,-8 4,-33 -14,-84 -20,-92 0,0 -13,0 -10,19 0,2 21,73 28,81z"/>
   <path class="fil0" d="M1284 541c5,14 6,8 11,22 2,7 4,20 7,28 6,23 3,46 26,44 -4,-13 -14,-26 -18,-40 -2,-9 -1,-19 -3,-27 -6,-24 -5,-1 -12,-24 10,-12 48,-17 66,-29 -15,2 -26,9 -41,11 -18,4 -23,0 -36,15z"/>
   <path class="fil0" d="M1283 2628c12,14 56,31 70,21 -16,-15 -21,-3 -29,-29 -19,-2 -26,-5 -41,8z"/>
   <path class="fil0" d="M987 501c-6,-30 -6,-94 -23,-113 -5,10 9,63 11,88 2,18 -1,23 12,25z"/>
   <path class="fil1" d="M3254 1582l9 -19c-18,-8 -8,0 -25,-4 -7,-1 -17,-5 -23,-7 -12,25 23,35 39,30z"/>
   <path class="fil0" d="M1357 541l1 19c17,2 24,-3 40,-11 1,-19 -1,-12 4,-28 -7,4 -7,6 -18,10 -13,5 -14,3 -27,10z"/>
   <path class="fil1" d="M3403 1781c-1,2 -14,0 0,19 6,9 13,8 22,10 8,-11 12,-16 9,-28 -18,-8 -7,0 -16,1 -14,2 -1,-3 -15,-2z"/>
   <path class="fil0" d="M2930 1399c21,18 38,46 63,55 -11,-12 -14,-22 -26,-33 -11,-10 -16,-21 -29,-31l-8 9z"/>
   <path class="fil0" d="M1407 1080l-14 -6c1,4 8,15 14,20 7,-12 12,-29 21,-40 20,-25 25,0 28,-35 -22,4 -29,27 -49,61z"/>
   <path class="fil1" d="M3339 1622l22 0 5 -21c-27,-5 -54,-9 -27,21z"/>
   <path class="fil0" d="M392 2302c28,-20 27,-68 51,-91 -20,14 -51,64 -51,91z"/>
   <path class="fil1" d="M3419 1636c9,12 3,5 18,13 16,-4 22,-5 27,-18 -16,-8 -33,-12 -45,5z"/>
   <path class="fil0" d="M1420 1108c14,-16 33,-49 39,-69 -10,9 -38,39 -41,56 -4,24 -3,2 2,13z"/>
   <path class="fil1" d="M3480 1831c11,5 22,7 35,3 -4,-26 -11,-5 -26,-30 -10,10 -14,11 -9,27z"/>
   <path class="fil0" d="M1064 661c-1,25 23,39 46,18 -15,-8 -13,2 -26,-9 -13,-9 0,-16 -20,-9z"/>
   <path class="fil0" d="M1211 625c46,-17 61,-28 82,-17l1 -10c-25,-3 -73,1 -83,27z"/>
   <path class="fil1" d="M1289 38l92 -3c-16,-12 -25,-8 -43,-6 -16,1 -36,-1 -49,9z"/>
   <path class="fil0" d="M1114 673l24 0 6 -48c-13,1 -7,-10 -10,6 -1,5 2,4 -1,15 -4,12 -13,15 -19,27z"/>
   <path class="fil1" d="M4107 1943c-6,-23 -8,-9 -30,-10 -15,-1 -26,-7 -40,-7 12,8 22,7 34,12 17,7 16,16 36,5z"/>
   <path class="fil0" d="M1368 617l21 -10 -31 -22c-9,15 -4,20 10,32z"/>
   <path class="fil0" d="M3093 1550c-1,1 12,7 22,25 13,25 -3,8 19,26 3,-28 -20,-36 -36,-55 0,0 -3,0 -3,2 0,1 -1,2 -2,2z"/>
   <path class="fil0" d="M3031 1454l-9 -27c-8,2 -1,-8 -10,7 -5,-17 -11,-22 -28,-27 6,14 37,44 47,47z"/>
   <path class="fil0" d="M962 497c0,-18 -3,-52 -12,-66 -8,21 -1,54 12,66z"/>
   <path class="fil1" d="M3222 1699l8 16c24,6 11,-12 25,2l-5 -26 -28 8z"/>
   <path class="fil1" d="M3524 1694c20,6 25,6 32,-10l-28 -9 -4 19z"/>
   <path class="fil1" d="M3326 1751c15,0 16,4 20,-10 -11,-10 -11,-2 -29,-15 -3,14 0,16 9,25z"/>
   <path class="fil0" d="M863 2532c6,19 6,27 17,31l-4 -45c-5,7 -6,9 -13,14z"/>
   <path class="fil0" d="M962 564l29 -3 -3 -19c-14,1 -22,9 -26,22z"/>
   <path class="fil0" d="M919 597c7,-1 5,0 11,-3 0,0 6,-5 6,-5 8,13 2,8 13,12 5,-37 -16,-27 -30,-4z"/>
   <path class="fil0" d="M1508 2636l21 17c-5,-16 4,-19 10,-29 -15,0 -19,2 -31,12z"/>
   <path class="fil0" d="M1512 499c11,7 36,2 49,-6 -13,-5 -36,-2 -49,6z"/>
   <path class="fil0" d="M1271 300c10,2 25,-7 36,-10 20,-7 18,6 36,-11 -23,-1 -53,12 -72,21z"/>
   <path class="fil0" d="M1534 1440c-6,16 -7,11 7,20l12 -9c-13,-15 -1,-14 -19,-11z"/>
   <path class="fil0" d="M1551 180c11,4 26,-3 34,-13 -11,-5 -23,2 -34,13z"/>
   <path class="fil0" d="M1174 618c6,-16 4,-22 -14,-25 2,16 1,14 14,25z"/>
   <path class="fil0" d="M965 591c2,0 48,-17 48,-17 -18,7 -9,1 -28,2 -14,1 -18,2 -20,15z"/>
   <path class="fil0" d="M1629 417c10,-10 21,-28 23,-41 -10,9 -21,25 -23,41z"/>
   <path class="fil0" d="M411 2314l14 -36c-5,2 -14,4 -16,24 0,1 -4,0 2,12z"/>
   <path class="fil0" d="M1589 496c7,-10 15,-25 16,-36 -11,11 -19,18 -16,36z"/>
   <path class="fil0" d="M1423 615c12,3 3,5 16,-2l-8 -14c-8,6 -9,5 -8,16z"/>
   <path class="fil0" d="M1321 570c8,-9 9,-10 4,-21 -12,7 -16,4 -4,21z"/>
   <path class="fil0" d="M1548 2631l43 -9c-19,-2 -11,3 -24,-6l-19 15z"/>
   <path class="fil0" d="M1351 635l13 -7c-9,-5 -14,-7 -24,-13 2,5 7,15 11,20z"/>
   <path class="fil0" d="M1218 316l34 -9c-14,-11 -23,-1 -34,9z"/>
   <path class="fil0" d="M1062 568c10,6 12,8 23,4 -5,-11 5,-8 -9,-9 0,0 -14,5 -14,5z"/>
   <path class="fil0" d="M1152 591c-2,-18 0,-15 -16,-16 4,13 -1,8 16,16z"/>
   <path class="fil0" d="M1167 651c9,-13 4,-20 -5,-33l5 33z"/>
   <path class="fil0" d="M1428 568c11,7 6,10 15,-3 -17,-14 -12,1 -15,3z"/>
   <path class="fil0" d="M3020 1489c3,9 -9,13 15,7 -10,-12 -5,-11 -15,-7z"/>
   <path class="fil0" d="M391 2247l10 -18c-13,4 -20,5 -10,18z"/>
   <path class="fil1" d="M1404 36l24 10c-7,-12 -9,-15 -24,-10z"/>
   <path class="fil1" d="M699 2408c10,6 -2,12 15,-1 -15,-6 -5,-4 -15,1z"/>
   <path class="fil1" d="M1243 263c0,3 9,5 6,-3 -2,-7 -7,-14 -6,3z"/>
   <path class="fil0" d="M1866 2625c6,6 21,-8 8,-4 0,0 -1,1 -2,1 0,0 -15,-7 -6,3z"/>
   <path class="fil0" d="M1409 621c0,-10 2,-10 -8,-12 1,9 -3,6 8,12z"/>
   <path class="fil1" d="M682 3275c-9,-7 -1,-6 -13,-1 6,4 -1,11 13,1z"/>
   <path class="fil1" d="M3589 456c4,-5 11,8 0,-12 -5,10 -7,1 0,12z"/>
   <path class="fil0" d="M1097 709c6,4 -1,8 12,0 -13,-8 -4,-4 -12,0z"/>
   <path class="fil0" d="M742 3170c0,7 9,7 7,1 -2,-9 -6,-4 -7,-1z"/>
   <path class="fil0" d="M1443 1102c10,-4 4,0 7,-10 -2,2 -7,-4 -7,10z"/>
   <path class="fil0" d="M1521 401c0,0 8,9 4,-2 -1,-4 -5,-15 -4,2z"/>
   <path class="fil0" d="M1135 564c4,5 12,-8 5,-3 0,0 -1,0 -1,0 0,0 -13,-6 -4,3z"/>
   <path class="fil0" d="M426 2268c10,-4 8,-3 9,-14 -4,8 -4,4 -9,14z"/>
   <path class="fil0" d="M925 610c0,5 6,6 5,0 -2,-8 -5,-3 -5,0z"/>
   <path class="fil0" d="M837 3326c-1,10 6,1 3,0 0,0 -3,-10 -3,0z"/>
   <path class="fil0" d="M1228 2677l12 -4c-21,0 -6,-2 -12,4z"/>
   <path class="fil0" d="M970 3106c7,-7 2,11 7,-11l-7 11z"/>
   <path class="fil0" d="M1602 2613c1,1 11,6 6,2 0,-1 -10,-8 -6,-2z"/>
   <path class="fil0" d="M946 416c5,7 4,-6 2,-2 0,0 -7,-7 -2,2z"/>
   <path class="fil0" d="M1384 1047c1,0 2,-3 2,-2 0,0 1,-1 1,-1 -1,0 -11,-7 -3,3z"/>
   <path class="fil0" d="M1675 360c0,6 4,-1 2,-1 0,0 -1,-10 -2,1z"/>
   <path class="fil0" d="M971 3115c0,0 1,-3 1,-2 0,0 1,-1 1,-1 0,1 -10,-7 -2,3z"/>
   <path class="fil0" d="M3003 1468c5,6 2,-3 1,-2 0,0 -5,-3 -1,2z"/>
   <path class="fil1" d="M1661 1649c1,0 2,-2 2,-1 0,0 1,-1 1,-1 -1,1 -10,-3 -3,2z"/>
   <path class="fil0" d="M3684 1790c0,1 1,-1 1,0 0,0 0,-1 0,-1 0,0 -9,-4 -1,1z"/>
   <path class="fil1" d="M696 3241c0,-1 -1,-3 -2,-2l2 2z"/>
   <path class="fil0" d="M3080 1541c1,0 2,-2 2,-2l0 0c0,0 -2,1 -2,2z"/>
   <path class="fil0" d="M1588 162l1 -1c0,0 -2,0 -1,1z"/>
   <path class="fil0" d="M1202 631c1,1 -2,-3 0,0z"/>
   <path class="fil0" d="M1491 2794c1,2 -2,-2 0,0z"/>
   <path class="fil0" d="M965 3136c0,6 1,-10 0,0z"/>
   <path class="fil1" d="M482 2423c0,0 0,-1 0,0z"/>
   <path class="fil1" d="M478 2444c1,0 0,0 0,0z"/>
   <path class="fil1" d="M1430 2061c2,1 -1,-1 0,0z"/>
   <polygon class="fil0" points="442,2239 448,2229 "/>
   <polygon class="fil1" points="1249,48 1263,44 "/>
   <polygon class="fil0" points="929,3222 940,3211 "/>
   <path class="fil2" d="M1192 1646l46 -326c9,-68 17,-165 64,-220 6,-7 9,-12 10,-16l-39 18 1 1c-3,22 -7,14 -22,25 -28,19 -30,65 -36,96l-54 218c-4,25 -11,50 -15,76 -5,21 -5,56 -1,77 6,35 -16,43 -5,66 13,2 39,-4 51,-15z"/>
   <path class="fil2" d="M2449 1705c1,14 0,31 7,38 10,11 34,24 48,24 11,-39 13,-84 15,-127 -17,-28 -22,-19 -2,-50 1,-1 20,-47 22,-51 13,-37 31,-74 34,-113 15,-22 7,-1 17,-30 10,-29 30,-21 53,-16 7,-10 12,-33 24,-54 11,-19 0,-30 33,-42l26 20c4,33 14,14 13,46 0,20 3,-2 4,18 1,16 -4,0 -2,20 15,-2 28,-8 41,-12 29,-8 17,-1 34,-2 12,-1 26,-10 35,-18 17,-15 9,-21 31,-21 7,16 2,18 3,30 17,5 64,11 83,6 -6,-24 -24,-24 -38,-46 -14,-22 -18,-30 -38,-49 -15,-14 -29,-28 -44,-42 -21,-21 -18,-31 -33,-50 -21,-15 -111,22 -134,36 -11,8 -20,18 -33,27 -40,26 -100,84 -126,125 -42,66 -112,198 -73,279 9,19 -1,32 0,54z"/>
   <path class="fil2" d="M2843 1710c-38,38 -37,67 -70,106 -2,2 -8,7 -5,6 16,0 46,15 72,12 -13,-11 -16,-7 -33,-11 -24,-28 1,-26 23,-28 28,33 63,18 82,26 23,20 31,24 62,33 19,6 14,10 24,23 12,14 13,4 24,16 9,-23 -19,-101 -66,-112 -39,-9 -45,-63 -113,-71z"/>
   <path class="fil2" d="M1230 817c-17,-18 -5,-117 5,-137 20,23 10,74 14,107 18,7 45,14 51,30 -13,20 -30,10 -48,7 -14,-2 -9,6 -22,-7zm23 48c4,-31 104,0 159,-64 10,-12 24,-18 31,-26 11,-13 3,-21 23,-29 16,14 4,16 6,42 1,19 -4,29 -11,48 -32,87 -115,93 -141,109 -10,6 -32,25 -33,-3 0,-18 16,-12 30,-30 -23,-40 -68,-23 -64,-47zm156 140c51,-13 67,-16 99,-57 12,-15 25,-26 34,-44 18,-35 60,-122 80,-144 34,-39 27,-88 39,-104 40,-9 41,7 51,-43 5,-23 4,-50 7,-74 2,-30 5,-56 11,-86 6,-30 3,-42 -20,-61 -34,4 -34,13 -50,40l-6 -13c-11,20 -23,41 -37,56 -15,15 -16,37 -32,52 -19,-10 -5,-12 -29,-11 -12,1 -25,3 -37,3 5,69 14,90 -62,111 -38,10 -116,43 -153,36l-3 -36c-48,-10 -51,4 -86,25 -6,45 -11,18 -42,40 -9,8 -44,23 -56,26 -13,4 -33,4 -52,5 12,19 24,55 30,76 9,31 13,24 35,42 14,12 26,27 41,36 19,11 29,12 47,27 24,21 60,49 88,63 46,22 48,49 103,35zm252 -505c-9,-19 -2,-30 6,-49 60,-22 50,44 44,84 -14,95 -8,84 -50,67 8,-81 10,-66 31,-78 0,-19 5,-29 -3,-45 -17,2 -4,12 -28,21z"/>
   <path class="fil3" d="M1771 1819c-6,32 -29,195 -35,206 -58,9 -173,-3 -233,13 -17,5 -48,20 -61,11 -12,-14 5,-60 9,-85 3,-24 9,-62 14,-84l41 -171c2,-2 143,-59 144,-59 25,4 42,-5 73,-8 31,-3 62,-17 77,6 10,-10 5,-16 21,-15 5,15 -43,155 -50,186zm-58 -256c-104,21 -199,51 -306,68 -49,8 -109,19 -157,30 -39,9 -94,26 -132,31 -62,8 -37,14 -83,87 -13,20 -9,27 -16,43 -11,23 -31,33 -43,52 -25,40 -3,205 -51,323 -14,36 -12,36 -7,73 9,65 -75,-25 -35,179 11,54 16,110 20,165 3,31 12,52 16,80 4,26 4,61 6,89 26,-6 46,-21 69,-34 18,-11 23,-5 38,-14 16,-10 15,-12 36,-20 42,-16 56,-30 75,-34 21,-4 59,-19 76,-32l-15 -30c8,-26 26,-42 48,-56 29,3 68,0 92,11 24,9 51,33 74,40l65 -62c11,-8 67,-42 89,-12 22,28 -1,36 -3,60 44,-10 66,-17 114,-17l94 1c16,2 12,-1 27,-1 41,-1 130,39 155,40 21,2 4,-6 21,5 12,7 11,7 26,7 16,-26 3,-97 6,-132 4,-41 9,-82 14,-123 4,-35 12,-80 20,-114 7,-33 2,-90 14,-120 10,-26 7,-27 9,-53 1,-16 11,-34 14,-52 11,-65 51,-263 86,-321l-83 -92c-32,-43 -62,-87 -85,-93 -108,-28 -184,7 -288,28zm-320 152c-1,26 -35,146 -43,182 -7,34 -10,184 -30,199 -21,-4 -8,-8 -21,-25 -45,0 -76,52 -108,27 -7,-29 35,-275 48,-320 11,-35 2,-31 39,-38 33,-6 85,-25 115,-25zm37 346c-1,-1 2,1 1,0 -1,0 -1,0 -1,0zm232 -413c0,0 0,1 -1,1 -7,-5 2,-1 3,-2 0,0 -1,1 -1,1l-1 0zm-232 413c2,1 -1,-1 0,0z"/>
   <path class="fil3" d="M1779 1527c26,2 58,-2 78,-15 7,-31 -4,-59 17,-137 5,-17 14,-51 16,-67l61 -189c12,-26 45,-96 41,-124 -39,-5 -40,15 -55,37 -20,28 -71,175 -75,202 -11,75 -74,243 -83,293z"/>
   <path class="fil3" d="M1192 1646l46 -326c9,-68 17,-165 64,-220 6,-7 9,-12 10,-16l-39 18 1 1c-3,22 -7,14 -22,25 -28,19 -30,65 -36,96l-54 218c-4,25 -11,50 -15,76 -5,21 -5,56 -1,77 6,35 -16,43 -5,66 13,2 39,-4 51,-15z"/>
   <path class="fil3" d="M1546 2778c-4,10 -53,35 -69,58 -6,9 -11,15 -21,18 -7,-5 -9,-11 -12,-13 10,-33 54,-93 42,-138 -4,-15 -18,-21 -30,-30 -7,11 -16,43 -25,60 -44,74 -23,42 -48,125 -8,25 -13,44 -19,71 -3,0 -35,2 -36,2 -13,0 -13,-11 -16,-24 23,-35 16,-139 73,-193 36,-35 3,-36 47,-36l3 -11c0,-1 -114,15 -126,17 -115,19 -226,81 -332,134 -85,42 -55,34 -85,147 -13,47 -41,221 -45,266 -2,25 0,45 -4,72 28,-37 61,-79 83,-118 12,-22 21,-51 24,-75 2,-12 6,-34 7,-45 3,-24 -16,-10 -4,-39 0,0 102,-60 127,-60 16,26 -2,36 -4,62 -7,83 -20,163 -20,242 0,56 -11,179 -9,245 2,62 20,58 -2,91 -11,17 -12,15 -43,26 -39,13 -94,65 -107,73 -27,16 -27,40 -46,41l-18 -42c-18,-83 -7,-70 -4,-146 1,-35 14,-202 6,-222 -7,61 -22,112 -23,175 0,35 -1,171 4,221 218,143 473,234 747,256 -10,-27 -20,-55 -32,-82 -8,-19 -61,-171 -59,-179l15 -8 100 265c1,2 2,4 2,6 34,2 68,3 102,3 263,0 512,-64 731,-177 -28,-63 -35,-76 -77,-150 -21,-38 -36,-73 -58,-111l-107 -233c-14,-35 -37,-86 -48,-120 -14,-43 -35,-81 -46,-122 -11,-44 -28,-85 -39,-128 -13,-49 -16,-99 -26,-148 -9,-47 -6,-90 -52,-116 -39,-23 -78,-39 -123,-44 -82,-11 -226,-12 -306,11 5,13 27,35 11,89 -5,18 -2,16 -3,34zm274 679c-24,-22 -109,-406 -132,-477 -52,-164 -70,-134 35,-175 91,-37 75,1 142,84 40,50 113,110 169,139 37,20 11,41 19,92 6,41 21,79 31,120 36,161 112,116 -37,147 -30,6 -223,70 -227,70z"/>
   <path class="fil4" d="M1314 2047c10,-32 13,-134 30,-203l18 -68c-135,30 -107,-1 -127,102 -13,71 -19,133 -27,204 19,-5 24,-18 47,-25 19,-6 41,-4 59,-10z"/>
   <path class="fil4" d="M1512 1762c-22,54 -47,209 -53,270 45,-11 5,-20 125,-22 36,-1 104,1 136,-5 8,-53 16,-111 27,-162 9,-42 38,-114 42,-150 -6,14 -44,9 -66,13l-211 56z"/>
   <path class="fil4" d="M1866 2939l-111 -112c-53,-2 -88,5 -73,56 10,39 17,81 32,119 36,91 55,253 89,372 25,87 8,66 64,41 42,-20 76,-19 116,-35 42,-16 94,-14 115,-21l-82 -269 -128 -129c-7,-6 -14,-13 -22,-22z"/>
   <path class="fil4" d="M1040 3589c-5,-85 -25,-72 -7,-215 8,-63 5,-172 13,-242l18 -135c-14,-1 -27,8 -38,16 -43,34 -15,56 -29,100l-82 178c-8,14 -11,27 -22,41l-20 -16c11,-14 50,-57 43,-76l-59 84c13,33 -2,15 -3,88 -1,28 -1,82 -4,107 -6,34 -8,69 -6,104 2,32 7,65 8,95 12,-7 9,-11 25,-22 11,-7 20,-14 28,-23 23,-24 38,-19 50,-48 19,-5 28,-8 44,-18 11,-6 32,-13 41,-18z"/>
   <path class="fil4" d="M1070 2752c22,-8 140,-62 146,-75 -10,3 -26,11 -37,15 -43,17 -54,12 -120,48 -23,13 1,-6 -37,20 -12,8 -23,14 -36,19 -18,7 -61,25 -64,44 21,2 69,-38 111,-52 21,-7 21,-14 37,-19z"/>
   <path class="fil4" d="M1236 2607c10,29 18,55 55,54 -28,-17 -45,-11 -35,-55 92,-16 40,-5 86,13 29,11 51,45 81,21 -5,-16 -18,-11 -38,-21 -74,-38 -37,-22 -99,-29 -23,-3 -36,0 -50,17z"/>
   <path class="fil4" d="M1553 2563c-35,-9 -108,36 -111,69 13,-6 1,4 12,-10 26,2 42,-2 60,-17 21,-16 37,-12 39,-42z"/>
   <path class="fil4" d="M1524 2748c10,-49 21,-56 -16,-79 -17,-10 -12,-12 -25,-22 -14,2 -11,-1 -15,10 57,-3 51,76 45,94 -4,15 -13,15 -14,35 19,-11 20,-16 25,-38z"/>
   <path class="fil4" d="M1403 2743c10,-15 19,-31 25,-48 -58,51 -59,87 -75,142 -3,10 -11,47 -6,57l19 -50c9,-26 6,-53 37,-101z"/>
   <path class="fil4" d="M1679 2610c39,2 155,16 184,11 0,-1 1,-1 3,-1 -34,-23 -148,-19 -184,-15 -21,2 -48,-1 -62,4 19,15 13,0 59,1z"/>
   <path class="fil4" d="M1886 2626c-1,1 53,15 91,39 28,18 12,-2 39,26 9,9 11,5 19,15 14,18 -1,8 9,24 18,-37 -21,-58 -52,-72 -14,-6 -97,-35 -106,-32z"/>
   <path class="fil4" d="M1866 2625c6,6 21,-8 8,-4l-2 1c0,0 -4,-2 -6,-2 -2,0 -3,0 -3,1 0,1 1,2 3,4z"/>
   <path class="fil5" d="M975 1850c63,-94 39,-84 32,-103 -4,-11 -1,-14 -6,-24 -8,-14 -18,-21 -24,-40 -14,-45 -58,-215 -62,-258 -2,-24 8,-30 2,-57 -47,2 -132,147 -149,185 -31,68 -95,167 -120,225 -12,28 -21,52 -39,77 -13,19 -33,56 -37,79l94 3c74,-4 105,15 142,13 28,-1 23,4 47,10 20,4 70,25 84,22l4 -44 -21 -15c1,-1 19,-39 20,-41 6,-12 19,-12 33,-32z"/>
   <path class="fil5" d="M1010 1701c11,13 9,25 22,43 17,-14 32,-55 48,-75 17,3 6,2 20,9l17 -8c13,-57 2,-185 24,-235 16,-35 51,-179 55,-218 -20,1 -21,12 -64,36 -42,23 -100,46 -132,66 -23,14 -33,13 -52,22l-17 10c3,40 2,74 9,114 6,34 51,214 70,236z"/>
   <path class="fil5" d="M1226 1515l-12 133c34,2 73,-8 105,-18 33,-10 74,-13 109,-19 18,-62 14,-188 39,-230l33 -60c-22,-54 -33,-95 -60,-148 -13,-25 -35,-38 -49,-55 -13,-15 -35,-53 -48,-59 0,30 -15,116 -5,140 6,-10 24,-90 55,-49 -17,33 -18,-24 -31,76 -2,16 -6,31 -5,48 1,27 15,20 8,38 -35,16 -39,-49 -42,-71l-14 -109c-8,4 -12,5 -19,21 -28,65 -24,110 -32,160 -9,53 -21,167 -32,202z"/>
   <path class="fil5" d="M1521 1412c39,-30 83,48 37,74 -25,14 -39,-3 -52,-23 -15,-23 -7,-35 15,-51zm-49 34c-4,31 -18,130 -11,155 25,5 288,-63 288,-63 26,-18 101,-316 120,-380 33,-110 73,-140 0,-138 -50,61 -36,45 -67,113 -10,22 -21,39 -30,62 -13,29 1,60 -33,57 -8,-18 -10,-44 -12,-64l-52 -108c-10,-12 -37,-29 -49,-27 -5,12 -10,61 -13,78 -15,107 30,50 -78,193 -29,37 -56,74 -63,122z"/>
   <path class="fil5" d="M1892 1379c-7,24 -24,110 -13,130 20,-1 82,-11 108,-8 43,5 47,35 74,59 25,22 60,72 98,100 17,13 36,46 42,63 -15,30 -16,6 -42,92 -10,33 -26,69 -34,103l-17 84c0,9 4,16 1,30l-30 108c27,-20 47,-89 66,-120 17,-29 31,-28 45,-50l103 -181c20,-33 51,-93 61,-126 -18,-11 -30,-13 -50,-19 -38,-13 -93,-57 -119,-87 -45,-52 -67,-133 -79,-198 -12,-70 6,-140 53,-195 22,-24 37,-55 58,-80 13,-16 74,-49 74,-61 -25,-9 -44,2 -70,-3 -34,-6 -96,6 -150,5 -18,-1 -12,-1 -28,1 -22,4 -12,-4 -30,-5 -12,14 -40,92 -47,113 -14,39 -37,72 -47,117 -6,23 -12,42 -17,66 -6,26 -2,40 -10,62z"/>
   <path class="fil5" d="M2124 1325c2,58 13,118 41,170 14,27 75,94 100,111 28,18 120,42 159,58 -27,-137 37,-203 74,-291 12,-30 65,-76 89,-101 32,-33 72,-56 106,-86 -6,-12 -95,-81 -113,-94 -36,-25 -106,-46 -149,-62 -46,-17 -34,-14 -75,-1 -15,4 -27,2 -41,10 -15,8 -77,53 -90,70 -16,20 -27,49 -41,67 -20,25 -31,22 -44,59 -14,41 -18,43 -16,90z"/>
   <path class="fil5" d="M936 2012c-18,-12 -45,-22 -67,-27 -19,-5 -20,1 -39,-9 -17,-9 -15,-9 -35,-12 -56,-7 -127,-14 -182,-11l-13 11c-122,-7 -106,13 -167,137 -6,13 -17,25 -25,40 -7,14 -41,75 -42,83 16,-24 86,-49 114,-58 81,-27 283,1 359,38 23,12 41,30 55,37 11,-39 48,-197 42,-229z"/>
   <path class="fil5" d="M2726 1304c4,33 14,14 13,46 0,20 3,-2 4,18 1,16 -4,0 -2,20 15,-2 28,-8 41,-12 29,-8 17,-1 34,-2 12,-1 26,-10 35,-18 17,-15 9,-21 31,-21 7,16 2,18 3,30 17,5 64,11 83,6 -6,-24 -24,-24 -38,-46 -14,-22 -18,-30 -38,-49 -15,-14 -29,-28 -44,-42 -21,-21 -18,-31 -33,-50 -21,-15 -111,22 -134,36 -11,8 -20,18 -33,27 -40,26 -100,84 -126,125 -42,66 -112,198 -73,279 9,19 -1,32 0,54 1,14 0,31 7,38 10,11 34,24 48,24 11,-39 13,-84 15,-127 -17,-28 -22,-19 -2,-50 1,-1 20,-47 22,-51 13,-37 31,-74 34,-113 15,-22 7,-1 17,-30 10,-29 30,-21 53,-16 7,-10 12,-33 24,-54 11,-19 0,-30 33,-42l26 20z"/>
   <path class="fil6" d="M1535 372c20,-7 79,-54 102,-59 19,-5 8,6 23,-1 17,-15 -24,-79 -28,-151 -27,4 -88,72 -178,104 -21,7 -30,11 -49,20 -23,10 -34,9 -55,18 -33,13 -84,13 -108,35 -2,23 3,38 7,59l11 42c-1,23 3,3 -6,12 -5,-20 -12,-36 -16,-55 -3,-16 -13,-39 -21,-52 -27,2 -55,10 -80,18 -23,7 -62,-1 -83,6 -3,7 6,22 10,60 2,17 5,50 13,63l24 3c0,-37 -18,-77 -17,-116 33,5 5,61 38,108 22,0 19,-1 37,-8 -3,-26 -40,-87 -22,-107 20,3 15,30 17,49 3,20 8,37 17,54l31 -3c4,-37 -25,-90 -16,-110 20,8 17,27 22,48 4,23 6,36 14,58 29,3 116,-19 145,-31 18,-8 46,-15 62,-24 34,-18 28,-19 68,-23 16,-22 16,-9 38,-17z"/>
   <path class="fil6" d="M1453 203c5,-3 12,-10 20,-14l63 -32c1,-1 2,-2 3,-3 0,0 2,-2 2,-2 -17,-11 -20,-25 -40,-41 -17,-13 -39,-21 -53,-32l10 -19c40,15 72,44 97,75 17,20 44,-3 32,-23 -18,-29 -26,-25 -52,-37 -6,-13 7,-6 -10,-15 -15,-9 -12,-11 -31,-19 -29,-10 -52,-20 -83,-22 -45,-3 -163,6 -202,27l3 19c-25,21 -85,36 -141,101 -9,10 -22,23 -29,31 -10,14 -11,20 -25,36 -13,15 -9,30 -19,41 -12,13 -27,6 -31,27l34 7c7,-32 17,-83 42,-74 -1,21 -25,42 -22,77 44,9 9,-84 62,-80 -1,21 -24,42 -25,77l27 2c0,-38 2,-50 22,-82 7,-12 2,-5 8,-9 -4,34 -16,46 -13,88l29 -2c8,-32 7,-78 26,-117 9,-18 6,-10 14,-14 -7,45 -24,72 -21,125l28 -3c-3,-57 9,-66 2,-99 21,6 14,74 12,94 15,-1 76,-15 86,-21 -2,-14 -13,-43 -19,-55 -15,-30 -30,-13 -26,-42 37,-6 46,71 64,94 15,-1 35,-13 49,-20 -13,-56 -93,-65 -66,-96 25,4 62,71 75,91 12,-4 15,-5 27,-7 21,-4 5,2 22,-11 28,-21 26,-10 49,-21zm-112 -83c26,13 76,59 78,84 -10,-9 -17,-21 -26,-28 0,0 -81,-36 -88,-66 11,-10 18,1 36,10zm117 42c-13,-8 -29,-39 -50,-52 -20,-12 -58,-19 -69,-29 28,-4 103,22 119,43 25,32 12,11 27,25 -12,5 -6,2 -21,-6l-4 12c-1,4 1,2 -2,7zm-209 98c3,8 -6,6 -6,3 -1,-17 4,-10 6,-3zm179 -214l-24 -10c15,-5 17,-2 24,10zm-47 -11l-92 3c13,-10 33,-8 49,-9 18,-2 27,-6 43,6z"/>
   <path class="fil7" d="M1144 326c-84,12 -94,3 -122,6 -20,3 -51,-1 -68,6 10,18 9,-3 59,7 15,3 98,-2 122,-12 24,-9 41,1 63,-15 -14,-6 -14,2 -54,8z"/>
   <path class="fil7" d="M1056 497c8,-19 -10,-97 -12,-101 -7,-9 -5,1 -11,-11 -5,-9 0,-5 -5,-17l-18 0c7,32 12,110 21,131l25 -2z"/>
   <path class="fil7" d="M1011 501c7,-12 -11,-124 -22,-135 -6,12 3,123 22,135z"/>
   <path class="fil7" d="M987 501c-6,-30 -6,-94 -23,-113 -5,10 9,63 11,88 2,18 -1,23 12,25z"/>
   <path class="fil7" d="M962 497c0,-18 -3,-52 -12,-66 -8,21 -1,54 12,66z"/>
   <path class="fil7" d="M1345 279c26,-3 37,-8 58,-18 36,-17 97,-40 124,-57 16,-11 16,-1 18,-20 -45,22 -26,17 -74,33 -18,6 -9,6 -24,14 -16,8 -34,17 -49,25 -25,12 -32,3 -53,23z"/>
   <path class="fil7" d="M1551 180c11,4 26,-3 34,-13 -11,-5 -23,2 -34,13z"/>
   <path class="fil7" d="M1649 193c2,30 17,89 38,109l23 -24c-13,-34 -34,-108 -57,-134 -8,21 50,107 46,133 -30,3 -20,-45 -50,-84z"/>
   <path class="fil7" d="M1307 290c20,-7 18,6 36,-11 -23,-1 -53,12 -72,21 10,2 25,-7 36,-10z"/>
   <path class="fil7" d="M1252 307c-14,-11 -23,-1 -34,9l34 -9z"/>
   <path class="fil8" d="M1519 519c5,69 14,90 -62,111 -38,10 -116,43 -153,36l-3 -36c-48,-10 -51,4 -86,25 -6,45 -11,18 -42,40 -9,8 -44,23 -56,26 -13,4 -33,4 -52,5 12,19 24,55 30,76 9,31 13,24 35,42 14,12 26,27 41,36 19,11 29,12 47,27 24,21 60,49 88,63 46,22 48,49 103,35 51,-13 67,-16 99,-57 12,-15 25,-26 34,-44 18,-35 60,-122 80,-144 34,-39 27,-88 39,-104 40,-9 41,7 51,-43 5,-23 4,-50 7,-74 2,-30 5,-56 11,-86 6,-30 3,-42 -20,-61 -34,4 -34,13 -50,40l-6 -13c-11,20 -23,41 -37,56 -15,15 -16,37 -32,52 -19,-10 -5,-12 -29,-11 -12,1 -25,3 -37,3zm-284 161c20,23 10,74 14,107 18,7 45,14 51,30 -13,20 -30,10 -48,7 -14,-2 -9,6 -22,-7 -17,-18 -5,-117 5,-137zm231 66c16,14 4,16 6,42 1,19 -4,29 -11,48 -32,87 -115,93 -141,109 -10,6 -32,25 -33,-3 0,-18 16,-12 30,-30 -23,-40 -68,-23 -64,-47 4,-31 104,0 159,-64 10,-12 24,-18 31,-26 11,-13 3,-21 23,-29zm195 -144c8,-81 10,-66 31,-78 0,-19 5,-29 -3,-45 -17,2 -4,12 -28,21 -9,-19 -2,-30 6,-49 60,-22 50,44 44,84 -14,95 -8,84 -50,67z"/>
   <path class="fil9" d="M1607 831c-22,30 -44,85 -85,140 -16,22 -50,38 -53,53l21 -8c-8,20 -36,52 -37,71l16 -14c3,18 -9,51 -24,59 -10,-10 -6,-9 -7,-24l-7 13 20 28 18 -50c13,14 5,7 19,18 -12,49 -15,28 -26,42 8,29 40,112 57,135 34,-32 63,-72 67,-120 4,-32 13,-52 9,-84 -1,-17 8,-61 17,-77 19,-2 17,5 29,-9 43,-46 29,-57 52,-93l-19 -11c-2,-48 -2,-22 -24,-44 1,-22 3,-10 15,-26 -6,-26 1,-50 -18,-66 -18,24 -25,46 -40,67z"/>
   <path class="fil9" d="M742 2193c-63,-12 -127,-23 -193,-17 -16,24 -26,68 -35,97 -11,34 -36,68 -40,96l13 16 -21 16c-23,111 84,235 131,329 31,60 113,161 131,219 4,12 26,82 28,86 13,-19 14,-48 47,-49l9 19c-25,26 -21,-3 -36,60 -28,111 29,184 24,249 -44,21 -28,8 -63,-8 -21,-9 -45,-25 -50,-46 10,-7 14,-4 20,-10 6,-4 6,-12 11,-19 16,-25 14,-10 13,-47 -5,3 -2,1 -7,6 -33,35 -40,14 -49,63 -4,21 -4,8 -10,20l-9 69 65 39 -14 13c15,18 59,34 78,49 -1,22 -3,0 -7,19l9 5c12,-11 8,-45 11,-64 11,-73 38,-139 35,-236 -1,-37 20,-102 24,-146 3,-40 35,-117 31,-147 -14,-14 -18,-4 -25,-28 4,-13 4,-5 9,-14 15,-28 -12,-16 32,-35 17,-57 -11,-61 -13,-91 -2,-31 -3,-65 -6,-95 -9,-13 -16,-11 -21,-22 -2,-5 -19,-84 -42,-90 10,17 30,45 16,58 -17,-53 -15,-48 -61,-76 -18,-11 -19,-24 -28,-40 -4,-6 -11,-13 -17,-18 -16,-13 -13,-4 -14,-19 23,11 36,-4 55,12 -12,5 -16,1 -30,-1 5,15 14,19 26,30 15,-2 2,2 16,-6l33 35c49,-6 20,28 56,41 -4,-21 -9,-46 -14,-69 -5,-20 -20,-45 -21,-60 -1,-18 37,-104 43,-127 -21,-16 -33,-34 -60,-42 -24,-7 -55,-20 -80,-24zm-43 215c10,-5 0,-7 15,-1 -17,13 -5,7 -15,1zm-23 -95c10,-8 44,-13 58,-9 46,14 62,33 87,69 15,22 17,33 13,60 -10,-10 -61,-103 -117,-103 -23,-1 -33,13 -41,-17zm-7 961c12,-5 4,-6 13,1 -14,10 -7,3 -13,-1zm25 -35c1,-1 2,1 2,2 0,1 1,1 1,1 -1,0 -10,7 -3,-3zm-216 -795c0,0 0,0 0,0 0,0 0,0 0,0zm4 -21c0,-1 0,0 0,0zm0 0c0,0 0,-1 0,0z"/>
   <path class="fil9" d="M2829 1474c23,22 52,20 55,21 7,2 9,5 22,8 20,4 29,16 46,11l49 -16c-11,-10 -11,-6 -18,-11 -6,-4 -7,-8 -15,-15l-93 -84 -25 66c16,9 22,6 32,17 -26,4 -32,-7 -53,3z"/>
   <path class="fil9" d="M2750 1489c7,-49 39,-48 35,-88l-53 24 -13 55 31 9z"/>
   <path class="fil9" d="M2727 1648c-16,-3 -40,-18 -97,-27 4,22 10,68 18,85 5,11 35,60 45,67 20,-34 32,-86 34,-125z"/>
   <path class="fil9" d="M2843 1710c-38,38 -37,67 -70,106 -2,2 -8,7 -5,6 16,0 46,15 72,12 -13,-11 -16,-7 -33,-11 -24,-28 1,-26 23,-28 28,33 63,18 82,26 23,20 31,24 62,33 19,6 14,10 24,23 12,14 13,4 24,16 9,-23 -19,-101 -66,-112 -39,-9 -45,-63 -113,-71z"/>
   <path class="fil9" d="M3008 1780c-3,58 107,91 105,135 -20,-26 -40,-39 -67,-53 1,24 6,13 23,35 30,38 101,59 114,54 32,-26 25,-16 62,-29 66,-23 28,-29 64,-27l-8 19c18,-5 7,-7 22,2 -11,16 -13,6 -22,21 16,18 82,20 108,22 -8,-13 -14,-10 -20,-21 -8,-15 7,-4 -9,-26 -11,6 -19,7 -32,12 -16,-17 -14,-21 -35,-33 9,-23 5,-15 21,-31 4,8 3,32 13,38 15,3 48,-7 58,-14 25,-18 22,-37 50,-37 7,32 -21,40 -53,73 46,37 84,-16 99,-57l19 -7 12 -52c11,-28 68,-147 61,-164l-29 -27c-71,4 -69,75 -80,130 -3,13 -9,53 -13,60l-10 0c-21,-28 47,-186 36,-210 -15,-15 -14,-19 -38,-22 -16,-2 -7,-2 -21,1 -19,5 -3,0 -26,-1 -12,30 -20,97 -28,133 -6,29 -16,38 -10,69 4,21 -1,41 -21,50l-13 -21c-14,20 -1,15 -8,39 -3,10 -8,20 -14,29 -12,21 -8,10 -24,19 -14,9 -7,17 -28,10 17,-17 7,4 16,-13l-38 7c-16,-14 -3,-14 -26,-11 9,17 16,18 3,36 -10,-3 -48,-54 -51,-67l12 -18c23,11 12,20 43,28 27,8 35,11 66,8 15,-8 44,-64 -13,-95 -32,-17 -75,-26 -107,-49 -40,-10 -74,69 -82,76 -4,-4 -9,-4 -6,-16 4,-19 40,-98 90,-82 0,-22 6,-35 8,-57 3,-22 -6,-39 7,-49 32,19 1,99 10,116 13,13 56,35 74,34 17,-27 7,-32 -2,-55 -9,-25 38,-151 27,-170 -12,-12 -26,-11 -42,-22 -19,-13 -23,-21 -46,-10 -23,11 -21,5 -38,26 -13,16 -25,14 -34,30 14,40 25,3 23,68 -3,66 -32,86 -84,126 -56,44 -48,25 -68,40zm472 51c-5,-16 -1,-17 9,-27 15,25 22,4 26,30 -13,4 -24,2 -35,-3zm-77 -31c-14,-19 -1,-17 0,-19 14,-1 1,4 15,2 9,-1 -2,-9 16,-1 3,12 -1,17 -9,28 -9,-2 -16,-1 -22,-10zm-173 -85l-8 -16 28 -8 5 26c-14,-14 -1,4 -25,-2zm207 -66c-15,-8 -9,-1 -18,-13 12,-17 29,-13 45,-5 -5,13 -11,14 -27,18zm-183 -67c-16,5 -51,-5 -39,-30 6,2 16,6 23,7 17,4 7,-4 25,4l-9 19zm270 112l4 -19 28 9c-7,16 -12,16 -32,10z"/>
   <path class="fil9" d="M3302 1661l-18 94c34,26 15,-19 58,43 16,-10 10,-11 22,-24l-13 -11c2,-17 11,-42 14,-58l25 -108c5,-15 18,-39 20,-52 -13,-9 -31,-16 -50,-17 -30,0 -12,7 -50,22 -8,37 -4,75 -8,111zm59 -39l-22 0c-27,-30 0,-26 27,-21l-5 21zm-44 104c18,13 18,5 29,15 -4,14 -5,10 -20,10 -9,-9 -12,-11 -9,-25z"/>
   <path class="fil8" d="M1281 573c1,-12 -10,-20 -16,-37l16 -10c-7,-25 17,-21 70,-37 35,-10 64,-21 103,-16 -13,10 -32,12 -48,16 -48,10 -41,6 -42,27 33,-1 79,-34 112,-22 8,16 11,50 27,61 10,-62 -33,-69 -40,-83 20,-25 27,-6 41,7 36,-6 65,-5 84,-37 12,-19 42,-61 45,-78 -26,11 -22,13 -37,34l-24 -3 -7 18 -23 3 -9 21 -60 -27c-9,6 -16,13 -22,16 -20,10 2,-7 -54,19l-141 45c-45,14 -221,26 -244,39 -4,17 -5,8 3,24 46,7 121,-30 159,-11 12,22 4,37 15,58 27,-8 51,-39 92,-27z"/>
   <path class="fil10" d="M1717 920c-7,13 -22,45 -30,56l-32 54c32,33 36,25 56,73 7,17 15,27 24,41 14,22 5,35 23,50l44 -111c8,-18 16,-35 27,-51 6,-7 10,-18 15,-25 7,-10 11,-7 21,-18 -24,-15 -51,-29 -73,-44 -32,-22 -36,-40 -75,-25z"/>
   <path class="fil10" d="M1420 1108c14,-16 33,-49 39,-69 -10,9 -38,39 -41,56 -4,24 -3,2 2,13z"/>
   <path class="fil10" d="M1428 1054c20,-25 25,0 28,-35 -22,4 -29,27 -49,61l-14 -6c1,4 8,15 14,20 7,-12 12,-29 21,-40z"/>
   <path class="fil10" d="M1450 1092c-2,2 -7,-4 -7,10 10,-4 4,0 7,-10z"/>
   <path class="fil10" d="M1385 1045c1,0 1,-1 1,0 0,0 1,-1 1,-1 -1,0 -11,-7 -3,3 0,0 1,-1 1,-2z"/>
   <path class="fil10" d="M401 2229c-13,4 -20,5 -10,18l10 -18z"/>
   <path class="fil10" d="M443 2211c-20,14 -51,64 -51,91 28,-20 27,-68 51,-91z"/>
   <path class="fil10" d="M425 2278c-5,2 -14,4 -16,24 0,1 -4,0 2,12l14 -36z"/>
   <path class="fil10" d="M496 2189c-21,9 -75,115 -80,142 22,-6 35,-48 44,-69 5,-14 28,-60 36,-73z"/>
   <path class="fil10" d="M484 2242c-14,25 -42,72 -46,96l23 -30c1,26 -13,25 -11,57l26 -59 -12 -6c16,-15 33,-62 37,-86 -5,4 -4,2 -9,11 -4,6 -6,12 -8,17z"/>
   <path class="fil10" d="M426 2268c10,-4 8,-3 9,-14 -4,8 -4,4 -9,14z"/>
   <path class="fil11" d="M2681 1608c38,12 20,-6 58,18 10,-11 30,-84 34,-103 -19,-6 -84,-28 -96,-39l3 -23 26 0c33,-87 11,-95 6,-115 -4,-13 5,-17 -11,-29 -14,9 -16,24 -25,41 -17,33 0,18 -3,48l-26 17c-18,-7 -9,-16 -40,-10 -5,20 -2,26 -13,48l-51 134c-6,21 -14,163 -14,201 0,16 1,16 12,21 9,-14 57,-179 72,-224 40,-1 33,5 68,15z"/>
   <path class="fil11" d="M3550 1854c15,19 97,45 127,51 1,1 192,79 214,79l-2 -35c-37,-21 -285,-109 -322,-111l-17 16z"/>
   <path class="fil11" d="M3805 1859c23,9 87,38 108,32l3 -13c-14,-19 -63,-27 -86,-32 -47,-9 -118,-41 -176,-56 -23,-6 -53,-32 -78,-35l-8 17c23,8 80,21 93,40 27,-5 26,2 50,10l-15 0c20,16 66,21 109,37z"/>
   <path class="fil11" d="M3940 1879c-17,17 -7,17 -12,36 -7,29 -8,8 -3,41 -18,9 -17,13 -18,33l14 4c14,-16 28,-81 31,-106l-12 -8z"/>
   <path class="fil12" d="M2824 1632c4,-25 9,-50 18,-73 -7,-14 -23,-23 -38,-27 -25,3 -41,91 -42,115 -1,15 -11,15 -18,32 -9,22 -53,148 -50,162l16 -12c15,6 22,6 34,-8 7,-9 5,-11 10,-20 0,0 57,-78 56,-90l-10 -17c8,-19 22,-45 24,-62z"/>
   <path class="fil12" d="M2795 1485c11,17 -1,18 24,28 11,5 29,14 37,11l2 -18c-19,-10 -32,-1 -48,-13l6 -47 20 -2c8,-18 6,-16 9,-35 2,-13 10,-21 15,-31 -43,9 -82,92 -95,112 17,12 12,5 30,-5z"/>
   <path class="fil12" d="M2870 1526c-11,20 3,10 -7,31 -7,15 -9,22 -13,38 -7,25 -18,55 -23,79 23,13 20,34 49,26 -3,-26 -15,-74 -6,-97 12,-33 36,-50 46,-70 -16,-11 -29,-13 -46,-7z"/>
   <path class="fil12" d="M3560 1790l-2 17c30,8 16,-1 43,15 35,22 70,24 107,35 7,3 12,7 21,9 51,16 136,68 173,64 5,-34 -24,-20 -76,-45 -12,-5 -32,-11 -45,-15 -20,-7 -30,-16 -45,-20l-89 -27c-18,-6 -76,-34 -87,-33z"/>
   <path class="fil12" d="M3972 1951c5,4 3,1 10,7 18,14 41,28 64,32 28,4 72,32 95,22 -64,-50 -26,-13 -82,-40 -20,-10 -71,-19 -98,-28l11 7z"/>
   <path class="fil13" d="M3033 1736c55,-34 104,-65 81,-138 -9,-31 -27,-53 -59,-63 -47,-14 -70,20 -90,11l16 -16c-31,17 -11,10 -28,26 -11,11 -20,11 -33,28 -41,47 -28,65 -10,109 12,26 -14,8 34,48 27,23 62,12 89,-5zm-33 -119c23,-3 29,-7 35,20 4,17 12,40 12,55 -30,4 -15,-2 -38,-20 -16,-12 -22,-6 -22,-30 -1,-40 -34,-26 -36,-75 32,0 29,28 49,50z"/>
   <path class="fil13" d="M3115 1575c13,25 -3,8 19,26 3,-28 -20,-36 -36,-55 0,0 -3,0 -3,2 0,1 -1,2 -2,2 -1,1 12,7 22,25z"/>
   <path class="fil10" d="M2930 1399c21,18 38,46 63,55 -11,-12 -14,-22 -26,-33 -11,-10 -16,-21 -29,-31l-8 9z"/>
   <path class="fil10" d="M2984 1407c6,14 37,44 47,47l-9 -27c-8,2 -1,-8 -10,7 -5,-17 -11,-22 -28,-27z"/>
   <path class="fil10" d="M3035 1496c-10,-12 -5,-11 -15,-7 3,9 -9,13 15,7z"/>
   <path class="fil12" d="M2686 1800c-69,-80 -44,-51 -68,-125 -4,-13 -1,-4 -5,-11 -8,38 -37,95 -38,131 21,2 35,6 55,10 28,5 26,4 39,23l17 -28z"/>
   <path class="fil14" d="M1312 1770c19,-2 54,-7 54,-29 -5,0 -103,21 -108,25 7,20 34,5 54,4z"/>
   <path class="fil14" d="M1577 1702c-19,14 -53,19 -60,32 13,2 62,-7 74,-14l141 -34c25,1 16,-5 31,-8 19,-4 14,5 31,8l3 -32c-29,-3 -191,26 -220,48z"/>
   <path class="fil14" d="M1324 2620c-19,-2 -26,-5 -41,8 12,14 56,31 70,21 -16,-15 -21,-3 -29,-29z"/>
   <path class="fil14" d="M880 2563l-4 -45c-5,7 -6,9 -13,14 6,19 6,27 17,31z"/>
   <path class="fil14" d="M1775 2810c6,26 54,89 91,129 8,9 15,16 22,22 4,4 8,8 12,10 44,30 48,40 105,68 -13,-14 -47,-25 -66,-47 -12,-13 -10,-18 -27,-29 -24,-16 -12,-13 -30,-30 -29,-28 -32,-27 -53,-63 -29,-50 -48,-52 -54,-60z"/>
   <path class="fil14" d="M1529 2653c-5,-16 4,-19 10,-29 -15,0 -19,2 -31,12l21 17z"/>
   <path class="fil14" d="M1567 2616l-19 15 43 -9c-19,-2 -11,3 -24,-6z"/>
   <path class="fil9" d="M769 3299c6,-30 4,-42 -17,-76 -6,9 -25,39 -26,47 10,14 27,17 43,29z"/>
   <g>
    <path class="fil7" d="M94 2398c0,-693 442,-1283 1059,-1503 -12,-8 -24,-16 -30,-26 -5,-8 -7,-18 -13,-23 -6,-6 -12,-2 -20,-7 -1,-1 -5,-7 -9,-15 -632,240 -1081,851 -1081,1567 0,926 751,1677 1676,1677 926,0 1677,-751 1677,-1677 0,-153 -21,-301 -59,-441 -20,-11 -40,-16 -72,5 41,141 62,289 62,443 0,610 -342,1141 -846,1409 0,0 0,0 0,0 -6,3 -12,6 -18,9 -219,113 -468,177 -731,177 -34,0 -68,-1 -102,-3 -8,-1 -17,-1 -26,-2 -274,-22 -529,-113 -747,-256 -7,-5 -14,-9 -21,-14 0,0 0,0 0,0 -422,-287 -699,-771 -699,-1320z"/>
    <path class="fil7" d="M1689 803c316,0 611,92 859,250 33,15 63,32 97,65 85,81 90,30 158,32 -297,-270 -693,-435 -1127,-435 0,0 0,0 0,0 -2,12 -3,29 0,51 1,13 3,25 5,37l8 0z"/>
   </g>
  </g>
  <path class="fil8" d="M1095 607l-1 -24 -115 17 6 5 8 5c-3,29 -3,50 14,77 14,1 33,5 45,-1l-40 -67 8 -15c22,-1 11,2 26,5 9,3 6,0 14,3 18,5 -1,15 35,-5z"/>
 </g>
</svg>
